SplineFontDB: 3.0
FontName: Illusion-Regular
FullName: Illusion
FamilyName: Illusion
Weight: Regular
Copyright: Copyright 2015 Google Inc. All Rights Reserved.
Version: 0.2.4
ItalicAngle: 0
UnderlinePosition: -205
UnderlineWidth: 102
Ascent: 1798
Descent: 250
InvalidEm: 0
LayerCount: 2
Layer: 0 1 "+gMyXYgAA" 1
Layer: 1 1 "+Uk2XYgAA" 0
XUID: [1021 266 871575248 4725294]
StyleMap: 0x0040
FSType: 0
OS2Version: 4
OS2_WeightWidthSlopeOnly: 0
OS2_UseTypoMetrics: 0
CreationTime: 1547278235
ModificationTime: 1559801456
PfmFamily: 49
TTFWeight: 400
TTFWidth: 5
LineGap: 0
VLineGap: 0
Panose: 2 11 6 9 2 2 4 3 2 4
OS2TypoAscent: 1798
OS2TypoAOffset: 0
OS2TypoDescent: -250
OS2TypoDOffset: 0
OS2TypoLinegap: 448
OS2WinAscent: 1984
OS2WinAOffset: 0
OS2WinDescent: 512
OS2WinDOffset: 0
HheadAscent: 1984
HheadAOffset: 0
HheadDescent: -512
HheadDOffset: 0
OS2SubXSize: 1434
OS2SubYSize: 1331
OS2SubXOff: 0
OS2SubYOff: 287
OS2SupXSize: 1434
OS2SupYSize: 1331
OS2SupXOff: 0
OS2SupYOff: 977
OS2StrikeYSize: 108
OS2StrikeYPos: 760
OS2CapHeight: 1456
OS2XHeight: 1082
OS2Vendor: 'PfEd'
Lookup: 1 0 0 "'fwid' Full Widths in Latin lookup 0" { "'fwid' Full Widths in Latin lookup 0 subtable" ("full") } ['fwid' ('DFLT' <'JAN ' 'dflt' > 'latn' <'JAN ' 'dflt' > ) ]
Lookup: 1 0 0 "'hwid' Half Widths in Latin lookup 1" { "'hwid' Half Widths in Latin lookup 1 subtable" ("hw") } ['hwid' ('DFLT' <'JAN ' 'dflt' > 'latn' <'JAN ' 'dflt' > ) ]
MarkAttachClasses: 1
DEI: 91125
ShortTable: cvt  2
  68
  1297
EndShort
ShortTable: maxp 16
  1
  0
  1480
  177
  32
  176
  9
  2
  0
  1
  1
  0
  64
  0
  3
  3
EndShort
LangName: 1033 "" "" "" "Google:Illusion:2019" "" "" "" "Roboto Mono is a trademark of Google." "" "Google" "" "Google.com" "Christian Robertson" "Licensed under the Apache License, Version 2.0" "http://www.apache.org/licenses/LICENSE-2.0"
GaspTable: 3 10 10 20 7 65535 15 1
Encoding: UnicodeFull
UnicodeInterp: none
NameList: AGL For New Fonts
DisplaySize: -48
AntiAlias: 1
FitToEm: 1
WinInfo: 0 16 6

StartChar: .notdef
Encoding: 1114112 -1 0
Width: 748
Flags: W
LayerCount: 2
Fore
SplineSet
64 0 m 1,0,-1
 64 1456 l 1,1,-1
 684 1456 l 1,2,-1
 684 0 l 1,3,-1
 64 0 l 1,0,-1
144 80 m 1,4,-1
 604 80 l 1,5,-1
 604 1376 l 1,6,-1
 144 1376 l 1,7,-1
 144 80 l 1,4,-1
EndSplineSet
Validated: 1
EndChar

StartChar: exclam
Encoding: 33 33 4
Width: 1024
GlyphClass: 2
Flags: W
LayerCount: 2
Fore
SplineSet
585 471 m 1,0,-1
 431 471 l 1,1,-1
 431 1456 l 1,2,-1
 585 1456 l 1,3,-1
 585 471 l 1,0,-1
416 97 m 0,4,5
 416 145 416 145 439.5 177 c 128,-1,6
 463 209 463 209 511 209 c 0,7,8
 558 209 558 209 582.5 177 c 128,-1,9
 607 145 607 145 607 97 c 0,10,11
 607 51 607 51 582.5 20 c 128,-1,12
 558 -11 558 -11 511 -11 c 256,13,14
 464 -11 464 -11 440 20 c 128,-1,15
 416 51 416 51 416 97 c 0,4,5
EndSplineSet
Validated: 1
EndChar

StartChar: quotedbl
Encoding: 34 34 5
Width: 1024
GlyphClass: 2
Flags: W
LayerCount: 2
Fore
SplineSet
420 1427 m 1,0,-1
 402 1057 l 1,1,-1
 294 1057 l 1,2,-1
 295 1411 l 1,3,-1
 295 1536 l 1,4,-1
 420 1536 l 1,5,-1
 420 1427 l 1,0,-1
716 1427 m 1,6,-1
 699 1057 l 1,7,-1
 592 1057 l 1,8,-1
 593 1411 l 1,9,-1
 593 1536 l 1,10,-1
 717 1536 l 1,11,-1
 716 1427 l 1,6,-1
EndSplineSet
Validated: 1
EndChar

StartChar: numbersign
Encoding: 35 35 6
Width: 1024
GlyphClass: 2
Flags: W
LayerCount: 2
Fore
SplineSet
588 410 m 1,0,-1
 368 410 l 1,1,-1
 302 0 l 1,2,-1
 183 0 l 1,3,-1
 249 410 l 1,4,-1
 51 410 l 1,5,-1
 51 547 l 1,6,-1
 271 547 l 1,7,-1
 328 901 l 1,8,-1
 114 901 l 1,9,-1
 114 1040 l 1,10,-1
 351 1040 l 1,11,-1
 419 1456 l 1,12,-1
 538 1456 l 1,13,-1
 470 1040 l 1,14,-1
 689 1040 l 1,15,-1
 757 1456 l 1,16,-1
 876 1456 l 1,17,-1
 808 1040 l 1,18,-1
 978 1040 l 1,19,-1
 978 901 l 1,20,-1
 785 901 l 1,21,-1
 728 547 l 1,22,-1
 916 547 l 1,23,-1
 916 410 l 1,24,-1
 706 410 l 1,25,-1
 640 0 l 1,26,-1
 521 0 l 1,27,-1
 588 410 l 1,0,-1
390 547 m 1,28,-1
 609 547 l 1,29,-1
 666 901 l 1,30,-1
 447 901 l 1,31,-1
 390 547 l 1,28,-1
EndSplineSet
Validated: 1
EndChar

StartChar: dollar
Encoding: 36 36 7
Width: 1024
GlyphClass: 2
Flags: W
LayerCount: 2
Fore
SplineSet
573 147 m 1,0,1
 739 185 739 185 739 393 c 0,2,3
 739 526 739 526 573 613 c 1,4,-1
 573 147 l 1,0,1
464 661 m 1,5,6
 329 720 329 720 259 802 c 0,7,8
 166 911 166 911 166 1077.5 c 128,-1,9
 166 1244 166 1244 245.5 1348 c 128,-1,10
 325 1452 325 1452 464 1472 c 1,11,-1
 464 1692 l 1,12,-1
 587 1692 l 1,13,-1
 587 1472 l 1,14,15
 727 1449 727 1449 804.5 1330.5 c 128,-1,16
 882 1212 882 1212 882 1008 c 1,17,-1
 730 1008 l 1,18,19
 729 1221 729 1221 611 1292 c 0,20,21
 593 1303 593 1303 573 1309 c 1,22,-1
 573 803 l 1,23,24
 731 738 731 738 812 642.5 c 128,-1,25
 893 547 893 547 893 377 c 0,26,27
 893 119 893 119 705 23 c 0,28,29
 646 -7 646 -7 573 -16 c 1,30,-1
 573 -208 l 1,31,-1
 450 -208 l 1,32,-1
 450 -17 l 1,33,34
 222 11 222 11 147 235 c 0,35,36
 120 316 120 316 120 429 c 1,37,-1
 273 429 l 1,38,39
 273 276 273 276 348 201 c 0,40,41
 394 155 394 155 464 144 c 1,42,-1
 464 661 l 1,5,6
464 1308 m 1,43,44
 407 1294 407 1294 364 1241.5 c 128,-1,45
 321 1189 321 1189 321 1086 c 128,-1,46
 321 983 321 983 375 922 c 0,47,48
 408 885 408 885 464 854 c 1,49,-1
 464 1308 l 1,43,44
EndSplineSet
Validated: 1
EndChar

StartChar: percent
Encoding: 37 37 8
Width: 1024
GlyphClass: 2
Flags: W
LayerCount: 2
Fore
SplineSet
37 1194 m 2,0,1
 37 1251 37 1251 51.5 1302.5 c 128,-1,2
 66 1354 66 1354 93.5 1393 c 128,-1,3
 121 1432 121 1432 162.5 1454.5 c 128,-1,4
 204 1477 204 1477 258 1477 c 0,5,6
 313 1477 313 1477 355 1454.5 c 128,-1,7
 397 1432 397 1432 425 1393 c 128,-1,8
 453 1354 453 1354 467.5 1302.5 c 128,-1,9
 482 1251 482 1251 482 1194 c 2,10,-1
 482 1117 l 2,11,12
 482 1060 482 1060 467.5 1009 c 128,-1,13
 453 958 453 958 425 919.5 c 128,-1,14
 397 881 397 881 355.5 858.5 c 128,-1,15
 314 836 314 836 260 836 c 256,16,17
 206 836 206 836 164 858.5 c 128,-1,18
 122 881 122 881 94 919.5 c 128,-1,19
 66 958 66 958 51.5 1009 c 128,-1,20
 37 1060 37 1060 37 1117 c 2,21,-1
 37 1194 l 2,0,1
151 1117 m 2,22,23
 151 1086 151 1086 157 1057.5 c 128,-1,24
 163 1029 163 1029 176 1006.5 c 128,-1,25
 189 984 189 984 209.5 970.5 c 128,-1,26
 230 957 230 957 260 957 c 0,27,28
 289 957 289 957 309.5 970.5 c 128,-1,29
 330 984 330 984 342.5 1006.5 c 128,-1,30
 355 1029 355 1029 361 1057.5 c 128,-1,31
 367 1086 367 1086 367 1117 c 2,32,-1
 367 1194 l 2,33,34
 367 1225 367 1225 361 1254.5 c 128,-1,35
 355 1284 355 1284 342 1306.5 c 128,-1,36
 329 1329 329 1329 308.5 1342.5 c 128,-1,37
 288 1356 288 1356 258 1356 c 0,38,39
 229 1356 229 1356 209 1342.5 c 128,-1,40
 189 1329 189 1329 176 1306.5 c 128,-1,41
 163 1284 163 1284 157 1254.5 c 128,-1,42
 151 1225 151 1225 151 1194 c 2,43,-1
 151 1117 l 2,22,23
536 338 m 2,44,45
 536 395 536 395 550.5 446 c 128,-1,46
 565 497 565 497 593.5 536 c 128,-1,47
 622 575 622 575 663.5 597.5 c 128,-1,48
 705 620 705 620 759 620 c 0,49,50
 814 620 814 620 855.5 597.5 c 128,-1,51
 897 575 897 575 925 536 c 128,-1,52
 953 497 953 497 967.5 446 c 128,-1,53
 982 395 982 395 982 338 c 2,54,-1
 982 260 l 2,55,56
 982 203 982 203 967.5 152 c 128,-1,57
 953 101 953 101 925 62.5 c 128,-1,58
 897 24 897 24 855.5 1.5 c 128,-1,59
 814 -21 814 -21 760 -21 c 0,60,61
 705 -21 705 -21 663.5 1.5 c 128,-1,62
 622 24 622 24 593.5 62.5 c 128,-1,63
 565 101 565 101 550.5 152 c 128,-1,64
 536 203 536 203 536 260 c 2,65,-1
 536 338 l 2,44,45
651 260 m 2,66,67
 651 229 651 229 657 200 c 128,-1,68
 663 171 663 171 676 148.5 c 128,-1,69
 689 126 689 126 709.5 112.5 c 128,-1,70
 730 99 730 99 760 99 c 0,71,72
 789 99 789 99 809.5 112.5 c 128,-1,73
 830 126 830 126 842.5 148.5 c 128,-1,74
 855 171 855 171 861 200 c 128,-1,75
 867 229 867 229 867 260 c 2,76,-1
 867 338 l 2,77,78
 867 369 867 369 861 398 c 128,-1,79
 855 427 855 427 842 449.5 c 128,-1,80
 829 472 829 472 808.5 485.5 c 128,-1,81
 788 499 788 499 759 499 c 0,82,83
 729 499 729 499 708.5 485.5 c 128,-1,84
 688 472 688 472 675 449.5 c 128,-1,85
 662 427 662 427 656.5 398 c 128,-1,86
 651 369 651 369 651 338 c 2,87,-1
 651 260 l 2,66,67
246 0 m 1,88,-1
 124 0 l 1,89,-1
 786 1456 l 1,90,-1
 908 1456 l 1,91,-1
 246 0 l 1,88,-1
EndSplineSet
Validated: 1
EndChar

StartChar: ampersand
Encoding: 38 38 9
Width: 1024
GlyphClass: 2
Flags: W
LayerCount: 2
Fore
SplineSet
89 373 m 0,0,1
 89 440 89 440 105.5 497 c 128,-1,2
 122 554 122 554 152 603.5 c 128,-1,3
 182 653 182 653 223.5 697.5 c 128,-1,4
 265 742 265 742 316 785 c 1,5,6
 260 876 260 876 227 957 c 128,-1,7
 194 1038 194 1038 194 1126 c 0,8,9
 194 1211 194 1211 215.5 1276.5 c 128,-1,10
 237 1342 237 1342 276 1386.5 c 128,-1,11
 315 1431 315 1431 370 1454 c 128,-1,12
 425 1477 425 1477 493 1477 c 0,13,14
 552 1477 552 1477 600 1452 c 128,-1,15
 648 1427 648 1427 681.5 1384.5 c 128,-1,16
 715 1342 715 1342 733.5 1286 c 128,-1,17
 752 1230 752 1230 752 1168 c 0,18,19
 752 1115 752 1115 739 1071.5 c 128,-1,20
 726 1028 726 1028 703.5 990 c 128,-1,21
 681 952 681 952 649 918 c 128,-1,22
 617 884 617 884 581 851 c 2,23,-1
 503 771 l 1,24,-1
 758 368 l 1,25,26
 787 432 787 432 803.5 508 c 128,-1,27
 820 584 820 584 821 672 c 1,28,-1
 960 672 l 1,29,30
 960 544 960 544 929.5 434.5 c 128,-1,31
 899 325 899 325 841 237 c 1,32,-1
 991 0 l 1,33,-1
 808 0 l 1,34,-1
 739 110 l 1,35,36
 678 47 678 47 603.5 13.5 c 128,-1,37
 529 -20 529 -20 448 -20 c 0,38,39
 366 -20 366 -20 299.5 9 c 128,-1,40
 233 38 233 38 186.5 90 c 128,-1,41
 140 142 140 142 114.5 214.5 c 128,-1,42
 89 287 89 287 89 373 c 0,0,1
448 130 m 0,43,44
 507 130 507 130 562 156 c 128,-1,45
 617 182 617 182 664 230 c 1,46,-1
 396 661 l 1,47,-1
 372 637 l 2,48,49
 330 596 330 596 304.5 557 c 128,-1,50
 279 518 279 518 265.5 483.5 c 128,-1,51
 252 449 252 449 247.5 420.5 c 128,-1,52
 243 392 243 392 243 373 c 0,53,54
 243 322 243 322 256 278 c 128,-1,55
 269 234 269 234 295 201 c 128,-1,56
 321 168 321 168 359 149 c 128,-1,57
 397 130 397 130 448 130 c 0,43,44
349 1128 m 0,58,59
 349 1072 349 1072 370 1013.5 c 128,-1,60
 391 955 391 955 428 890 c 1,61,-1
 525 983 l 2,62,63
 551 1004 551 1004 567.5 1027 c 128,-1,64
 584 1050 584 1050 593 1073.5 c 128,-1,65
 602 1097 602 1097 606 1121 c 128,-1,66
 610 1145 610 1145 610 1168 c 0,67,68
 610 1198 610 1198 602 1226.5 c 128,-1,69
 594 1255 594 1255 578.5 1276.5 c 128,-1,70
 563 1298 563 1298 541.5 1311.5 c 128,-1,71
 520 1325 520 1325 493 1325 c 0,72,73
 457 1325 457 1325 430 1309 c 128,-1,74
 403 1293 403 1293 385 1266 c 128,-1,75
 367 1239 367 1239 358 1203.5 c 128,-1,76
 349 1168 349 1168 349 1128 c 0,58,59
EndSplineSet
Validated: 1
EndChar

StartChar: quotesingle
Encoding: 39 39 10
Width: 1024
GlyphClass: 2
Flags: W
LayerCount: 2
Fore
SplineSet
543 1425 m 1,0,-1
 525 1057 l 1,1,-1
 411 1057 l 1,2,-1
 411 1536 l 1,3,-1
 543 1536 l 1,4,-1
 543 1425 l 1,0,-1
EndSplineSet
Validated: 1
EndChar

StartChar: parenleft
Encoding: 40 40 11
Width: 1024
GlyphClass: 2
Flags: W
LayerCount: 2
Fore
SplineSet
320 704 m 128,-1,1
 320 1319 320 1319 713 1617 c 1,2,-1
 784 1531 l 1,3,4
 448 1276 448 1276 448 704 c 128,-1,5
 448 132 448 132 784 -123 c 1,6,-1
 713 -209 l 1,7,0
 320 89 320 89 320 704 c 128,-1,1
EndSplineSet
Validated: 1
EndChar

StartChar: parenright
Encoding: 41 41 12
Width: 1024
GlyphClass: 2
Flags: W
LayerCount: 2
Fore
SplineSet
704 704 m 128,-1,1
 704 89 704 89 311 -209 c 1,2,-1
 240 -123 l 1,3,4
 576 132 576 132 576 704 c 128,-1,5
 576 1276 576 1276 240 1531 c 1,6,-1
 311 1617 l 1,7,0
 704 1319 704 1319 704 704 c 128,-1,1
EndSplineSet
Validated: 1
EndChar

StartChar: asterisk
Encoding: 42 42 13
Width: 1024
GlyphClass: 2
Flags: W
LayerCount: 2
Fore
SplineSet
448 1120 m 1,0,-1
 576 1120 l 1,1,-1
 563 793 l 1,2,-1
 840 967 l 1,3,-1
 904 857 l 1,4,-1
 615 704 l 1,5,-1
 904 551 l 1,6,-1
 840 441 l 1,7,-1
 563 615 l 1,8,-1
 576 288 l 1,9,-1
 448 288 l 1,10,-1
 461 615 l 1,11,-1
 184 441 l 1,12,-1
 120 551 l 1,13,-1
 409 704 l 1,14,-1
 120 857 l 1,15,-1
 184 967 l 1,16,-1
 461 793 l 1,17,-1
 448 1120 l 1,0,-1
EndSplineSet
Validated: 1
EndChar

StartChar: plus
Encoding: 43 43 14
Width: 1024
GlyphClass: 2
Flags: W
LayerCount: 2
Fore
SplineSet
576 768 m 1,0,-1
 928 768 l 1,1,-1
 928 640 l 1,2,-1
 576 640 l 1,3,-1
 576 288 l 1,4,-1
 448 288 l 1,5,-1
 448 640 l 1,6,-1
 96 640 l 1,7,-1
 96 768 l 1,8,-1
 448 768 l 1,9,-1
 448 1120 l 1,10,-1
 576 1120 l 1,11,-1
 576 768 l 1,0,-1
EndSplineSet
Validated: 1
EndChar

StartChar: comma
Encoding: 44 44 15
Width: 1024
GlyphClass: 2
Flags: W
LayerCount: 2
Fore
SplineSet
411 252 m 1,0,-1
 613 252 l 1,1,-1
 613 126 l 2,2,3
 613 -132 613 -132 421 -324 c 1,4,-1
 320 -228 l 1,5,6
 411 -137 411 -137 411 126 c 2,7,-1
 411 252 l 1,0,-1
EndSplineSet
Validated: 1
EndChar

StartChar: hyphen
Encoding: 45 45 16
Width: 1024
GlyphClass: 2
Flags: W
LayerCount: 2
Fore
SplineSet
128 768 m 1,0,-1
 896 768 l 1,1,-1
 896 640 l 1,2,-1
 128 640 l 1,3,-1
 128 768 l 1,0,-1
EndSplineSet
Validated: 1
EndChar

StartChar: period
Encoding: 46 46 17
Width: 1024
GlyphClass: 2
Flags: W
LayerCount: 2
Fore
SplineSet
392 100 m 128,-1,1
 392 150 392 150 427 185 c 128,-1,2
 462 220 462 220 512 220 c 128,-1,3
 562 220 562 220 597 185 c 128,-1,4
 632 150 632 150 632 100 c 128,-1,5
 632 50 632 50 597 15 c 128,-1,6
 562 -20 562 -20 512 -20 c 128,-1,7
 462 -20 462 -20 427 15 c 128,-1,0
 392 50 392 50 392 100 c 128,-1,1
EndSplineSet
Validated: 1
EndChar

StartChar: slash
Encoding: 47 47 18
Width: 1024
GlyphClass: 2
Flags: W
LayerCount: 2
Fore
SplineSet
696 1472 m 1,0,-1
 818 1472 l 1,1,-1
 324 -64 l 1,2,-1
 202 -64 l 1,3,-1
 696 1472 l 1,0,-1
EndSplineSet
Validated: 1
EndChar

StartChar: zero
Encoding: 48 48 19
Width: 1024
GlyphClass: 2
Flags: W
LayerCount: 2
Fore
SplineSet
903 557 m 2,0,1
 903 418 903 418 876.5 310.5 c 128,-1,2
 850 203 850 203 800 129.5 c 128,-1,3
 750 56 750 56 678 18 c 128,-1,4
 606 -20 606 -20 513 -20 c 0,5,6
 421 -20 421 -20 348.5 18 c 128,-1,7
 276 56 276 56 225 129.5 c 128,-1,8
 174 203 174 203 147 310.5 c 128,-1,9
 120 418 120 418 120 557 c 2,10,-1
 120 898 l 2,11,12
 120 1037 120 1037 146.5 1144.5 c 128,-1,13
 173 1252 173 1252 223.5 1326 c 128,-1,14
 274 1400 274 1400 346.5 1438.5 c 128,-1,15
 419 1477 419 1477 511 1477 c 0,16,17
 604 1477 604 1477 677 1438.5 c 128,-1,18
 750 1400 750 1400 800 1326 c 128,-1,19
 850 1252 850 1252 876.5 1144.5 c 128,-1,20
 903 1037 903 1037 903 898 c 2,21,-1
 903 557 l 2,0,1
275 594 m 1,22,-1
 745 1029 l 1,23,24
 732 1174 732 1174 675 1249.5 c 128,-1,25
 618 1325 618 1325 511 1325 c 0,26,27
 390 1325 390 1325 332.5 1226.5 c 128,-1,28
 275 1128 275 1128 275 939 c 2,29,-1
 275 594 l 1,22,-1
749 852 m 1,30,-1
 279 419 l 1,31,32
 293 278 293 278 351 204 c 128,-1,33
 409 130 409 130 513 130 c 0,34,35
 635 130 635 130 692 230 c 128,-1,36
 749 330 749 330 749 518 c 2,37,-1
 749 852 l 1,30,-1
EndSplineSet
Validated: 1
EndChar

StartChar: one
Encoding: 49 49 20
Width: 1024
GlyphClass: 2
Flags: W
LayerCount: 2
Fore
SplineSet
627 0 m 5,0,-1
 474 0 l 5,1,-1
 474 1220 l 5,2,-1
 158 1075 l 5,3,-1
 158 1244 l 5,4,-1
 615 1456 l 5,5,-1
 627 1456 l 5,6,-1
 627 0 l 5,0,-1
EndSplineSet
Validated: 1
EndChar

StartChar: two
Encoding: 50 50 21
Width: 1024
GlyphClass: 2
Flags: W
LayerCount: 2
Fore
SplineSet
937 0 m 5,0,-1
 145 0 l 5,1,-1
 145 133 l 5,2,-1
 541 663 l 6,3,4
 594 734 594 734 629.5 789 c 132,-1,5
 665 844 665 844 686.5 890.5 c 132,-1,6
 708 937 708 937 717.5 978.5 c 132,-1,7
 727 1020 727 1020 727 1064 c 4,8,9
 727 1118 727 1118 712.5 1165.5 c 132,-1,10
 698 1213 698 1213 670 1248 c 132,-1,11
 642 1283 642 1283 602.5 1303.5 c 132,-1,12
 563 1324 563 1324 513 1324 c 4,13,14
 452 1324 452 1324 408 1303 c 132,-1,15
 364 1282 364 1282 334.5 1243.5 c 132,-1,16
 305 1205 305 1205 290.5 1150 c 132,-1,17
 276 1095 276 1095 276 1027 c 5,18,-1
 122 1027 l 5,19,20
 122 1119 122 1119 148.5 1200.5 c 132,-1,21
 175 1282 175 1282 225 1343 c 132,-1,22
 275 1404 275 1404 347.5 1440 c 132,-1,23
 420 1476 420 1476 513 1476 c 4,24,25
 598 1476 598 1476 667 1445.5 c 132,-1,26
 736 1415 736 1415 783 1361 c 132,-1,27
 830 1307 830 1307 855.5 1233 c 132,-1,28
 881 1159 881 1159 881 1072 c 4,29,30
 881 1007 881 1007 863 943.5 c 132,-1,31
 845 880 845 880 813.5 818 c 132,-1,32
 782 756 782 756 741 695.5 c 132,-1,33
 700 635 700 635 654 575 c 6,34,-1
 330 151 l 5,35,-1
 937 151 l 5,36,-1
 937 0 l 5,0,-1
EndSplineSet
Validated: 1
EndChar

StartChar: three
Encoding: 51 51 22
Width: 1024
GlyphClass: 2
Flags: W
LayerCount: 2
Fore
SplineSet
375 817 m 5,0,-1
 484 817 l 6,1,2
 542 817 542 817 586.5 836 c 132,-1,3
 631 855 631 855 661.5 888 c 132,-1,4
 692 921 692 921 707.5 967 c 132,-1,5
 723 1013 723 1013 723 1068 c 4,6,7
 723 1195 723 1195 669 1259.5 c 132,-1,8
 615 1324 615 1324 512 1324 c 4,9,10
 463 1324 463 1324 422.5 1306.5 c 132,-1,11
 382 1289 382 1289 353.5 1256 c 132,-1,12
 325 1223 325 1223 309 1177 c 132,-1,13
 293 1131 293 1131 293 1074 c 5,14,-1
 139 1074 l 5,15,16
 139 1157 139 1157 166 1230.5 c 132,-1,17
 193 1304 193 1304 242 1358.5 c 132,-1,18
 291 1413 291 1413 359.5 1444.5 c 132,-1,19
 428 1476 428 1476 512 1476 c 4,20,21
 593 1476 593 1476 660.5 1449.5 c 132,-1,22
 728 1423 728 1423 776 1371 c 132,-1,23
 824 1319 824 1319 850.5 1242 c 132,-1,24
 877 1165 877 1165 877 1064 c 4,25,26
 877 1022 877 1022 866 977 c 132,-1,27
 855 932 855 932 833 889.5 c 132,-1,28
 811 847 811 847 775.5 809.5 c 132,-1,29
 740 772 740 772 691 747 c 5,30,31
 750 724 750 724 789.5 687 c 132,-1,32
 829 650 829 650 852.5 604 c 132,-1,33
 876 558 876 558 885.5 507 c 132,-1,34
 895 456 895 456 895 406 c 4,35,36
 895 304 895 304 866 225 c 132,-1,37
 837 146 837 146 785.5 91.5 c 132,-1,38
 734 37 734 37 664 8.5 c 132,-1,39
 594 -20 594 -20 513 -20 c 4,40,41
 433 -20 433 -20 363 7 c 132,-1,42
 293 34 293 34 241.5 86 c 132,-1,43
 190 138 190 138 159.5 213 c 132,-1,44
 129 288 129 288 129 384 c 5,45,-1
 283 384 l 5,46,47
 283 327 283 327 299 280 c 132,-1,48
 315 233 315 233 345 200 c 132,-1,49
 375 167 375 167 417.5 149 c 132,-1,50
 460 131 460 131 513 131 c 4,51,52
 565 131 565 131 607 147.5 c 132,-1,53
 649 164 649 164 679 198 c 132,-1,54
 709 232 709 232 725.5 282.5 c 132,-1,55
 742 333 742 333 742 402 c 4,56,57
 742 470 742 470 723 519.5 c 132,-1,58
 704 569 704 569 670.5 602 c 132,-1,59
 637 635 637 635 589.5 651 c 132,-1,60
 542 667 542 667 484 667 c 6,61,-1
 375 667 l 5,62,-1
 375 817 l 5,0,-1
EndSplineSet
Validated: 1
EndChar

StartChar: four
Encoding: 52 52 23
Width: 1024
GlyphClass: 2
Flags: W
LayerCount: 2
Fore
SplineSet
760 489 m 1,0,-1
 928 489 l 1,1,-1
 928 338 l 1,2,-1
 760 338 l 1,3,-1
 760 0 l 1,4,-1
 606 0 l 1,5,-1
 606 338 l 1,6,-1
 55 338 l 1,7,-1
 55 447 l 1,8,-1
 596 1456 l 1,9,-1
 760 1456 l 1,10,-1
 760 489 l 1,0,-1
225 489 m 1,11,-1
 606 489 l 1,12,-1
 606 1210 l 1,13,-1
 582 1154 l 1,14,-1
 225 489 l 1,11,-1
EndSplineSet
Validated: 1
EndChar

StartChar: five
Encoding: 53 53 24
Width: 1024
GlyphClass: 2
Flags: W
LayerCount: 2
Fore
SplineSet
175 730 m 5,0,-1
 236 1456 l 5,1,-1
 856 1456 l 5,2,-1
 856 1276 l 5,3,-1
 365 1276 l 5,4,-1
 331 888 l 5,5,6
 367 913 367 913 417 932 c 132,-1,7
 467 951 467 951 532 951 c 4,8,9
 616 951 616 951 682.5 916 c 132,-1,10
 749 881 749 881 795.5 817.5 c 132,-1,11
 842 754 842 754 867 664 c 132,-1,12
 892 574 892 574 892 464 c 4,13,14
 892 360 892 360 868.5 271 c 132,-1,15
 845 182 845 182 798 117.5 c 132,-1,16
 751 53 751 53 680 16.5 c 132,-1,17
 609 -20 609 -20 512 -20 c 4,18,19
 438 -20 438 -20 372.5 5 c 132,-1,20
 307 30 307 30 256 80 c 132,-1,21
 205 130 205 130 172.5 206 c 132,-1,22
 140 282 140 282 131 383 c 5,23,-1
 277 383 l 5,24,25
 291 259 291 259 353 195 c 132,-1,26
 415 131 415 131 512 131 c 4,27,28
 567 131 567 131 609.5 154.5 c 132,-1,29
 652 178 652 178 680.5 221.5 c 132,-1,30
 709 265 709 265 723.5 326 c 132,-1,31
 738 387 738 387 738 462 c 4,32,33
 738 530 738 530 722 589 c 132,-1,34
 706 648 706 648 675 691.5 c 132,-1,35
 644 735 644 735 599.5 760 c 132,-1,36
 555 785 555 785 496 785 c 4,37,38
 458 785 458 785 430.5 778.5 c 132,-1,39
 403 772 403 772 380.5 760 c 132,-1,40
 358 748 358 748 338.5 731 c 132,-1,41
 319 714 319 714 298 692 c 5,42,-1
 175 730 l 5,0,-1
EndSplineSet
Validated: 1
EndChar

StartChar: six
Encoding: 54 54 25
Width: 1024
GlyphClass: 2
Flags: W
LayerCount: 2
Fore
SplineSet
724 1457 m 5,0,-1
 724 1291 l 5,1,-1
 710 1291 l 6,2,3
 634 1291 634 1291 574 1272 c 132,-1,4
 514 1253 514 1253 468 1220 c 132,-1,5
 422 1187 422 1187 389.5 1141.5 c 132,-1,6
 357 1096 357 1096 335 1042 c 132,-1,7
 313 988 313 988 301.5 929 c 132,-1,8
 290 870 290 870 287 809 c 5,9,10
 309 840 309 840 337 866.5 c 132,-1,11
 365 893 365 893 398 912.5 c 132,-1,12
 431 932 431 932 468.5 943.5 c 132,-1,13
 506 955 506 955 548 955 c 4,14,15
 638 955 638 955 703.5 913.5 c 132,-1,16
 769 872 769 872 811.5 804 c 132,-1,17
 854 736 854 736 874 650 c 132,-1,18
 894 564 894 564 894 475 c 4,19,20
 894 373 894 373 870 283 c 132,-1,21
 846 193 846 193 799 125.5 c 132,-1,22
 752 58 752 58 681.5 19 c 132,-1,23
 611 -20 611 -20 519 -20 c 4,24,25
 453 -20 453 -20 399 3 c 132,-1,26
 345 26 345 26 302 65.5 c 132,-1,27
 259 105 259 105 226.5 159 c 132,-1,28
 194 213 194 213 173 275 c 132,-1,29
 152 337 152 337 141 404 c 132,-1,30
 130 471 130 471 130 538 c 6,31,-1
 130 625 l 6,32,33
 130 725 130 725 140.5 825.5 c 132,-1,34
 151 926 151 926 176 1018 c 132,-1,35
 201 1110 201 1110 243 1190.5 c 132,-1,36
 285 1271 285 1271 349.5 1330 c 132,-1,37
 414 1389 414 1389 503 1423 c 132,-1,38
 592 1457 592 1457 710 1457 c 6,39,-1
 724 1457 l 5,0,-1
523 801 m 4,40,41
 484 801 484 801 447.5 786 c 132,-1,42
 411 771 411 771 379.5 744 c 132,-1,43
 348 717 348 717 323.5 679 c 132,-1,44
 299 641 299 641 285 595 c 5,45,-1
 285 533 l 6,46,47
 285 437 285 437 304 362.5 c 132,-1,48
 323 288 323 288 355.5 237 c 132,-1,49
 388 186 388 186 430.5 159.5 c 132,-1,50
 473 133 473 133 519 133 c 4,51,52
 573 133 573 133 614.5 158 c 132,-1,53
 656 183 656 183 685 227 c 132,-1,54
 714 271 714 271 728.5 332.5 c 132,-1,55
 743 394 743 394 743 466 c 4,56,57
 743 530 743 530 729.5 590.5 c 132,-1,58
 716 651 716 651 688.5 698 c 132,-1,59
 661 745 661 745 620 773 c 132,-1,60
 579 801 579 801 523 801 c 4,40,41
EndSplineSet
Validated: 1
EndChar

StartChar: seven
Encoding: 55 55 26
Width: 1024
GlyphClass: 2
Flags: W
LayerCount: 2
Fore
SplineSet
920 1352 m 5,0,-1
 419 0 l 5,1,-1
 258 0 l 5,2,-1
 757 1294 l 5,3,-1
 103 1294 l 5,4,-1
 103 1456 l 5,5,-1
 920 1456 l 5,6,-1
 920 1352 l 5,0,-1
EndSplineSet
Validated: 1
EndChar

StartChar: eight
Encoding: 56 56 27
Width: 1024
GlyphClass: 2
Flags: W
LayerCount: 2
Fore
SplineSet
869 1076 m 4,0,1
 868 967 868 967 820 882 c 132,-1,2
 772 797 772 797 692 749 c 5,3,4
 738 725 738 725 776 689.5 c 132,-1,5
 814 654 814 654 841 608 c 132,-1,6
 868 562 868 562 882.5 508 c 132,-1,7
 897 454 897 454 897 393 c 4,8,9
 897 294 897 294 866.5 217 c 132,-1,10
 836 140 836 140 784 87.5 c 132,-1,11
 732 35 732 35 662.5 7.5 c 132,-1,12
 593 -20 593 -20 513 -20 c 4,13,14
 432 -20 432 -20 361.5 7 c 132,-1,15
 291 34 291 34 239.5 86.5 c 132,-1,16
 188 139 188 139 158 216 c 132,-1,17
 128 293 128 293 128 393 c 4,18,19
 128 454 128 454 142 508.5 c 132,-1,20
 156 563 156 563 182.5 608.5 c 132,-1,21
 209 654 209 654 246.5 690 c 132,-1,22
 284 726 284 726 330 750 c 5,23,24
 290 774 290 774 258 807.5 c 132,-1,25
 226 841 226 841 203.5 882.5 c 132,-1,26
 181 924 181 924 168.5 973 c 132,-1,27
 156 1022 156 1022 156 1076 c 4,28,29
 156 1171 156 1171 182.5 1245.5 c 132,-1,30
 209 1320 209 1320 256 1371 c 132,-1,31
 303 1422 303 1422 368 1449 c 132,-1,32
 433 1476 433 1476 511 1476 c 4,33,34
 587 1476 587 1476 652.5 1449 c 132,-1,35
 718 1422 718 1422 766 1371 c 132,-1,36
 814 1320 814 1320 841.5 1245.5 c 132,-1,37
 869 1171 869 1171 869 1076 c 4,0,1
743 397 m 4,38,39
 743 458 743 458 726 509 c 132,-1,40
 709 560 709 560 678.5 596.5 c 132,-1,41
 648 633 648 633 605 653 c 132,-1,42
 562 673 562 673 511 673 c 4,43,44
 459 673 459 673 416.5 653 c 132,-1,45
 374 633 374 633 344.5 596.5 c 132,-1,46
 315 560 315 560 298.5 509 c 132,-1,47
 282 458 282 458 282 397 c 4,48,49
 282 334 282 334 298.5 284.5 c 132,-1,50
 315 235 315 235 344.5 201 c 132,-1,51
 374 167 374 167 417 149 c 132,-1,52
 460 131 460 131 513 131 c 4,53,54
 564 131 564 131 606 149 c 132,-1,55
 648 167 648 167 678.5 201 c 132,-1,56
 709 235 709 235 726 284.5 c 132,-1,57
 743 334 743 334 743 397 c 4,38,39
715 1073 m 4,58,59
 715 1128 715 1128 699.5 1174 c 132,-1,60
 684 1220 684 1220 657 1253.5 c 132,-1,61
 630 1287 630 1287 592.5 1305.5 c 132,-1,62
 555 1324 555 1324 511 1324 c 4,63,64
 466 1324 466 1324 429.5 1306.5 c 132,-1,65
 393 1289 393 1289 366.5 1256 c 132,-1,66
 340 1223 340 1223 325.5 1176.5 c 132,-1,67
 311 1130 311 1130 311 1073 c 260,68,69
 311 1016 311 1016 325.5 970.5 c 132,-1,70
 340 925 340 925 367 892.5 c 132,-1,71
 394 860 394 860 430.5 842.5 c 132,-1,72
 467 825 467 825 512 825 c 4,73,74
 556 825 556 825 593.5 842.5 c 132,-1,75
 631 860 631 860 658 892.5 c 132,-1,76
 685 925 685 925 700 971 c 132,-1,77
 715 1017 715 1017 715 1073 c 4,58,59
EndSplineSet
Validated: 1
EndChar

StartChar: nine
Encoding: 57 57 28
Width: 1024
GlyphClass: 2
Flags: W
LayerCount: 2
Fore
SplineSet
318 164 m 6,0,1
 400 164 400 164 462 181.5 c 132,-1,2
 524 199 524 199 570 231 c 132,-1,3
 616 263 616 263 647 306.5 c 132,-1,4
 678 350 678 350 697.5 402.5 c 132,-1,5
 717 455 717 455 726 513.5 c 132,-1,6
 735 572 735 572 738 633 c 5,7,8
 718 603 718 603 692 576.5 c 132,-1,9
 666 550 666 550 634 530 c 132,-1,10
 602 510 602 510 562.5 498.5 c 132,-1,11
 523 487 523 487 476 487 c 4,12,13
 386 487 386 487 321 529.5 c 132,-1,14
 256 572 256 572 214 641 c 132,-1,15
 172 710 172 710 152 797 c 132,-1,16
 132 884 132 884 132 972 c 4,17,18
 132 1075 132 1075 155.5 1166.5 c 132,-1,19
 179 1258 179 1258 226 1326.5 c 132,-1,20
 273 1395 273 1395 343 1435.5 c 132,-1,21
 413 1476 413 1476 506 1476 c 4,22,23
 576 1476 576 1476 632 1452.5 c 132,-1,24
 688 1429 688 1429 730.5 1387.5 c 132,-1,25
 773 1346 773 1346 804 1289.5 c 132,-1,26
 835 1233 835 1233 854.5 1167.5 c 132,-1,27
 874 1102 874 1102 883 1030.5 c 132,-1,28
 892 959 892 959 892 887 c 6,29,-1
 892 820 l 6,30,31
 892 727 892 727 884.5 629.5 c 132,-1,32
 877 532 877 532 855 441 c 132,-1,33
 833 350 833 350 793 269.5 c 132,-1,34
 753 189 753 189 689.5 129 c 132,-1,35
 626 69 626 69 534.5 34 c 132,-1,36
 443 -1 443 -1 318 -1 c 6,37,-1
 302 -1 l 5,38,-1
 302 164 l 5,39,-1
 318 164 l 6,0,1
501 640 m 4,40,41
 540 640 540 640 577 655.5 c 132,-1,42
 614 671 614 671 645 699.5 c 132,-1,43
 676 728 676 728 700.5 766.5 c 132,-1,44
 725 805 725 805 739 852 c 5,45,-1
 739 912 l 6,46,47
 739 1009 739 1009 720.5 1085 c 132,-1,48
 702 1161 702 1161 670 1213.5 c 132,-1,49
 638 1266 638 1266 596 1294 c 132,-1,50
 554 1322 554 1322 507 1322 c 4,51,52
 453 1322 453 1322 411.5 1296 c 132,-1,53
 370 1270 370 1270 341.5 1224.5 c 132,-1,54
 313 1179 313 1179 298 1116.5 c 132,-1,55
 283 1054 283 1054 283 982 c 4,56,57
 283 918 283 918 296 856.5 c 132,-1,58
 309 795 309 795 336 747 c 132,-1,59
 363 699 363 699 404 669.5 c 132,-1,60
 445 640 445 640 501 640 c 4,40,41
EndSplineSet
Validated: 1
EndChar

StartChar: less
Encoding: 60 60 31
Width: 1024
GlyphClass: 2
Flags: W
LayerCount: 2
Fore
SplineSet
68 704 m 1,0,-1
 708 1344 l 1,1,-1
 820 1232 l 1,2,-1
 292 704 l 1,3,-1
 820 176 l 1,4,-1
 708 64 l 1,5,-1
 68 704 l 1,0,-1
EndSplineSet
Validated: 1
EndChar

StartChar: equal
Encoding: 61 61 32
Width: 1024
GlyphClass: 2
Flags: W
LayerCount: 2
Fore
SplineSet
96 560 m 1,0,-1
 928 560 l 1,1,-1
 928 432 l 1,2,-1
 96 432 l 1,3,-1
 96 560 l 1,0,-1
96 976 m 1,4,-1
 928 976 l 1,5,-1
 928 848 l 1,6,-1
 96 848 l 1,7,-1
 96 976 l 1,4,-1
EndSplineSet
Validated: 1
EndChar

StartChar: greater
Encoding: 62 62 33
Width: 1024
GlyphClass: 2
Flags: W
LayerCount: 2
Fore
SplineSet
956 704 m 1,0,-1
 316 64 l 1,1,-1
 204 176 l 1,2,-1
 732 704 l 1,3,-1
 204 1232 l 1,4,-1
 316 1344 l 1,5,-1
 956 704 l 1,0,-1
EndSplineSet
Validated: 1
EndChar

StartChar: question
Encoding: 63 63 34
Width: 1024
GlyphClass: 2
Flags: W
LayerCount: 2
Fore
SplineSet
426 410 m 1,0,1
 427 482 427 482 431 528.5 c 128,-1,2
 435 575 435 575 448 611.5 c 128,-1,3
 461 648 461 648 486 681.5 c 128,-1,4
 511 715 511 715 553 761 c 0,5,6
 581 796 581 796 610.5 833 c 128,-1,7
 640 870 640 870 664.5 910.5 c 128,-1,8
 689 951 689 951 705 996 c 128,-1,9
 721 1041 721 1041 721 1091 c 0,10,11
 721 1200 721 1200 668.5 1257.5 c 128,-1,12
 616 1315 616 1315 519 1315 c 0,13,14
 480 1315 480 1315 443 1303.5 c 128,-1,15
 406 1292 406 1292 377 1267.5 c 128,-1,16
 348 1243 348 1243 330.5 1205.5 c 128,-1,17
 313 1168 313 1168 313 1116 c 1,18,-1
 160 1116 l 1,19,20
 161 1200 161 1200 189 1267 c 128,-1,21
 217 1334 217 1334 265 1380.5 c 128,-1,22
 313 1427 313 1427 378 1451.5 c 128,-1,23
 443 1476 443 1476 519 1476 c 0,24,25
 603 1476 603 1476 669 1450.5 c 128,-1,26
 735 1425 735 1425 780.5 1376 c 128,-1,27
 826 1327 826 1327 850 1257 c 128,-1,28
 874 1187 874 1187 874 1097 c 0,29,30
 874 1025 874 1025 853.5 961.5 c 128,-1,31
 833 898 833 898 800.5 841.5 c 128,-1,32
 768 785 768 785 727.5 736 c 128,-1,33
 687 687 687 687 648 645 c 0,34,35
 623 616 623 616 609.5 590 c 128,-1,36
 596 564 596 564 589.5 537 c 128,-1,37
 583 510 583 510 581 479.5 c 128,-1,38
 579 449 579 449 579 410 c 1,39,-1
 426 410 l 1,0,1
408 97 m 0,40,41
 408 145 408 145 432 177 c 128,-1,42
 456 209 456 209 503 209 c 256,43,44
 550 209 550 209 574.5 177 c 128,-1,45
 599 145 599 145 599 97 c 0,46,47
 599 51 599 51 574.5 20 c 128,-1,48
 550 -11 550 -11 503 -11 c 256,49,50
 456 -11 456 -11 432 20 c 128,-1,51
 408 51 408 51 408 97 c 0,40,41
EndSplineSet
Validated: 1
EndChar

StartChar: at
Encoding: 64 64 35
Width: 1024
GlyphClass: 2
Flags: W
LayerCount: 2
Fore
SplineSet
963 789 m 0,0,1
 963 709 963 709 948.5 625.5 c 128,-1,2
 934 542 934 542 907 474 c 128,-1,3
 880 406 880 406 837.5 363 c 128,-1,4
 795 320 795 320 734 320 c 0,5,6
 683 320 683 320 649.5 352 c 128,-1,7
 616 384 616 384 602 441 c 1,8,9
 573 385 573 385 530 352.5 c 128,-1,10
 487 320 487 320 435 320 c 0,11,12
 394 320 394 320 364.5 346 c 128,-1,13
 335 372 335 372 316 419 c 128,-1,14
 297 466 297 466 292.5 531 c 128,-1,15
 288 596 288 596 288 674 c 0,16,17
 288 785 288 785 315 874.5 c 128,-1,18
 342 964 342 964 379 1026.5 c 128,-1,19
 416 1089 416 1089 465 1122.5 c 128,-1,20
 514 1156 514 1156 573 1156 c 0,21,22
 629 1156 629 1156 665.5 1129.5 c 128,-1,23
 702 1103 702 1103 724 1067 c 1,24,-1
 687 563 l 2,25,26
 687 522 687 522 690 496.5 c 128,-1,27
 693 471 693 471 701 456.5 c 128,-1,28
 709 442 709 442 720.5 437 c 128,-1,29
 732 432 732 432 745 432 c 0,30,31
 776 432 776 432 800 460.5 c 128,-1,32
 824 489 824 489 839.5 537.5 c 128,-1,33
 855 586 855 586 864 651 c 128,-1,34
 873 716 873 716 873 789 c 0,35,36
 873 916 873 916 853.5 1017 c 128,-1,37
 834 1118 834 1118 791.5 1188 c 128,-1,38
 749 1258 749 1258 686.5 1295 c 128,-1,39
 624 1332 624 1332 544 1332 c 0,40,41
 460 1332 460 1332 391 1284.5 c 128,-1,42
 322 1237 322 1237 271 1152 c 128,-1,43
 220 1067 220 1067 189.5 949 c 128,-1,44
 159 831 159 831 159 691 c 0,45,46
 159 555 159 555 176.5 449 c 128,-1,47
 194 343 194 343 238.5 269.5 c 128,-1,48
 283 196 283 196 351.5 157.5 c 128,-1,49
 420 119 420 119 513 119 c 0,50,51
 538 119 538 119 563.5 123.5 c 128,-1,52
 589 128 589 128 614 136.5 c 128,-1,53
 639 145 639 145 661.5 157 c 128,-1,54
 684 169 684 169 702 184 c 1,55,-1
 729 67 l 1,56,57
 708 48 708 48 681.5 34 c 128,-1,58
 655 20 655 20 626 10.5 c 128,-1,59
 597 1 597 1 567 -3.5 c 128,-1,60
 537 -8 537 -8 510 -8 c 0,61,62
 388 -8 388 -8 300.5 43.5 c 128,-1,63
 213 95 213 95 157.5 188 c 128,-1,64
 102 281 102 281 79.5 409.5 c 128,-1,65
 57 538 57 538 57 691 c 0,66,67
 57 793 57 793 76.5 891 c 128,-1,68
 96 989 96 989 126 1074 c 128,-1,69
 156 1159 156 1159 199 1229.5 c 128,-1,70
 242 1300 242 1300 295 1351 c 128,-1,71
 348 1402 348 1402 411.5 1430 c 128,-1,72
 475 1458 475 1458 547 1458 c 0,73,74
 648 1458 648 1458 727 1410.5 c 128,-1,75
 806 1363 806 1363 859.5 1275 c 128,-1,76
 913 1187 913 1187 938 1063.5 c 128,-1,77
 963 940 963 940 963 789 c 0,0,1
391 674 m 0,78,79
 391 572 391 572 407 515 c 128,-1,80
 423 458 423 458 463 458 c 0,81,82
 504 458 504 458 537 485 c 128,-1,83
 570 512 570 512 595 575 c 1,84,-1
 627 1020 l 1,85,86
 604 1033 604 1033 579 1033 c 0,87,88
 535 1033 535 1033 502.5 1007.5 c 128,-1,89
 470 982 470 982 447.5 935.5 c 128,-1,90
 425 889 425 889 408 822.5 c 128,-1,91
 391 756 391 756 391 674 c 0,78,79
EndSplineSet
Validated: 1
EndChar

StartChar: A
Encoding: 65 65 36
Width: 1024
GlyphClass: 2
Flags: W
LayerCount: 2
Fore
SplineSet
722 377 m 1,0,-1
 318 377 l 1,1,-1
 221 0 l 1,2,-1
 67 0 l 1,3,-1
 458 1456 l 1,4,-1
 587 1456 l 1,5,-1
 971 0 l 1,6,-1
 818 0 l 1,7,-1
 722 377 l 1,0,-1
360 538 m 1,8,-1
 681 538 l 1,9,-1
 522 1170 l 1,10,-1
 360 538 l 1,8,-1
EndSplineSet
Validated: 1
EndChar

StartChar: B
Encoding: 66 66 37
Width: 1024
GlyphClass: 2
Flags: W
LayerCount: 2
Fore
SplineSet
143 0 m 1,0,-1
 143 1456 l 1,1,-1
 503 1456 l 2,2,3
 578 1455 578 1455 649 1432.5 c 128,-1,4
 720 1410 720 1410 776 1363 c 128,-1,5
 832 1316 832 1316 864.5 1243 c 128,-1,6
 897 1170 897 1170 897 1068 c 0,7,8
 897 1011 897 1011 882.5 964 c 128,-1,9
 868 917 868 917 842.5 879.5 c 128,-1,10
 817 842 817 842 783 814 c 128,-1,11
 749 786 749 786 711 766 c 1,12,13
 759 749 759 749 799 717.5 c 128,-1,14
 839 686 839 686 868 641.5 c 128,-1,15
 897 597 897 597 913.5 541 c 128,-1,16
 930 485 930 485 930 420 c 0,17,18
 930 318 930 318 897 240 c 128,-1,19
 864 162 864 162 808.5 109.5 c 128,-1,20
 753 57 753 57 680 29 c 128,-1,21
 607 1 607 1 530 0 c 2,22,-1
 143 0 l 1,0,-1
297 681 m 1,23,-1
 297 157 l 1,24,-1
 534 157 l 2,25,26
 582 158 582 158 625.5 176.5 c 128,-1,27
 669 195 669 195 702 228 c 128,-1,28
 735 261 735 261 754.5 309 c 128,-1,29
 774 357 774 357 774 418 c 0,30,31
 774 480 774 480 757 528 c 128,-1,32
 740 576 740 576 708 609.5 c 128,-1,33
 676 643 676 643 634 661 c 128,-1,34
 592 679 592 679 543 681 c 2,35,-1
 297 681 l 1,23,-1
297 835 m 1,36,-1
 512 835 l 2,37,38
 555 836 555 836 596.5 851.5 c 128,-1,39
 638 867 638 867 670.5 896.5 c 128,-1,40
 703 926 703 926 723 969 c 128,-1,41
 743 1012 743 1012 743 1069 c 0,42,43
 743 1130 743 1130 723.5 1173 c 128,-1,44
 704 1216 704 1216 671 1243.5 c 128,-1,45
 638 1271 638 1271 595.5 1284 c 128,-1,46
 553 1297 553 1297 508 1298 c 2,47,-1
 297 1298 l 1,48,-1
 297 835 l 1,36,-1
EndSplineSet
Validated: 1
EndChar

StartChar: C
Encoding: 67 67 38
Width: 1024
GlyphClass: 2
Flags: W
LayerCount: 2
Fore
SplineSet
928 438 m 1,0,1
 917 337 917 337 885 252.5 c 128,-1,2
 853 168 853 168 801 107.5 c 128,-1,3
 749 47 749 47 678 13.5 c 128,-1,4
 607 -20 607 -20 519 -20 c 0,5,6
 444 -20 444 -20 383 5.5 c 128,-1,7
 322 31 322 31 274.5 76 c 128,-1,8
 227 121 227 121 192.5 182 c 128,-1,9
 158 243 158 243 135 315 c 128,-1,10
 112 387 112 387 101 466 c 128,-1,11
 90 545 90 545 89 626 c 2,12,-1
 89 829 l 2,13,14
 90 910 90 910 101 989 c 128,-1,15
 112 1068 112 1068 135 1140 c 128,-1,16
 158 1212 158 1212 192.5 1273.5 c 128,-1,17
 227 1335 227 1335 274.5 1380 c 128,-1,18
 322 1425 322 1425 383 1450.5 c 128,-1,19
 444 1476 444 1476 519 1476 c 0,20,21
 610 1476 610 1476 681.5 1442.5 c 128,-1,22
 753 1409 753 1409 804.5 1347.5 c 128,-1,23
 856 1286 856 1286 887 1200 c 128,-1,24
 918 1114 918 1114 928 1010 c 1,25,-1
 774 1010 l 1,26,27
 767 1076 767 1076 748.5 1133 c 128,-1,28
 730 1190 730 1190 699.5 1233 c 128,-1,29
 669 1276 669 1276 624.5 1300.5 c 128,-1,30
 580 1325 580 1325 519 1325 c 0,31,32
 464 1325 464 1325 422.5 1303.5 c 128,-1,33
 381 1282 381 1282 350.5 1245 c 128,-1,34
 320 1208 320 1208 299.5 1159 c 128,-1,35
 279 1110 279 1110 266.5 1055 c 128,-1,36
 254 1000 254 1000 248.5 942.5 c 128,-1,37
 243 885 243 885 243 831 c 2,38,-1
 243 626 l 2,39,40
 243 572 243 572 248.5 514.5 c 128,-1,41
 254 457 254 457 266.5 401.5 c 128,-1,42
 279 346 279 346 299 297 c 128,-1,43
 319 248 319 248 350 210.5 c 128,-1,44
 381 173 381 173 422.5 151.5 c 128,-1,45
 464 130 464 130 519 130 c 0,46,47
 580 130 580 130 624.5 153 c 128,-1,48
 669 176 669 176 699.5 217.5 c 128,-1,49
 730 259 730 259 748.5 315.5 c 128,-1,50
 767 372 767 372 774 438 c 1,51,-1
 928 438 l 1,0,1
EndSplineSet
Validated: 1
EndChar

StartChar: D
Encoding: 68 68 39
Width: 1024
GlyphClass: 2
Flags: W
LayerCount: 2
Fore
SplineSet
129 0 m 1,0,-1
 129 1456 l 1,1,-1
 409 1456 l 2,2,3
 535 1454 535 1454 634.5 1404.5 c 128,-1,4
 734 1355 734 1355 802.5 1266.5 c 128,-1,5
 871 1178 871 1178 907 1054.5 c 128,-1,6
 943 931 943 931 944 781 c 2,7,-1
 944 674 l 2,8,9
 943 524 943 524 907 400.5 c 128,-1,10
 871 277 871 277 802.5 188.5 c 128,-1,11
 734 100 734 100 634.5 50.5 c 128,-1,12
 535 1 535 1 409 0 c 2,13,-1
 129 0 l 1,0,-1
285 1304 m 1,14,-1
 285 151 l 1,15,-1
 409 151 l 2,16,17
 507 152 507 152 578.5 192.5 c 128,-1,18
 650 233 650 233 697 303 c 128,-1,19
 744 373 744 373 766.5 468 c 128,-1,20
 789 563 789 563 790 674 c 2,21,-1
 790 783 l 2,22,23
 789 894 789 894 766 988.5 c 128,-1,24
 743 1083 743 1083 696.5 1152.5 c 128,-1,25
 650 1222 650 1222 578.5 1262 c 128,-1,26
 507 1302 507 1302 409 1304 c 2,27,-1
 285 1304 l 1,14,-1
EndSplineSet
Validated: 1
EndChar

StartChar: E
Encoding: 69 69 40
Width: 1024
GlyphClass: 2
Flags: W
LayerCount: 2
Fore
SplineSet
810 673 m 1,0,-1
 305 673 l 1,1,-1
 305 157 l 1,2,-1
 894 157 l 1,3,-1
 894 0 l 1,4,-1
 151 0 l 1,5,-1
 151 1456 l 1,6,-1
 887 1456 l 1,7,-1
 887 1298 l 1,8,-1
 305 1298 l 1,9,-1
 305 830 l 1,10,-1
 810 830 l 1,11,-1
 810 673 l 1,0,-1
EndSplineSet
Validated: 1
EndChar

StartChar: F
Encoding: 70 70 41
Width: 1024
GlyphClass: 2
Flags: W
LayerCount: 2
Fore
SplineSet
818 643 m 1,0,-1
 314 643 l 1,1,-1
 314 0 l 1,2,-1
 159 0 l 1,3,-1
 159 1456 l 1,4,-1
 902 1456 l 1,5,-1
 902 1298 l 1,6,-1
 314 1298 l 1,7,-1
 314 800 l 1,8,-1
 818 800 l 1,9,-1
 818 643 l 1,0,-1
EndSplineSet
Validated: 1
EndChar

StartChar: G
Encoding: 71 71 42
Width: 1024
GlyphClass: 2
Flags: W
LayerCount: 2
Fore
SplineSet
927 191 m 1,0,1
 851 83 851 83 752 31.5 c 128,-1,2
 653 -20 653 -20 535 -20 c 0,3,4
 460 -20 460 -20 397.5 7 c 128,-1,5
 335 34 335 34 285 80.5 c 128,-1,6
 235 127 235 127 197.5 190 c 128,-1,7
 160 253 160 253 135 326.5 c 128,-1,8
 110 400 110 400 97 480.5 c 128,-1,9
 84 561 84 561 83 643 c 2,10,-1
 83 812 l 2,11,12
 84 893 84 893 95 973.5 c 128,-1,13
 106 1054 106 1054 129.5 1128 c 128,-1,14
 153 1202 153 1202 188 1265.5 c 128,-1,15
 223 1329 223 1329 271.5 1375.5 c 128,-1,16
 320 1422 320 1422 381.5 1449 c 128,-1,17
 443 1476 443 1476 519 1476 c 0,18,19
 604 1476 604 1476 675.5 1444.5 c 128,-1,20
 747 1413 747 1413 800 1354.5 c 128,-1,21
 853 1296 853 1296 885.5 1213.5 c 128,-1,22
 918 1131 918 1131 926 1029 c 1,23,-1
 774 1029 l 1,24,25
 765 1092 765 1092 745.5 1145.5 c 128,-1,26
 726 1199 726 1199 695 1237 c 128,-1,27
 664 1275 664 1275 621 1296.5 c 128,-1,28
 578 1318 578 1318 520 1318 c 0,29,30
 465 1318 465 1318 423 1295.5 c 128,-1,31
 381 1273 381 1273 349 1235 c 128,-1,32
 317 1197 317 1197 296.5 1146.5 c 128,-1,33
 276 1096 276 1096 262.5 1040 c 128,-1,34
 249 984 249 984 243.5 926 c 128,-1,35
 238 868 238 868 238 814 c 2,36,-1
 238 643 l 2,37,38
 239 588 239 588 246 529.5 c 128,-1,39
 253 471 253 471 268 415 c 128,-1,40
 283 359 283 359 306 309 c 128,-1,41
 329 259 329 259 362 221 c 128,-1,42
 395 183 395 183 438 160 c 128,-1,43
 481 137 481 137 536 137 c 0,44,45
 568 137 568 137 602.5 140.5 c 128,-1,46
 637 144 637 144 669 156 c 128,-1,47
 701 168 701 168 729.5 188.5 c 128,-1,48
 758 209 758 209 777 242 c 1,49,-1
 779 569 l 1,50,-1
 533 569 l 1,51,-1
 533 725 l 1,52,-1
 925 725 l 1,53,-1
 927 191 l 1,0,1
EndSplineSet
Validated: 1
EndChar

StartChar: H
Encoding: 72 72 43
Width: 1024
GlyphClass: 2
Flags: W
LayerCount: 2
Fore
SplineSet
903 0 m 1,0,-1
 758 0 l 1,1,-1
 758 673 l 1,2,-1
 262 673 l 1,3,-1
 262 0 l 1,4,-1
 117 0 l 1,5,-1
 117 1456 l 1,6,-1
 262 1456 l 1,7,-1
 262 830 l 1,8,-1
 758 830 l 1,9,-1
 758 1456 l 1,10,-1
 903 1456 l 1,11,-1
 903 0 l 1,0,-1
EndSplineSet
Validated: 1
EndChar

StartChar: I
Encoding: 73 73 44
Width: 1024
GlyphClass: 2
Flags: W
LayerCount: 2
Fore
SplineSet
145 1456 m 1,0,-1
 876 1456 l 1,1,-1
 876 1295 l 1,2,-1
 586 1295 l 1,3,-1
 586 160 l 1,4,-1
 876 160 l 1,5,-1
 876 0 l 1,6,-1
 145 0 l 1,7,-1
 145 160 l 1,8,-1
 428 160 l 1,9,-1
 428 1295 l 1,10,-1
 145 1295 l 1,11,-1
 145 1456 l 1,0,-1
EndSplineSet
Validated: 1
EndChar

StartChar: J
Encoding: 74 74 45
Width: 1024
GlyphClass: 2
Flags: W
LayerCount: 2
Fore
SplineSet
712 1456 m 1,0,-1
 869 1456 l 1,1,-1
 869 443 l 2,2,3
 867 342 867 342 837 257 c 128,-1,4
 807 172 807 172 754.5 110.5 c 128,-1,5
 702 49 702 49 631 14.5 c 128,-1,6
 560 -20 560 -20 476 -20 c 0,7,8
 391 -20 391 -20 322 11 c 128,-1,9
 253 42 253 42 201.5 99.5 c 128,-1,10
 150 157 150 157 119.5 238.5 c 128,-1,11
 89 320 89 320 81 421 c 1,12,-1
 238 421 l 1,13,14
 240 360 240 360 258 308 c 128,-1,15
 276 256 276 256 306.5 217.5 c 128,-1,16
 337 179 337 179 380 158 c 128,-1,17
 423 137 423 137 476 137 c 0,18,19
 531 137 531 137 574 161.5 c 128,-1,20
 617 186 617 186 647.5 228 c 128,-1,21
 678 270 678 270 694.5 325.5 c 128,-1,22
 711 381 711 381 712 443 c 2,23,-1
 712 1456 l 1,0,-1
EndSplineSet
Validated: 1
EndChar

StartChar: K
Encoding: 75 75 46
Width: 1024
GlyphClass: 2
Flags: W
LayerCount: 2
Fore
SplineSet
435 676 m 1,0,-1
 300 492 l 1,1,-1
 300 0 l 1,2,-1
 143 0 l 1,3,-1
 143 1456 l 1,4,-1
 300 1456 l 1,5,-1
 300 745 l 1,6,-1
 417 921 l 1,7,-1
 772 1456 l 1,8,-1
 959 1456 l 1,9,-1
 536 819 l 1,10,-1
 987 0 l 1,11,-1
 800 0 l 1,12,-1
 435 676 l 1,0,-1
EndSplineSet
Validated: 1
EndChar

StartChar: L
Encoding: 76 76 47
Width: 1024
GlyphClass: 2
Flags: W
LayerCount: 2
Fore
SplineSet
318 157 m 1,0,-1
 910 157 l 1,1,-1
 910 0 l 1,2,-1
 165 0 l 1,3,-1
 165 1456 l 1,4,-1
 318 1456 l 1,5,-1
 318 157 l 1,0,-1
EndSplineSet
Validated: 1
EndChar

StartChar: M
Encoding: 77 77 48
Width: 1024
GlyphClass: 2
Flags: W
LayerCount: 2
Fore
SplineSet
313 1456 m 1,0,-1
 510 728 l 1,1,-1
 723 1456 l 1,2,-1
 914 1456 l 1,3,-1
 914 0 l 1,4,-1
 765 0 l 1,5,-1
 765 581 l 1,6,-1
 777 1189 l 1,7,-1
 553 405 l 1,8,-1
 465 405 l 1,9,-1
 260 1168 l 1,10,-1
 273 581 l 1,11,-1
 273 0 l 1,12,-1
 123 0 l 1,13,-1
 123 1456 l 1,14,-1
 313 1456 l 1,0,-1
EndSplineSet
Validated: 1
EndChar

StartChar: N
Encoding: 78 78 49
Width: 1024
GlyphClass: 2
Flags: W
LayerCount: 2
Fore
SplineSet
902 0 m 1,0,-1
 746 0 l 1,1,-1
 277 1088 l 1,2,-1
 274 0 l 1,3,-1
 119 0 l 1,4,-1
 119 1456 l 1,5,-1
 275 1456 l 1,6,-1
 745 370 l 1,7,-1
 747 1456 l 1,8,-1
 902 1456 l 1,9,-1
 902 0 l 1,0,-1
EndSplineSet
Validated: 1
EndChar

StartChar: O
Encoding: 79 79 50
Width: 1024
GlyphClass: 2
Flags: W
LayerCount: 2
Fore
SplineSet
932 644 m 2,0,1
 931 566 931 566 920.5 486.5 c 128,-1,2
 910 407 910 407 888.5 333 c 128,-1,3
 867 259 867 259 833 195 c 128,-1,4
 799 131 799 131 752.5 83 c 128,-1,5
 706 35 706 35 646 7.5 c 128,-1,6
 586 -20 586 -20 511 -20 c 256,7,8
 436 -20 436 -20 376 7.5 c 128,-1,9
 316 35 316 35 269.5 83 c 128,-1,10
 223 131 223 131 189 195.5 c 128,-1,11
 155 260 155 260 133 334 c 128,-1,12
 111 408 111 408 100 487 c 128,-1,13
 89 566 89 566 88 644 c 2,14,-1
 88 810 l 2,15,16
 89 888 89 888 99.5 967.5 c 128,-1,17
 110 1047 110 1047 132 1121 c 128,-1,18
 154 1195 154 1195 187.5 1259.5 c 128,-1,19
 221 1324 221 1324 267.5 1372.5 c 128,-1,20
 314 1421 314 1421 374.5 1448.5 c 128,-1,21
 435 1476 435 1476 509 1476 c 0,22,23
 584 1476 584 1476 645 1448.5 c 128,-1,24
 706 1421 706 1421 752.5 1373 c 128,-1,25
 799 1325 799 1325 832.5 1260.5 c 128,-1,26
 866 1196 866 1196 888 1122 c 128,-1,27
 910 1048 910 1048 920.5 968 c 128,-1,28
 931 888 931 888 932 810 c 2,29,-1
 932 644 l 2,0,1
779 812 m 2,30,31
 778 864 778 864 773.5 920.5 c 128,-1,32
 769 977 769 977 757 1032.5 c 128,-1,33
 745 1088 745 1088 725 1138.5 c 128,-1,34
 705 1189 705 1189 675 1227.5 c 128,-1,35
 645 1266 645 1266 604 1288.5 c 128,-1,36
 563 1311 563 1311 509 1311 c 0,37,38
 456 1311 456 1311 415.5 1288 c 128,-1,39
 375 1265 375 1265 345 1226.5 c 128,-1,40
 315 1188 315 1188 295 1137.5 c 128,-1,41
 275 1087 275 1087 263 1031.5 c 128,-1,42
 251 976 251 976 245.5 919.5 c 128,-1,43
 240 863 240 863 239 812 c 2,44,-1
 239 644 l 2,45,46
 240 593 240 593 245.5 536 c 128,-1,47
 251 479 251 479 263.5 423.5 c 128,-1,48
 276 368 276 368 296 317 c 128,-1,49
 316 266 316 266 346 227.5 c 128,-1,50
 376 189 376 189 416.5 166 c 128,-1,51
 457 143 457 143 511 143 c 256,52,53
 565 143 565 143 606 166 c 128,-1,54
 647 189 647 189 676.5 227.5 c 128,-1,55
 706 266 706 266 725.5 316.5 c 128,-1,56
 745 367 745 367 757.5 422.5 c 128,-1,57
 770 478 770 478 774.5 535 c 128,-1,58
 779 592 779 592 779 644 c 2,59,-1
 779 812 l 2,30,31
EndSplineSet
Validated: 1
EndChar

StartChar: P
Encoding: 80 80 51
Width: 1024
GlyphClass: 2
Flags: W
LayerCount: 2
Fore
SplineSet
312 584 m 1,0,-1
 312 0 l 1,1,-1
 159 0 l 1,2,-1
 159 1456 l 1,3,-1
 551 1456 l 2,4,5
 632 1454 632 1454 705 1425 c 128,-1,6
 778 1396 778 1396 833 1341 c 128,-1,7
 888 1286 888 1286 919.5 1205 c 128,-1,8
 951 1124 951 1124 951 1019 c 256,9,10
 951 914 951 914 919.5 833.5 c 128,-1,11
 888 753 888 753 833 698 c 128,-1,12
 778 643 778 643 705 614 c 128,-1,13
 632 585 632 585 551 584 c 2,14,-1
 312 584 l 1,0,-1
312 736 m 1,15,-1
 551 736 l 2,16,17
 604 737 604 737 649 756.5 c 128,-1,18
 694 776 694 776 727 812 c 128,-1,19
 760 848 760 848 779 899.5 c 128,-1,20
 798 951 798 951 798 1017 c 256,21,22
 798 1083 798 1083 779 1136 c 128,-1,23
 760 1189 760 1189 727.5 1226 c 128,-1,24
 695 1263 695 1263 649.5 1283 c 128,-1,25
 604 1303 604 1303 551 1304 c 2,26,-1
 312 1304 l 1,27,-1
 312 736 l 1,15,-1
EndSplineSet
Validated: 1
EndChar

StartChar: Q
Encoding: 81 81 52
Width: 1024
GlyphClass: 2
Flags: W
LayerCount: 2
Fore
SplineSet
942 663 m 2,0,1
 941 582 941 582 930.5 500 c 128,-1,2
 920 418 920 418 898 342 c 128,-1,3
 876 266 876 266 841.5 199.5 c 128,-1,4
 807 133 807 133 759 84 c 1,5,-1
 967 -125 l 1,6,-1
 862 -246 l 1,7,-1
 622 -2 l 1,8,9
 570 -20 570 -20 511 -20 c 0,10,11
 434 -20 434 -20 372.5 8.5 c 128,-1,12
 311 37 311 37 263 86 c 128,-1,13
 215 135 215 135 180 201.5 c 128,-1,14
 145 268 145 268 123 344 c 128,-1,15
 101 420 101 420 90 501.5 c 128,-1,16
 79 583 79 583 78 663 c 2,17,-1
 78 791 l 2,18,19
 79 871 79 871 90 953 c 128,-1,20
 101 1035 101 1035 123 1111 c 128,-1,21
 145 1187 145 1187 179.5 1253.5 c 128,-1,22
 214 1320 214 1320 261.5 1369.5 c 128,-1,23
 309 1419 309 1419 371 1447.5 c 128,-1,24
 433 1476 433 1476 510 1476 c 256,25,26
 587 1476 587 1476 649 1447.5 c 128,-1,27
 711 1419 711 1419 759 1370 c 128,-1,28
 807 1321 807 1321 841.5 1254.5 c 128,-1,29
 876 1188 876 1188 898 1112 c 128,-1,30
 920 1036 920 1036 931 953.5 c 128,-1,31
 942 871 942 871 942 791 c 2,32,-1
 942 663 l 2,0,1
789 793 m 2,33,34
 788 848 788 848 783.5 907.5 c 128,-1,35
 779 967 779 967 767 1024.5 c 128,-1,36
 755 1082 755 1082 735 1134 c 128,-1,37
 715 1186 715 1186 684 1225.5 c 128,-1,38
 653 1265 653 1265 610.5 1288 c 128,-1,39
 568 1311 568 1311 510 1311 c 0,40,41
 453 1311 453 1311 411 1287.5 c 128,-1,42
 369 1264 369 1264 338 1224.5 c 128,-1,43
 307 1185 307 1185 287 1133 c 128,-1,44
 267 1081 267 1081 254.5 1023.5 c 128,-1,45
 242 966 242 966 236.5 906.5 c 128,-1,46
 231 847 231 847 231 793 c 2,47,-1
 231 663 l 2,48,49
 231 609 231 609 236.5 549.5 c 128,-1,50
 242 490 242 490 254.5 432 c 128,-1,51
 267 374 267 374 287 322 c 128,-1,52
 307 270 307 270 338 230 c 128,-1,53
 369 190 369 190 412 166.5 c 128,-1,54
 455 143 455 143 511 143 c 0,55,56
 568 143 568 143 611 166.5 c 128,-1,57
 654 190 654 190 684.5 229.5 c 128,-1,58
 715 269 715 269 735 321 c 128,-1,59
 755 373 755 373 767 431 c 128,-1,60
 779 489 779 489 784 548.5 c 128,-1,61
 789 608 789 608 789 663 c 2,62,-1
 789 793 l 2,33,34
EndSplineSet
Validated: 1
EndChar

StartChar: R
Encoding: 82 82 53
Width: 1024
GlyphClass: 2
Flags: W
LayerCount: 2
Fore
SplineSet
545 594 m 1,0,-1
 303 594 l 1,1,-1
 303 0 l 1,2,-1
 150 0 l 1,3,-1
 150 1456 l 1,4,-1
 505 1456 l 2,5,6
 590 1454 590 1454 665 1427 c 128,-1,7
 740 1400 740 1400 796 1346 c 128,-1,8
 852 1292 852 1292 884 1210.5 c 128,-1,9
 916 1129 916 1129 916 1019 c 0,10,11
 916 948 916 948 899 889 c 128,-1,12
 882 830 882 830 852 782 c 128,-1,13
 822 734 822 734 780.5 697 c 128,-1,14
 739 660 739 660 689 634 c 1,15,-1
 946 12 l 1,16,-1
 945 0 l 1,17,-1
 783 0 l 1,18,-1
 545 594 l 1,0,-1
303 746 m 1,19,-1
 509 746 l 2,20,21
 561 747 561 747 606.5 765.5 c 128,-1,22
 652 784 652 784 686.5 819 c 128,-1,23
 721 854 721 854 741 904.5 c 128,-1,24
 761 955 761 955 761 1021 c 0,25,26
 761 1091 761 1091 742 1143.5 c 128,-1,27
 723 1196 723 1196 689 1231.5 c 128,-1,28
 655 1267 655 1267 608 1285 c 128,-1,29
 561 1303 561 1303 505 1304 c 2,30,-1
 303 1304 l 1,31,-1
 303 746 l 1,19,-1
EndSplineSet
Validated: 1
EndChar

StartChar: S
Encoding: 83 83 54
Width: 1024
GlyphClass: 2
Flags: W
LayerCount: 2
Fore
SplineSet
778 368 m 0,0,1
 778 435 778 435 752.5 481 c 128,-1,2
 727 527 727 527 687 558.5 c 128,-1,3
 647 590 647 590 599.5 611 c 128,-1,4
 552 632 552 632 508 649 c 0,5,6
 444 674 444 674 378 709 c 128,-1,7
 312 744 312 744 257.5 795 c 128,-1,8
 203 846 203 846 168.5 915.5 c 128,-1,9
 134 985 134 985 134 1079 c 256,10,11
 134 1173 134 1173 168.5 1247 c 128,-1,12
 203 1321 203 1321 258.5 1372 c 128,-1,13
 314 1423 314 1423 384.5 1449.5 c 128,-1,14
 455 1476 455 1476 527 1476 c 0,15,16
 606 1476 606 1476 679 1444.5 c 128,-1,17
 752 1413 752 1413 808.5 1356 c 128,-1,18
 865 1299 865 1299 899 1218 c 128,-1,19
 933 1137 933 1137 935 1037 c 1,20,-1
 777 1037 l 1,21,22
 770 1100 770 1100 751 1151.5 c 128,-1,23
 732 1203 732 1203 700.5 1240 c 128,-1,24
 669 1277 669 1277 625.5 1297.5 c 128,-1,25
 582 1318 582 1318 527 1318 c 0,26,27
 483 1318 483 1318 441 1303 c 128,-1,28
 399 1288 399 1288 366 1258 c 128,-1,29
 333 1228 333 1228 313.5 1184 c 128,-1,30
 294 1140 294 1140 294 1082 c 0,31,32
 295 1019 295 1019 321 975.5 c 128,-1,33
 347 932 347 932 386 902 c 128,-1,34
 425 872 425 872 471.5 852 c 128,-1,35
 518 832 518 832 558 817 c 0,36,37
 603 800 603 800 649 778.5 c 128,-1,38
 695 757 695 757 737 729 c 128,-1,39
 779 701 779 701 816 666 c 128,-1,40
 853 631 853 631 880 586.5 c 128,-1,41
 907 542 907 542 922.5 488.5 c 128,-1,42
 938 435 938 435 938 370 c 0,43,44
 938 272 938 272 902 199 c 128,-1,45
 866 126 866 126 808.5 77.5 c 128,-1,46
 751 29 751 29 679 4.5 c 128,-1,47
 607 -20 607 -20 534 -20 c 0,48,49
 453 -20 453 -20 376 10 c 128,-1,50
 299 40 299 40 238 96.5 c 128,-1,51
 177 153 177 153 139 234.5 c 128,-1,52
 101 316 101 316 98 420 c 1,53,-1
 255 420 l 1,54,55
 262 352 262 352 285.5 299.5 c 128,-1,56
 309 247 309 247 345.5 210.5 c 128,-1,57
 382 174 382 174 430 155.5 c 128,-1,58
 478 137 478 137 534 137 c 0,59,60
 579 137 579 137 622.5 150.5 c 128,-1,61
 666 164 666 164 700.5 192.5 c 128,-1,62
 735 221 735 221 756.5 264.5 c 128,-1,63
 778 308 778 308 778 368 c 0,0,1
EndSplineSet
Validated: 1
EndChar

StartChar: T
Encoding: 84 84 55
Width: 1024
GlyphClass: 2
Flags: W
LayerCount: 2
Fore
SplineSet
961 1298 m 1,0,-1
 587 1298 l 1,1,-1
 587 0 l 1,2,-1
 437 0 l 1,3,-1
 437 1298 l 1,4,-1
 63 1298 l 1,5,-1
 63 1456 l 1,6,-1
 961 1456 l 1,7,-1
 961 1298 l 1,0,-1
EndSplineSet
Validated: 1
EndChar

StartChar: U
Encoding: 85 85 56
Width: 1024
GlyphClass: 2
Flags: W
LayerCount: 2
Fore
SplineSet
904 1456 m 1,0,-1
 906 470 l 2,1,2
 904 368 904 368 875 279 c 128,-1,3
 846 190 846 190 793.5 123.5 c 128,-1,4
 741 57 741 57 669 18.5 c 128,-1,5
 597 -20 597 -20 510 -20 c 0,6,7
 422 -20 422 -20 350 18 c 128,-1,8
 278 56 278 56 226.5 122.5 c 128,-1,9
 175 189 175 189 145.5 278.5 c 128,-1,10
 116 368 116 368 116 470 c 2,11,-1
 117 1456 l 1,12,-1
 263 1456 l 1,13,-1
 267 470 l 2,14,15
 268 405 268 405 284 345 c 128,-1,16
 300 285 300 285 330.5 239 c 128,-1,17
 361 193 361 193 406 165 c 128,-1,18
 451 137 451 137 510 137 c 256,19,20
 569 137 569 137 614 164.5 c 128,-1,21
 659 192 659 192 689.5 238.5 c 128,-1,22
 720 285 720 285 735.5 345 c 128,-1,23
 751 405 751 405 753 470 c 2,24,-1
 755 1456 l 1,25,-1
 904 1456 l 1,0,-1
EndSplineSet
Validated: 1
EndChar

StartChar: V
Encoding: 86 86 57
Width: 1024
GlyphClass: 2
Flags: W
LayerCount: 2
Fore
SplineSet
507 298 m 1,0,-1
 793 1456 l 1,1,-1
 956 1456 l 1,2,-1
 575 0 l 1,3,-1
 441 0 l 1,4,-1
 59 1456 l 1,5,-1
 224 1456 l 1,6,-1
 507 298 l 1,0,-1
EndSplineSet
Validated: 1
EndChar

StartChar: W
Encoding: 87 87 58
Width: 1024
GlyphClass: 2
Flags: W
LayerCount: 2
Fore
SplineSet
745 394 m 1,0,-1
 837 1456 l 1,1,-1
 982 1456 l 1,2,-1
 835 0 l 1,3,-1
 678 0 l 1,4,-1
 523 1097 l 1,5,-1
 366 0 l 1,6,-1
 208 0 l 1,7,-1
 61 1456 l 1,8,-1
 207 1456 l 1,9,-1
 299 394 l 1,10,-1
 455 1456 l 1,11,-1
 588 1456 l 1,12,-1
 745 394 l 1,0,-1
EndSplineSet
Validated: 1
EndChar

StartChar: X
Encoding: 88 88 59
Width: 1024
GlyphClass: 2
Flags: W
LayerCount: 2
Fore
SplineSet
519 885 m 1,0,-1
 780 1456 l 1,1,-1
 961 1456 l 1,2,-1
 610 734 l 1,3,-1
 970 0 l 1,4,-1
 790 0 l 1,5,-1
 523 582 l 1,6,-1
 254 0 l 1,7,-1
 72 0 l 1,8,-1
 433 734 l 1,9,-1
 81 1456 l 1,10,-1
 262 1456 l 1,11,-1
 519 885 l 1,0,-1
EndSplineSet
Validated: 1
EndChar

StartChar: Y
Encoding: 89 89 60
Width: 1024
GlyphClass: 2
Flags: W
LayerCount: 2
Fore
SplineSet
501 725 m 1,0,-1
 777 1456 l 1,1,-1
 951 1456 l 1,2,-1
 575 543 l 1,3,-1
 573 0 l 1,4,-1
 430 0 l 1,5,-1
 427 543 l 1,6,-1
 51 1456 l 1,7,-1
 226 1456 l 1,8,-1
 501 725 l 1,0,-1
EndSplineSet
Validated: 1
EndChar

StartChar: Z
Encoding: 90 90 61
Width: 1024
GlyphClass: 2
Flags: W
LayerCount: 2
Fore
SplineSet
270 157 m 1,0,-1
 897 157 l 1,1,-1
 897 0 l 1,2,-1
 96 0 l 1,3,-1
 95 144 l 1,4,-1
 697 1298 l 1,5,-1
 106 1298 l 1,6,-1
 106 1456 l 1,7,-1
 873 1456 l 1,8,-1
 874 1315 l 1,9,-1
 270 157 l 1,0,-1
EndSplineSet
Validated: 1
EndChar

StartChar: bracketleft
Encoding: 91 91 62
Width: 1024
GlyphClass: 2
Flags: W
LayerCount: 2
Fore
SplineSet
704 -192 m 1,0,-1
 344 -192 l 1,1,-1
 344 1600 l 1,2,-1
 704 1600 l 1,3,-1
 704 1472 l 1,4,-1
 488 1472 l 1,5,-1
 488 -64 l 1,6,-1
 704 -64 l 1,7,-1
 704 -192 l 1,0,-1
EndSplineSet
Validated: 1
EndChar

StartChar: backslash
Encoding: 92 92 63
Width: 1024
GlyphClass: 2
Flags: W
LayerCount: 2
Fore
SplineSet
682 -64 m 1,0,-1
 190 1472 l 1,1,-1
 342 1472 l 1,2,-1
 834 -64 l 1,3,-1
 682 -64 l 1,0,-1
EndSplineSet
Validated: 1
EndChar

StartChar: bracketright
Encoding: 93 93 64
Width: 1024
GlyphClass: 2
Flags: W
LayerCount: 2
Fore
SplineSet
320 1600 m 1,0,-1
 680 1600 l 1,1,-1
 680 -192 l 1,2,-1
 320 -192 l 1,3,-1
 320 -64 l 1,4,-1
 536 -64 l 1,5,-1
 536 1472 l 1,6,-1
 320 1472 l 1,7,-1
 320 1600 l 1,0,-1
EndSplineSet
Validated: 1
EndChar

StartChar: asciicircum
Encoding: 94 94 65
Width: 1024
GlyphClass: 2
Flags: W
LayerCount: 2
Fore
SplineSet
512 1619 m 1,0,-1
 939 1192 l 1,1,-1
 848 1101 l 1,2,-1
 512 1437 l 1,3,-1
 176 1101 l 1,4,-1
 85 1192 l 1,5,-1
 512 1619 l 1,0,-1
EndSplineSet
Validated: 1
EndChar

StartChar: underscore
Encoding: 95 95 66
Width: 1024
GlyphClass: 2
Flags: W
LayerCount: 2
Fore
SplineSet
960 -128 m 1,0,-1
 64 -128 l 1,1,-1
 64 0 l 1,2,-1
 960 0 l 1,3,-1
 960 -128 l 1,0,-1
EndSplineSet
Validated: 1
EndChar

StartChar: grave
Encoding: 96 96 67
Width: 1024
GlyphClass: 2
Flags: W
LayerCount: 2
Fore
SplineSet
676 1215 m 1,0,-1
 551 1215 l 1,1,-1
 345 1481 l 1,2,-1
 530 1481 l 1,3,-1
 676 1215 l 1,0,-1
EndSplineSet
Validated: 1
EndChar

StartChar: a
Encoding: 97 97 68
Width: 1024
GlyphClass: 2
Flags: W
LayerCount: 2
Fore
SplineSet
735 0 m 1,0,1
 726 21 726 21 720.5 52.5 c 128,-1,2
 715 84 715 84 713 118 c 1,3,4
 690 90 690 90 661 65 c 128,-1,5
 632 40 632 40 597.5 21 c 128,-1,6
 563 2 563 2 524 -9 c 128,-1,7
 485 -20 485 -20 441 -20 c 0,8,9
 370 -20 370 -20 312 5 c 128,-1,10
 254 30 254 30 214 72.5 c 128,-1,11
 174 115 174 115 152 173.5 c 128,-1,12
 130 232 130 232 130 300 c 0,13,14
 130 389 130 389 159.5 456 c 128,-1,15
 189 523 189 523 243 567.5 c 128,-1,16
 297 612 297 612 373 634 c 128,-1,17
 449 656 449 656 543 656 c 2,18,-1
 711 656 l 1,19,-1
 711 741 l 2,20,21
 711 790 711 790 696 829 c 128,-1,22
 681 868 681 868 653.5 895.5 c 128,-1,23
 626 923 626 923 586.5 938 c 128,-1,24
 547 953 547 953 498 953 c 0,25,26
 452 953 452 953 416 939 c 128,-1,27
 380 925 380 925 355 902 c 128,-1,28
 330 879 330 879 316 847.5 c 128,-1,29
 302 816 302 816 302 782 c 1,30,-1
 148 782 l 1,31,32
 149 841 149 841 173.5 898 c 128,-1,33
 198 955 198 955 244 1000.5 c 128,-1,34
 290 1046 290 1046 356 1074 c 128,-1,35
 422 1102 422 1102 506 1102 c 0,36,37
 582 1102 582 1102 648 1079.5 c 128,-1,38
 714 1057 714 1057 761.5 1011.5 c 128,-1,39
 809 966 809 966 836.5 898 c 128,-1,40
 864 830 864 830 864 739 c 2,41,-1
 864 236 l 2,42,43
 864 182 864 182 872.5 121.5 c 128,-1,44
 881 61 881 61 896 16 c 1,45,-1
 896 0 l 1,46,-1
 735 0 l 1,0,1
464 141 m 256,47,48
 509 141 509 141 548 155 c 128,-1,49
 587 169 587 169 619 192 c 128,-1,50
 651 215 651 215 674 244.5 c 128,-1,51
 697 274 697 274 711 306 c 1,52,-1
 711 525 l 1,53,-1
 568 525 l 2,54,55
 433 525 433 525 358 477 c 128,-1,56
 283 429 283 429 283 326 c 0,57,58
 283 286 283 286 294.5 252 c 128,-1,59
 306 218 306 218 328.5 193.5 c 128,-1,60
 351 169 351 169 385 155 c 128,-1,61
 419 141 419 141 464 141 c 256,47,48
EndSplineSet
Validated: 1
EndChar

StartChar: b
Encoding: 98 98 69
Width: 1024
GlyphClass: 2
Flags: W
LayerCount: 2
Fore
SplineSet
907 529 m 2,0,1
 907 413 907 413 883.5 312.5 c 128,-1,2
 860 212 860 212 815 138 c 128,-1,3
 770 64 770 64 704 22 c 128,-1,4
 638 -20 638 -20 553 -20 c 0,5,6
 467 -20 467 -20 403 17 c 128,-1,7
 339 54 339 54 294 123 c 1,8,-1
 287 0 l 1,9,-1
 145 0 l 1,10,-1
 145 1476 l 1,11,-1
 299 1476 l 1,12,-1
 299 966 l 1,13,14
 343 1032 343 1032 405.5 1067 c 128,-1,15
 468 1102 468 1102 551 1102 c 0,16,17
 637 1102 637 1102 703.5 1061 c 128,-1,18
 770 1020 770 1020 815 947 c 128,-1,19
 860 874 860 874 883.5 772.5 c 128,-1,20
 907 671 907 671 907 550 c 2,21,-1
 907 529 l 2,0,1
753 550 m 2,22,23
 753 629 753 629 740 700.5 c 128,-1,24
 727 772 727 772 699 826.5 c 128,-1,25
 671 881 671 881 625 913 c 128,-1,26
 579 945 579 945 513 945 c 0,27,28
 473 945 473 945 439.5 932.5 c 128,-1,29
 406 920 406 920 380 897.5 c 128,-1,30
 354 875 354 875 333.5 844.5 c 128,-1,31
 313 814 313 814 299 778 c 1,32,-1
 299 305 l 1,33,34
 314 269 314 269 334.5 238.5 c 128,-1,35
 355 208 355 208 381.5 185 c 128,-1,36
 408 162 408 162 441.5 149.5 c 128,-1,37
 475 137 475 137 514 137 c 0,38,39
 577 137 577 137 622.5 168.5 c 128,-1,40
 668 200 668 200 696.5 254 c 128,-1,41
 725 308 725 308 739 379 c 128,-1,42
 753 450 753 450 753 529 c 2,43,-1
 753 550 l 2,22,23
EndSplineSet
Validated: 1
EndChar

StartChar: c
Encoding: 99 99 70
Width: 1024
GlyphClass: 2
Flags: W
LayerCount: 2
Fore
SplineSet
528 130 m 0,0,1
 570 130 570 130 609 146 c 128,-1,2
 648 162 648 162 679 190.5 c 128,-1,3
 710 219 710 219 728.5 257.5 c 128,-1,4
 747 296 747 296 748 341 c 1,5,-1
 893 341 l 1,6,7
 892 269 892 269 862 203.5 c 128,-1,8
 832 138 832 138 781 88.5 c 128,-1,9
 730 39 730 39 664.5 9.5 c 128,-1,10
 599 -20 599 -20 528 -20 c 0,11,12
 426 -20 426 -20 349.5 24 c 128,-1,13
 273 68 273 68 221.5 142.5 c 128,-1,14
 170 217 170 217 144.5 314.5 c 128,-1,15
 119 412 119 412 119 520 c 2,16,-1
 119 562 l 2,17,18
 119 669 119 669 144.5 767 c 128,-1,19
 170 865 170 865 221.5 939.5 c 128,-1,20
 273 1014 273 1014 349 1058 c 128,-1,21
 425 1102 425 1102 528 1102 c 0,22,23
 608 1102 608 1102 674.5 1071.5 c 128,-1,24
 741 1041 741 1041 789.5 988.5 c 128,-1,25
 838 936 838 936 865.5 864 c 128,-1,26
 893 792 893 792 893 710 c 1,27,-1
 748 710 l 1,28,29
 747 759 747 759 730 802.5 c 128,-1,30
 713 846 713 846 684 879 c 128,-1,31
 655 912 655 912 614.5 931 c 128,-1,32
 574 950 574 950 528 950 c 0,33,34
 457 950 457 950 408 915.5 c 128,-1,35
 359 881 359 881 329 825.5 c 128,-1,36
 299 770 299 770 286 701 c 128,-1,37
 273 632 273 632 273 562 c 2,38,-1
 273 520 l 2,39,40
 273 449 273 449 286 379.5 c 128,-1,41
 299 310 299 310 328.5 254.5 c 128,-1,42
 358 199 358 199 407 164.5 c 128,-1,43
 456 130 456 130 528 130 c 0,0,1
EndSplineSet
Validated: 1
EndChar

StartChar: d
Encoding: 100 100 71
Width: 1024
GlyphClass: 2
Flags: W
LayerCount: 2
Fore
SplineSet
116 550 m 2,0,1
 116 671 116 671 141 772.5 c 128,-1,2
 166 874 166 874 213 947 c 128,-1,3
 260 1020 260 1020 326.5 1061 c 128,-1,4
 393 1102 393 1102 475 1102 c 0,5,6
 556 1102 556 1102 616 1069.5 c 128,-1,7
 676 1037 676 1037 720 975 c 1,8,-1
 720 1476 l 1,9,-1
 874 1476 l 1,10,-1
 874 0 l 1,11,-1
 733 0 l 1,12,-1
 726 114 l 1,13,14
 681 48 681 48 619 14 c 128,-1,15
 557 -20 557 -20 474 -20 c 0,16,17
 393 -20 393 -20 326.5 22 c 128,-1,18
 260 64 260 64 213.5 138 c 128,-1,19
 167 212 167 212 141.5 312.5 c 128,-1,20
 116 413 116 413 116 529 c 2,21,-1
 116 550 l 2,0,1
269 529 m 2,22,23
 269 450 269 450 283 379 c 128,-1,24
 297 308 297 308 326.5 254 c 128,-1,25
 356 200 356 200 402 168.5 c 128,-1,26
 448 137 448 137 512 137 c 0,27,28
 551 137 551 137 582.5 148 c 128,-1,29
 614 159 614 159 640 179.5 c 128,-1,30
 666 200 666 200 686 228.5 c 128,-1,31
 706 257 706 257 720 292 c 1,32,-1
 720 794 l 1,33,34
 690 860 690 860 639.5 902.5 c 128,-1,35
 589 945 589 945 514 945 c 0,36,37
 449 945 449 945 402.5 913 c 128,-1,38
 356 881 356 881 326.5 826.5 c 128,-1,39
 297 772 297 772 283 700.5 c 128,-1,40
 269 629 269 629 269 550 c 2,41,-1
 269 529 l 2,22,23
EndSplineSet
Validated: 1
EndChar

StartChar: e
Encoding: 101 101 72
Width: 1024
GlyphClass: 2
Flags: W
LayerCount: 2
Fore
SplineSet
542 -20 m 0,0,1
 447 -20 447 -20 367.5 19 c 128,-1,2
 288 58 288 58 231.5 128 c 128,-1,3
 175 198 175 198 143.5 294 c 128,-1,4
 112 390 112 390 112 503 c 2,5,-1
 112 545 l 2,6,7
 112 676 112 676 147 779.5 c 128,-1,8
 182 883 182 883 239.5 954.5 c 128,-1,9
 297 1026 297 1026 371 1064 c 128,-1,10
 445 1102 445 1102 522 1102 c 0,11,12
 619 1102 619 1102 692 1061.5 c 128,-1,13
 765 1021 765 1021 813 949.5 c 128,-1,14
 861 878 861 878 884.5 781 c 128,-1,15
 908 684 908 684 908 571 c 2,16,-1
 908 488 l 1,17,-1
 266 488 l 1,18,19
 268 414 268 414 289.5 349 c 128,-1,20
 311 284 311 284 348 235.5 c 128,-1,21
 385 187 385 187 436.5 159 c 128,-1,22
 488 131 488 131 550 131 c 0,23,24
 632 131 632 131 696 171 c 128,-1,25
 760 211 760 211 803 277 c 1,26,-1
 897 189 l 1,27,28
 875 148 875 148 841 110.5 c 128,-1,29
 807 73 807 73 763 44 c 128,-1,30
 719 15 719 15 663.5 -2.5 c 128,-1,31
 608 -20 608 -20 542 -20 c 0,0,1
522 950 m 0,32,33
 475 950 475 950 433.5 929.5 c 128,-1,34
 392 909 392 909 359 869.5 c 128,-1,35
 326 830 326 830 303 772.5 c 128,-1,36
 280 715 280 715 271 640 c 1,37,-1
 755 640 l 1,38,-1
 755 654 l 2,39,40
 753 708 753 708 738 761 c 128,-1,41
 723 814 723 814 694.5 856 c 128,-1,42
 666 898 666 898 623.5 924 c 128,-1,43
 581 950 581 950 522 950 c 0,32,33
EndSplineSet
Validated: 1
EndChar

StartChar: f
Encoding: 102 102 73
Width: 1024
GlyphClass: 2
Flags: W
LayerCount: 2
Fore
SplineSet
374 0 m 1,0,-1
 374 939 l 1,1,-1
 126 939 l 1,2,-1
 126 1082 l 1,3,-1
 374 1082 l 1,4,-1
 374 1158 l 2,5,6
 374 1262 374 1262 399.5 1340.5 c 128,-1,7
 425 1419 425 1419 471 1472 c 128,-1,8
 517 1525 517 1525 582 1552 c 128,-1,9
 647 1579 647 1579 726 1579 c 0,10,11
 781 1579 781 1579 833 1568 c 128,-1,12
 885 1557 885 1557 940 1540 c 1,13,-1
 922 1387 l 1,14,15
 888 1401 888 1401 842.5 1411.5 c 128,-1,16
 797 1422 797 1422 745 1422 c 0,17,18
 637 1421 637 1421 583 1356 c 128,-1,19
 529 1291 529 1291 529 1158 c 2,20,-1
 529 1082 l 1,21,-1
 875 1082 l 1,22,-1
 875 939 l 1,23,-1
 529 939 l 1,24,-1
 529 0 l 1,25,-1
 374 0 l 1,0,-1
EndSplineSet
Validated: 1
EndChar

StartChar: g
Encoding: 103 103 74
Width: 1024
GlyphClass: 2
Flags: W
LayerCount: 2
Fore
SplineSet
931 935 m 1,0,-1
 806 935 l 1,1,2
 830 893 830 893 842.5 845 c 128,-1,3
 855 797 855 797 855 743 c 2,4,-1
 855 721 l 2,5,6
 855 647 855 647 829 582 c 128,-1,7
 803 517 803 517 756 468 c 128,-1,8
 709 419 709 419 643.5 391 c 128,-1,9
 578 363 578 363 500 363 c 0,10,11
 432 363 432 363 374 384 c 1,12,13
 357 367 357 367 344.5 341.5 c 128,-1,14
 332 316 332 316 332 278 c 0,15,16
 332 255 332 255 339.5 239.5 c 128,-1,17
 347 224 347 224 361.5 214 c 128,-1,18
 376 204 376 204 395.5 200 c 128,-1,19
 415 196 415 196 437 196 c 2,20,-1
 580 196 l 2,21,22
 660 196 660 196 723.5 178.5 c 128,-1,23
 787 161 787 161 831 125 c 128,-1,24
 875 89 875 89 898.5 34 c 128,-1,25
 922 -21 922 -21 922 -97 c 0,26,27
 922 -157 922 -157 891 -218 c 128,-1,28
 860 -279 860 -279 802 -327.5 c 128,-1,29
 744 -376 744 -376 661 -407 c 128,-1,30
 578 -438 578 -438 476 -438 c 0,31,32
 385 -438 385 -438 313.5 -416 c 128,-1,33
 242 -394 242 -394 193 -356.5 c 128,-1,34
 144 -319 144 -319 117.5 -268.5 c 128,-1,35
 91 -218 91 -218 91 -161 c 0,36,37
 91 -113 91 -113 103.5 -73 c 128,-1,38
 116 -33 116 -33 136 0 c 128,-1,39
 156 33 156 33 183 58.5 c 128,-1,40
 210 84 210 84 240 102 c 1,41,42
 218 124 218 124 205.5 153.5 c 128,-1,43
 193 183 193 183 193 223 c 0,44,45
 193 261 193 261 201 292 c 128,-1,46
 209 323 209 323 222.5 348.5 c 128,-1,47
 236 374 236 374 253.5 393.5 c 128,-1,48
 271 413 271 413 288 429 c 1,49,50
 221 478 221 478 182 554 c 128,-1,51
 143 630 143 630 143 721 c 2,52,-1
 143 743 l 2,53,54
 143 821 143 821 169.5 887 c 128,-1,55
 196 953 196 953 243 1001 c 128,-1,56
 290 1049 290 1049 355 1075.5 c 128,-1,57
 420 1102 420 1102 499 1102 c 0,58,59
 565 1102 565 1102 625 1082 c 1,60,-1
 929 1082 l 1,61,-1
 931 935 l 1,0,-1
407 44 m 2,62,63
 373 44 373 44 342 50 c 1,64,65
 301 28 301 28 273 -17 c 128,-1,66
 245 -62 245 -62 245 -124 c 0,67,68
 245 -159 245 -159 260 -189 c 128,-1,69
 275 -219 275 -219 304 -240.5 c 128,-1,70
 333 -262 333 -262 376.5 -274.5 c 128,-1,71
 420 -287 420 -287 476 -287 c 0,72,73
 542 -287 542 -287 596.5 -270 c 128,-1,74
 651 -253 651 -253 688.5 -226 c 128,-1,75
 726 -199 726 -199 747 -165 c 128,-1,76
 768 -131 768 -131 768 -97 c 0,77,78
 768 -62 768 -62 758 -35.5 c 128,-1,79
 748 -9 748 -9 725.5 8.5 c 128,-1,80
 703 26 703 26 667.5 35 c 128,-1,81
 632 44 632 44 580 44 c 2,82,-1
 407 44 l 2,62,63
297 721 m 2,83,84
 297 681 297 681 312 644 c 128,-1,85
 327 607 327 607 354 578.5 c 128,-1,86
 381 550 381 550 418 532.5 c 128,-1,87
 455 515 455 515 500 515 c 0,88,89
 544 515 544 515 581 532.5 c 128,-1,90
 618 550 618 550 644.5 578.5 c 128,-1,91
 671 607 671 607 686 644 c 128,-1,92
 701 681 701 681 701 721 c 2,93,-1
 701 743 l 2,94,95
 701 786 701 786 686 823.5 c 128,-1,96
 671 861 671 861 644 889 c 128,-1,97
 617 917 617 917 580 933.5 c 128,-1,98
 543 950 543 950 499 950 c 128,-1,99
 455 950 455 950 418 933.5 c 128,-1,100
 381 917 381 917 354 889 c 128,-1,101
 327 861 327 861 312 823.5 c 128,-1,102
 297 786 297 786 297 743 c 2,103,-1
 297 721 l 2,83,84
EndSplineSet
Validated: 1
EndChar

StartChar: h
Encoding: 104 104 75
Width: 1024
GlyphClass: 2
Flags: W
LayerCount: 2
Fore
SplineSet
298 921 m 1,0,1
 346 1006 346 1006 417 1053.5 c 128,-1,2
 488 1101 488 1101 576 1102 c 0,3,4
 647 1102 647 1102 704.5 1077.5 c 128,-1,5
 762 1053 762 1053 802.5 1001 c 128,-1,6
 843 949 843 949 865.5 869.5 c 128,-1,7
 888 790 888 790 888 681 c 2,8,-1
 888 0 l 1,9,-1
 734 0 l 1,10,-1
 734 683 l 2,11,12
 734 816 734 816 681 880.5 c 128,-1,13
 628 945 628 945 530 945 c 0,14,15
 456 945 456 945 396 901.5 c 128,-1,16
 336 858 336 858 298 786 c 1,17,-1
 298 0 l 1,18,-1
 145 0 l 1,19,-1
 145 1476 l 1,20,-1
 298 1476 l 1,21,-1
 298 921 l 1,0,1
EndSplineSet
Validated: 1
EndChar

StartChar: i
Encoding: 105 105 76
Width: 1024
GlyphClass: 2
Flags: W
LayerCount: 2
Fore
SplineSet
169 1082 m 1,0,-1
 628 1082 l 1,1,-1
 628 160 l 1,2,-1
 922 160 l 1,3,-1
 922 0 l 1,4,-1
 169 0 l 1,5,-1
 169 160 l 1,6,-1
 475 160 l 1,7,-1
 475 921 l 1,8,-1
 169 921 l 1,9,-1
 169 1082 l 1,0,-1
466 1292 m 128,-1,11
 440 1322 440 1322 440 1367.5 c 128,-1,12
 440 1413 440 1413 466 1444.5 c 128,-1,13
 492 1476 492 1476 546 1476 c 128,-1,14
 600 1476 600 1476 627 1444.5 c 128,-1,15
 654 1413 654 1413 654 1367.5 c 128,-1,16
 654 1322 654 1322 627 1292 c 128,-1,17
 600 1262 600 1262 546 1262 c 128,-1,10
 492 1262 492 1262 466 1292 c 128,-1,11
EndSplineSet
Validated: 1
EndChar

StartChar: j
Encoding: 106 106 77
Width: 1024
GlyphClass: 2
Flags: W
LayerCount: 2
Fore
SplineSet
248 1082 m 1,0,-1
 702 1082 l 1,1,-1
 702 -7 l 2,2,3
 702 -111 702 -111 678.5 -191 c 128,-1,4
 655 -271 655 -271 609.5 -325.5 c 128,-1,5
 564 -380 564 -380 499 -408.5 c 128,-1,6
 434 -437 434 -437 351 -437 c 0,7,8
 304 -437 304 -437 262.5 -433.5 c 128,-1,9
 221 -430 221 -430 175 -420 c 1,10,-1
 186 -268 l 1,11,12
 200 -271 200 -271 221.5 -273.5 c 128,-1,13
 243 -276 243 -276 265.5 -277.5 c 128,-1,14
 288 -279 288 -279 308 -279.5 c 128,-1,15
 328 -280 328 -280 340 -280 c 0,16,17
 383 -280 383 -280 421.5 -266.5 c 128,-1,18
 460 -253 460 -253 488 -221 c 128,-1,19
 516 -189 516 -189 532 -136.5 c 128,-1,20
 548 -84 548 -84 548 -7 c 2,21,-1
 548 921 l 1,22,-1
 248 921 l 1,23,-1
 248 1082 l 1,0,-1
512 1368 m 128,-1,25
 512 1413 512 1413 538 1444.5 c 128,-1,26
 564 1476 564 1476 618 1476 c 128,-1,27
 672 1476 672 1476 699 1444.5 c 128,-1,28
 726 1413 726 1413 726 1368 c 128,-1,29
 726 1323 726 1323 699 1292.5 c 128,-1,30
 672 1262 672 1262 617.5 1262 c 128,-1,31
 563 1262 563 1262 537.5 1292.5 c 128,-1,24
 512 1323 512 1323 512 1368 c 128,-1,25
EndSplineSet
Validated: 1
EndChar

StartChar: k
Encoding: 107 107 78
Width: 1024
GlyphClass: 2
Flags: W
LayerCount: 2
Fore
SplineSet
414 505 m 1,0,-1
 301 374 l 1,1,-1
 301 0 l 1,2,-1
 146 0 l 1,3,-1
 146 1476 l 1,4,-1
 301 1476 l 1,5,-1
 301 596 l 1,6,-1
 401 726 l 1,7,-1
 696 1082 l 1,8,-1
 883 1082 l 1,9,-1
 519 631 l 1,10,-1
 939 0 l 1,11,-1
 744 0 l 1,12,-1
 414 505 l 1,0,-1
EndSplineSet
Validated: 1
EndChar

StartChar: l
Encoding: 108 108 79
Width: 1024
GlyphClass: 2
Flags: W
LayerCount: 2
Fore
SplineSet
169 1476 m 1,0,-1
 628 1476 l 1,1,-1
 628 160 l 1,2,-1
 922 160 l 1,3,-1
 922 0 l 1,4,-1
 169 0 l 1,5,-1
 169 160 l 1,6,-1
 475 160 l 1,7,-1
 475 1315 l 1,8,-1
 169 1315 l 1,9,-1
 169 1476 l 1,0,-1
EndSplineSet
Validated: 1
EndChar

StartChar: m
Encoding: 109 109 80
Width: 1024
GlyphClass: 2
Flags: W
LayerCount: 2
Fore
SplineSet
215 1082 m 1,0,-1
 219 980 l 1,1,2
 246 1037 246 1037 291 1069 c 128,-1,3
 336 1101 336 1101 399 1102 c 0,4,5
 523 1102 523 1102 564 986 c 1,6,7
 591 1038 591 1038 634.5 1069.5 c 128,-1,8
 678 1101 678 1101 740 1102 c 0,9,10
 839 1102 839 1102 892.5 1029 c 128,-1,11
 946 956 946 956 946 808 c 2,12,-1
 946 0 l 1,13,-1
 799 0 l 1,14,-1
 799 810 l 2,15,16
 799 945 799 945 696 945 c 0,17,18
 669 945 669 945 648.5 936 c 128,-1,19
 628 927 628 927 615 911.5 c 128,-1,20
 602 896 602 896 594.5 875.5 c 128,-1,21
 587 855 587 855 584 833 c 2,22,-1
 584 0 l 1,23,-1
 438 0 l 1,24,-1
 438 811 l 2,25,26
 438 876 438 876 414 910.5 c 128,-1,27
 390 945 390 945 337 945 c 0,28,29
 289 945 289 945 262.5 922 c 128,-1,30
 236 899 236 899 224 861 c 1,31,-1
 224 0 l 1,32,-1
 77 0 l 1,33,-1
 77 1082 l 1,34,-1
 215 1082 l 1,0,-1
EndSplineSet
Validated: 1
EndChar

StartChar: n
Encoding: 110 110 81
Width: 1024
GlyphClass: 2
Flags: W
LayerCount: 2
Fore
SplineSet
283 1082 m 1,0,-1
 293 922 l 1,1,2
 342 1006 342 1006 413.5 1053.5 c 128,-1,3
 485 1101 485 1101 573 1102 c 0,4,5
 644 1102 644 1102 702 1078 c 128,-1,6
 760 1054 760 1054 800.5 1003 c 128,-1,7
 841 952 841 952 863 873.5 c 128,-1,8
 885 795 885 795 885 687 c 2,9,-1
 885 0 l 1,10,-1
 731 0 l 1,11,-1
 731 683 l 2,12,13
 731 755 731 755 718 805 c 128,-1,14
 705 855 705 855 678.5 886 c 128,-1,15
 652 917 652 917 614.5 931 c 128,-1,16
 577 945 577 945 528 945 c 0,17,18
 451 945 451 945 392 898.5 c 128,-1,19
 333 852 333 852 298 776 c 1,20,-1
 298 0 l 1,21,-1
 145 0 l 1,22,-1
 145 1082 l 1,23,-1
 283 1082 l 1,0,-1
EndSplineSet
Validated: 1
EndChar

StartChar: o
Encoding: 111 111 82
Width: 1024
GlyphClass: 2
Flags: W
LayerCount: 2
Fore
SplineSet
101 551 m 2,0,1
 101 668 101 668 129.5 768.5 c 128,-1,2
 158 869 158 869 210.5 943 c 128,-1,3
 263 1017 263 1017 339 1059.5 c 128,-1,4
 415 1102 415 1102 509 1102 c 0,5,6
 605 1102 605 1102 681 1059.5 c 128,-1,7
 757 1017 757 1017 810 943 c 128,-1,8
 863 869 863 869 891 768.5 c 128,-1,9
 919 668 919 668 919 551 c 2,10,-1
 919 529 l 2,11,12
 919 412 919 412 891 312 c 128,-1,13
 863 212 863 212 810 138 c 128,-1,14
 757 64 757 64 681.5 22 c 128,-1,15
 606 -20 606 -20 511 -20 c 0,16,17
 415 -20 415 -20 339 22 c 128,-1,18
 263 64 263 64 210.5 138 c 128,-1,19
 158 212 158 212 129.5 312 c 128,-1,20
 101 412 101 412 101 529 c 2,21,-1
 101 551 l 2,0,1
255 529 m 2,22,23
 255 449 255 449 271 376.5 c 128,-1,24
 287 304 287 304 319 249 c 128,-1,25
 351 194 351 194 399 162 c 128,-1,26
 447 130 447 130 511 130 c 0,27,28
 574 130 574 130 622 162 c 128,-1,29
 670 194 670 194 702 249 c 128,-1,30
 734 304 734 304 749.5 376.5 c 128,-1,31
 765 449 765 449 765 529 c 2,32,-1
 765 551 l 2,33,34
 765 630 765 630 749 702.5 c 128,-1,35
 733 775 733 775 701 830 c 128,-1,36
 669 885 669 885 621 917.5 c 128,-1,37
 573 950 573 950 509 950 c 256,38,39
 445 950 445 950 398 917.5 c 128,-1,40
 351 885 351 885 319 830 c 128,-1,41
 287 775 287 775 271 702.5 c 128,-1,42
 255 630 255 630 255 551 c 2,43,-1
 255 529 l 2,22,23
EndSplineSet
Validated: 1
EndChar

StartChar: p
Encoding: 112 112 83
Width: 1024
GlyphClass: 2
Flags: W
LayerCount: 2
Fore
SplineSet
903 529 m 2,0,1
 903 413 903 413 880 312.5 c 128,-1,2
 857 212 857 212 812 138 c 128,-1,3
 767 64 767 64 701 22 c 128,-1,4
 635 -20 635 -20 550 -20 c 0,5,6
 468 -20 468 -20 405 12 c 128,-1,7
 342 44 342 44 297 104 c 1,8,-1
 297 -416 l 1,9,-1
 144 -416 l 1,10,-1
 144 1082 l 1,11,-1
 284 1082 l 1,12,-1
 292 964 l 1,13,14
 337 1031 337 1031 400.5 1066.5 c 128,-1,15
 464 1102 464 1102 548 1102 c 0,16,17
 634 1102 634 1102 700.5 1061 c 128,-1,18
 767 1020 767 1020 812 947 c 128,-1,19
 857 874 857 874 880 772.5 c 128,-1,20
 903 671 903 671 903 550 c 2,21,-1
 903 529 l 2,0,1
750 550 m 2,22,23
 750 629 750 629 735 700.5 c 128,-1,24
 720 772 720 772 690 826.5 c 128,-1,25
 660 881 660 881 613.5 913 c 128,-1,26
 567 945 567 945 502 945 c 0,27,28
 428 945 428 945 377.5 903.5 c 128,-1,29
 327 862 327 862 297 797 c 1,30,-1
 297 276 l 1,31,32
 327 212 327 212 377 171.5 c 128,-1,33
 427 131 427 131 504 131 c 0,34,35
 568 131 568 131 614.5 163.5 c 128,-1,36
 661 196 661 196 690.5 251 c 128,-1,37
 720 306 720 306 735 378 c 128,-1,38
 750 450 750 450 750 529 c 2,39,-1
 750 550 l 2,22,23
EndSplineSet
Validated: 1
EndChar

StartChar: q
Encoding: 113 113 84
Width: 1024
GlyphClass: 2
Flags: W
LayerCount: 2
Fore
SplineSet
116 550 m 2,0,1
 116 671 116 671 140.5 772.5 c 128,-1,2
 165 874 165 874 211.5 947 c 128,-1,3
 258 1020 258 1020 325.5 1061 c 128,-1,4
 393 1102 393 1102 479 1102 c 0,5,6
 559 1102 559 1102 620 1069.5 c 128,-1,7
 681 1037 681 1037 726 975 c 1,8,-1
 733 1082 l 1,9,-1
 874 1082 l 1,10,-1
 874 -416 l 1,11,-1
 720 -416 l 1,12,-1
 720 98 l 1,13,14
 675 41 675 41 615.5 10.5 c 128,-1,15
 556 -20 556 -20 478 -20 c 0,16,17
 392 -20 392 -20 325 22 c 128,-1,18
 258 64 258 64 211.5 138 c 128,-1,19
 165 212 165 212 140.5 312.5 c 128,-1,20
 116 413 116 413 116 529 c 2,21,-1
 116 550 l 2,0,1
270 529 m 2,22,23
 270 450 270 450 284.5 378 c 128,-1,24
 299 306 299 306 329 251 c 128,-1,25
 359 196 359 196 405 163.5 c 128,-1,26
 451 131 451 131 515 131 c 0,27,28
 589 131 589 131 639 171 c 128,-1,29
 689 211 689 211 720 275 c 1,30,-1
 720 809 l 1,31,32
 704 840 704 840 684 865.5 c 128,-1,33
 664 891 664 891 638.5 910 c 128,-1,34
 613 929 613 929 583 939.5 c 128,-1,35
 553 950 553 950 517 950 c 0,36,37
 453 950 453 950 406.5 917 c 128,-1,38
 360 884 360 884 329.5 828.5 c 128,-1,39
 299 773 299 773 284.5 701 c 128,-1,40
 270 629 270 629 270 550 c 2,41,-1
 270 529 l 2,22,23
EndSplineSet
Validated: 1
EndChar

StartChar: r
Encoding: 114 114 85
Width: 1024
GlyphClass: 2
Flags: W
LayerCount: 2
Fore
SplineSet
734 1102 m 0,0,1
 756 1102 756 1102 779 1100.5 c 128,-1,2
 802 1099 802 1099 823 1095.5 c 128,-1,3
 844 1092 844 1092 862 1087 c 128,-1,4
 880 1082 880 1082 892 1076 c 1,5,-1
 871 895 l 1,6,7
 826 907 826 907 785.5 912.5 c 128,-1,8
 745 918 745 918 701 918 c 0,9,10
 593 918 593 918 526.5 859 c 128,-1,11
 460 800 460 800 428 694 c 1,12,-1
 428 0 l 1,13,-1
 273 0 l 1,14,-1
 273 1082 l 1,15,-1
 420 1082 l 1,16,-1
 427 910 l 1,17,18
 482 999 482 999 559 1050.5 c 128,-1,19
 636 1102 636 1102 734 1102 c 0,0,1
EndSplineSet
Validated: 1
EndChar

StartChar: s
Encoding: 115 115 86
Width: 1024
GlyphClass: 2
Flags: W
LayerCount: 2
Fore
SplineSet
742 287 m 0,0,1
 742 320 742 320 731 346.5 c 128,-1,2
 720 373 720 373 694.5 395 c 128,-1,3
 669 417 669 417 626.5 435.5 c 128,-1,4
 584 454 584 454 521 469 c 0,5,6
 444 488 444 488 380.5 515 c 128,-1,7
 317 542 317 542 271.5 579.5 c 128,-1,8
 226 617 226 617 201 667.5 c 128,-1,9
 176 718 176 718 176 785 c 0,10,11
 176 851 176 851 202 908.5 c 128,-1,12
 228 966 228 966 274.5 1009 c 128,-1,13
 321 1052 321 1052 385.5 1077 c 128,-1,14
 450 1102 450 1102 527 1102 c 0,15,16
 610 1102 610 1102 676.5 1076 c 128,-1,17
 743 1050 743 1050 789.5 1004 c 128,-1,18
 836 958 836 958 861.5 896.5 c 128,-1,19
 887 835 887 835 887 764 c 1,20,-1
 733 764 l 1,21,22
 733 799 733 799 718 832.5 c 128,-1,23
 703 866 703 866 676.5 892 c 128,-1,24
 650 918 650 918 612 934 c 128,-1,25
 574 950 574 950 527 950 c 0,26,27
 478 950 478 950 441 937 c 128,-1,28
 404 924 404 924 379.5 902 c 128,-1,29
 355 880 355 880 342.5 851 c 128,-1,30
 330 822 330 822 330 791 c 0,31,32
 330 759 330 759 340 734 c 128,-1,33
 350 709 350 709 374.5 689 c 128,-1,34
 399 669 399 669 440 653 c 128,-1,35
 481 637 481 637 544 622 c 0,36,37
 627 601 627 601 693 573.5 c 128,-1,38
 759 546 759 546 803.5 507.5 c 128,-1,39
 848 469 848 469 872 418 c 128,-1,40
 896 367 896 367 896 300 c 0,41,42
 896 228 896 228 869 169 c 128,-1,43
 842 110 842 110 793.5 68 c 128,-1,44
 745 26 745 26 678 3 c 128,-1,45
 611 -20 611 -20 531 -20 c 0,46,47
 440 -20 440 -20 368.5 9.5 c 128,-1,48
 297 39 297 39 247.5 87.5 c 128,-1,49
 198 136 198 136 171.5 200 c 128,-1,50
 145 264 145 264 145 333 c 1,51,-1
 299 333 l 1,52,53
 302 276 302 276 324.5 237 c 128,-1,54
 347 198 347 198 379.5 174 c 128,-1,55
 412 150 412 150 452 140 c 128,-1,56
 492 130 492 130 531 130 c 0,57,58
 628 130 628 130 684.5 173 c 128,-1,59
 741 216 741 216 742 287 c 0,0,1
EndSplineSet
Validated: 1
EndChar

StartChar: t
Encoding: 116 116 87
Width: 1024
GlyphClass: 2
Flags: W
LayerCount: 2
Fore
SplineSet
509 1344 m 1,0,-1
 509 1082 l 1,1,-1
 851 1082 l 1,2,-1
 851 939 l 1,3,-1
 509 939 l 1,4,-1
 509 351 l 2,5,6
 509 288 509 288 522 247 c 128,-1,7
 535 206 535 206 558.5 181.5 c 128,-1,8
 582 157 582 157 612 147 c 128,-1,9
 642 137 642 137 676 137 c 0,10,11
 701 137 701 137 728 140.5 c 128,-1,12
 755 144 755 144 780 149 c 128,-1,13
 805 154 805 154 827 159.5 c 128,-1,14
 849 165 849 165 863 169 c 1,15,-1
 885 38 l 1,16,17
 866 24 866 24 838.5 13.5 c 128,-1,18
 811 3 811 3 778.5 -4.5 c 128,-1,19
 746 -12 746 -12 710 -16 c 128,-1,20
 674 -20 674 -20 638 -20 c 0,21,22
 578 -20 578 -20 526.5 0.5 c 128,-1,23
 475 21 475 21 436.5 65.5 c 128,-1,24
 398 110 398 110 376 180.5 c 128,-1,25
 354 251 354 251 354 351 c 2,26,-1
 354 939 l 1,27,-1
 118 939 l 1,28,-1
 118 1082 l 1,29,-1
 354 1082 l 1,30,-1
 354 1344 l 1,31,-1
 509 1344 l 1,0,-1
EndSplineSet
Validated: 1
EndChar

StartChar: u
Encoding: 117 117 88
Width: 1024
GlyphClass: 2
Flags: W
LayerCount: 2
Fore
SplineSet
728 149 m 1,0,1
 683 69 683 69 615.5 24.5 c 128,-1,2
 548 -20 548 -20 460 -20 c 0,3,4
 389 -20 389 -20 332 6.5 c 128,-1,5
 275 33 275 33 234.5 89 c 128,-1,6
 194 145 194 145 172 231.5 c 128,-1,7
 150 318 150 318 150 439 c 2,8,-1
 150 1082 l 1,9,-1
 303 1082 l 1,10,-1
 303 437 l 2,11,12
 303 349 303 349 315 291 c 128,-1,13
 327 233 327 233 350 198.5 c 128,-1,14
 373 164 373 164 406.5 150 c 128,-1,15
 440 136 440 136 484 136 c 0,16,17
 578 136 578 136 636 182 c 128,-1,18
 694 228 694 228 722 306 c 1,19,-1
 722 1082 l 1,20,-1
 877 1082 l 1,21,-1
 877 0 l 1,22,-1
 737 0 l 1,23,-1
 728 149 l 1,0,1
EndSplineSet
Validated: 1
EndChar

StartChar: v
Encoding: 118 118 89
Width: 1024
GlyphClass: 2
Flags: W
LayerCount: 2
Fore
SplineSet
497 266 m 1,0,-1
 511 199 l 1,1,-1
 526 266 l 1,2,-1
 778 1082 l 1,3,-1
 935 1082 l 1,4,-1
 568 0 l 1,5,-1
 451 0 l 1,6,-1
 81 1082 l 1,7,-1
 239 1082 l 1,8,-1
 497 266 l 1,0,-1
EndSplineSet
Validated: 1
EndChar

StartChar: w
Encoding: 119 119 90
Width: 1024
GlyphClass: 2
Flags: W
LayerCount: 2
Fore
SplineSet
281 392 m 1,0,-1
 299 237 l 1,1,-1
 322 392 l 1,2,-1
 465 1082 l 1,3,-1
 564 1082 l 1,4,-1
 707 392 l 1,5,-1
 731 222 l 1,6,-1
 754 392 l 1,7,-1
 853 1082 l 1,8,-1
 990 1082 l 1,9,-1
 799 0 l 1,10,-1
 677 0 l 1,11,-1
 537 663 l 1,12,-1
 514 831 l 1,13,-1
 491 663 l 1,14,-1
 352 0 l 1,15,-1
 231 0 l 1,16,-1
 40 1082 l 1,17,-1
 176 1082 l 1,18,-1
 281 392 l 1,0,-1
EndSplineSet
Validated: 1
EndChar

StartChar: x
Encoding: 120 120 91
Width: 1024
GlyphClass: 2
Flags: W
LayerCount: 2
Fore
SplineSet
516 681 m 1,0,-1
 756 1082 l 1,1,-1
 937 1082 l 1,2,-1
 602 547 l 1,3,-1
 946 0 l 1,4,-1
 768 0 l 1,5,-1
 519 412 l 1,6,-1
 271 0 l 1,7,-1
 91 0 l 1,8,-1
 435 547 l 1,9,-1
 101 1082 l 1,10,-1
 278 1082 l 1,11,-1
 516 681 l 1,0,-1
EndSplineSet
Validated: 1
EndChar

StartChar: y
Encoding: 121 121 92
Width: 1024
GlyphClass: 2
Flags: W
LayerCount: 2
Fore
SplineSet
475 384 m 1,0,-1
 515 253 l 1,1,-1
 789 1082 l 1,2,-1
 961 1082 l 1,3,-1
 505 -167 l 2,4,5
 489 -209 489 -209 464.5 -256 c 128,-1,6
 440 -303 440 -303 405.5 -343 c 128,-1,7
 371 -383 371 -383 324.5 -410 c 128,-1,8
 278 -437 278 -437 217 -437 c 0,9,10
 206 -437 206 -437 192.5 -435.5 c 128,-1,11
 179 -434 179 -434 166 -431.5 c 128,-1,12
 153 -429 153 -429 141.5 -426 c 128,-1,13
 130 -423 130 -423 122 -421 c 1,14,-1
 147 -270 l 1,15,16
 153 -270 153 -270 163 -271 c 128,-1,17
 173 -272 173 -272 183.5 -273 c 128,-1,18
 194 -274 194 -274 204 -274.5 c 128,-1,19
 214 -275 214 -275 220 -275 c 0,20,21
 252 -275 252 -275 278 -254 c 128,-1,22
 304 -233 304 -233 324.5 -204 c 128,-1,23
 345 -175 345 -175 359.5 -144 c 128,-1,24
 374 -113 374 -113 382 -93 c 2,25,-1
 444 51 l 1,26,-1
 57 1082 l 1,27,-1
 229 1082 l 1,28,-1
 475 384 l 1,0,-1
EndSplineSet
Validated: 1
EndChar

StartChar: z
Encoding: 122 122 93
Width: 1024
GlyphClass: 2
Flags: W
LayerCount: 2
Fore
SplineSet
329 151 m 1,0,-1
 902 151 l 1,1,-1
 902 0 l 1,2,-1
 133 0 l 1,3,-1
 133 136 l 1,4,-1
 670 929 l 1,5,-1
 140 929 l 1,6,-1
 140 1082 l 1,7,-1
 872 1082 l 1,8,-1
 872 951 l 1,9,-1
 329 151 l 1,0,-1
EndSplineSet
Validated: 1
EndChar

StartChar: braceleft
Encoding: 123 123 94
Width: 1024
GlyphClass: 2
Flags: W
LayerCount: 2
Fore
SplineSet
376 192 m 2,0,1
 376 448 l 0,2,3
 376 528 376 528 320 584 c 128,-1,4
 264 640 264 640 184 640 c 1,5,-1
 184 768 l 1,6,7
 264 768 264 768 320 824 c 128,-1,8
 376 880 376 880 376 960 c 2,9,-1
 376 1216 l 2,10,11
 376 1376 376 1376 488 1488 c 128,-1,12
 600 1600 600 1600 760 1600 c 2,13,-1
 840 1600 l 1,14,-1
 840 1472 l 1,15,-1
 776 1472 l 2,16,17
 670 1472 670 1472 595 1397 c 128,-1,18
 520 1322 520 1322 520 1216 c 2,19,-1
 520 960 l 2,20,21
 520 798 520 798 408 704 c 1,22,23
 520 610 520 610 520 448 c 2,24,-1
 520 192 l 2,25,26
 520 86 520 86 595 11 c 128,-1,27
 670 -64 670 -64 776 -64 c 2,28,-1
 832 -64 l 1,29,-1
 832 -192 l 1,30,-1
 760 -192 l 2,31,32
 600 -192 600 -192 488 -80 c 128,-1,33
 376 32 376 32 376 192 c 2,0,1
EndSplineSet
Validated: 1
EndChar

StartChar: bar
Encoding: 124 124 95
Width: 1024
GlyphClass: 2
Flags: W
LayerCount: 2
Fore
SplineSet
576 -128 m 1,0,-1
 448 -128 l 1,1,-1
 448 1536 l 1,2,-1
 576 1536 l 1,3,-1
 576 -128 l 1,0,-1
EndSplineSet
Validated: 1
EndChar

StartChar: braceright
Encoding: 125 125 96
Width: 1024
GlyphClass: 2
Flags: W
LayerCount: 2
Fore
SplineSet
648 1216 m 2,0,1
 648 960 l 0,2,3
 648 880 648 880 704 824 c 128,-1,4
 760 768 760 768 840 768 c 1,5,-1
 840 640 l 1,6,7
 760 640 760 640 704 584 c 128,-1,8
 648 528 648 528 648 448 c 2,9,-1
 648 192 l 2,10,11
 648 32 648 32 536 -80 c 128,-1,12
 424 -192 424 -192 264 -192 c 2,13,-1
 184 -192 l 1,14,-1
 184 -64 l 1,15,-1
 248 -64 l 2,16,17
 354 -64 354 -64 429 11 c 128,-1,18
 504 86 504 86 504 192 c 2,19,-1
 504 448 l 2,20,21
 504 610 504 610 616 704 c 1,22,23
 504 798 504 798 504 960 c 2,24,-1
 504 1216 l 2,25,26
 504 1322 504 1322 429 1397 c 128,-1,27
 354 1472 354 1472 248 1472 c 2,28,-1
 192 1472 l 1,29,-1
 192 1600 l 1,30,-1
 264 1600 l 2,31,32
 424 1600 424 1600 536 1488 c 128,-1,33
 648 1376 648 1376 648 1216 c 2,0,1
EndSplineSet
Validated: 1
EndChar

StartChar: asciitilde
Encoding: 126 126 97
Width: 1024
GlyphClass: 2
Flags: W
LayerCount: 2
Fore
SplineSet
984 832 m 1,0,1
 984 697 984 697 901.5 604.5 c 128,-1,2
 819 512 819 512 708 512 c 128,-1,3
 597 512 597 512 486.5 640 c 128,-1,4
 376 768 376 768 300 768 c 128,-1,5
 224 768 224 768 188 709.5 c 128,-1,6
 152 651 152 651 152 576 c 1,7,-1
 40 576 l 1,8,9
 40 711 40 711 122.5 803.5 c 128,-1,10
 205 896 205 896 316 896 c 128,-1,11
 427 896 427 896 537.5 768 c 128,-1,12
 648 640 648 640 724 640 c 128,-1,13
 800 640 800 640 836 698.5 c 128,-1,14
 872 757 872 757 872 832 c 1,15,-1
 984 832 l 1,0,1
EndSplineSet
Validated: 1
EndChar

StartChar: exclamdown
Encoding: 161 161 99
Width: 1024
GlyphClass: 2
Flags: W
LayerCount: 2
Fore
SplineSet
433 611 m 1,0,-1
 587 611 l 1,1,-1
 587 -372 l 1,2,-1
 433 -372 l 1,3,-1
 433 611 l 1,0,-1
579.5 1070.5 m 128,-1,5
 604 1038 604 1038 604 991 c 128,-1,6
 604 944 604 944 579.5 912.5 c 128,-1,7
 555 881 555 881 508.5 881 c 128,-1,8
 462 881 462 881 437.5 912.5 c 128,-1,9
 413 944 413 944 413 991 c 128,-1,10
 413 1038 413 1038 437.5 1070.5 c 128,-1,11
 462 1103 462 1103 508.5 1103 c 128,-1,4
 555 1103 555 1103 579.5 1070.5 c 128,-1,5
EndSplineSet
Validated: 1
EndChar

StartChar: cent
Encoding: 162 162 100
Width: 1024
GlyphClass: 2
Flags: W
LayerCount: 2
Fore
SplineSet
531 130 m 0,0,1
 573 130 573 130 612.5 146 c 128,-1,2
 652 162 652 162 682.5 190.5 c 128,-1,3
 713 219 713 219 731.5 257.5 c 128,-1,4
 750 296 750 296 751 341 c 1,5,-1
 897 341 l 1,6,7
 896 277 896 277 872 218.5 c 128,-1,8
 848 160 848 160 807 112.5 c 128,-1,9
 766 65 766 65 711.5 32 c 128,-1,10
 657 -1 657 -1 597 -13 c 1,11,-1
 597 -245 l 1,12,-1
 443 -245 l 1,13,-1
 443 -10 l 1,14,15
 363 8 363 8 303 57.5 c 128,-1,16
 243 107 243 107 203 178 c 128,-1,17
 163 249 163 249 142.5 337 c 128,-1,18
 122 425 122 425 122 520 c 2,19,-1
 122 562 l 2,20,21
 122 657 122 657 142.5 744.5 c 128,-1,22
 163 832 163 832 203 903.5 c 128,-1,23
 243 975 243 975 303 1024.5 c 128,-1,24
 363 1074 363 1074 443 1092 c 1,25,-1
 443 1318 l 1,26,-1
 597 1318 l 1,27,-1
 597 1096 l 1,28,29
 663 1084 663 1084 718 1049.5 c 128,-1,30
 773 1015 773 1015 813 964 c 128,-1,31
 853 913 853 913 875 848 c 128,-1,32
 897 783 897 783 897 710 c 1,33,-1
 751 710 l 1,34,35
 750 759 750 759 733 802.5 c 128,-1,36
 716 846 716 846 687 879 c 128,-1,37
 658 912 658 912 618 931 c 128,-1,38
 578 950 578 950 531 950 c 0,39,40
 460 950 460 950 411 915.5 c 128,-1,41
 362 881 362 881 332 825.5 c 128,-1,42
 302 770 302 770 289.5 701 c 128,-1,43
 277 632 277 632 277 562 c 2,44,-1
 277 520 l 2,45,46
 277 449 277 449 289.5 379.5 c 128,-1,47
 302 310 302 310 331.5 254.5 c 128,-1,48
 361 199 361 199 410 164.5 c 128,-1,49
 459 130 459 130 531 130 c 0,0,1
EndSplineSet
Validated: 1
EndChar

StartChar: sterling
Encoding: 163 163 101
Width: 1024
GlyphClass: 2
Flags: W
LayerCount: 2
Fore
SplineSet
385 626 m 1,0,-1
 391 400 l 2,1,2
 391 331 391 331 379 265 c 128,-1,3
 367 199 367 199 341 151 c 1,4,-1
 954 151 l 1,5,-1
 953 0 l 1,6,-1
 97 0 l 1,7,-1
 97 151 l 1,8,-1
 160 151 l 1,9,10
 182 158 182 158 197.5 186 c 128,-1,11
 213 214 213 214 222 250.5 c 128,-1,12
 231 287 231 287 234.5 327.5 c 128,-1,13
 238 368 238 368 238 400 c 2,14,-1
 231 626 l 1,15,-1
 94 626 l 1,16,-1
 94 778 l 1,17,-1
 227 778 l 1,18,-1
 219 1039 l 2,19,20
 219 1141 219 1141 247 1222 c 128,-1,21
 275 1303 275 1303 324 1359.5 c 128,-1,22
 373 1416 373 1416 441 1446 c 128,-1,23
 509 1476 509 1476 589 1476 c 256,24,25
 669 1476 669 1476 732 1448 c 128,-1,26
 795 1420 795 1420 839 1369 c 128,-1,27
 883 1318 883 1318 906 1247 c 128,-1,28
 929 1176 929 1176 929 1089 c 1,29,-1
 774 1089 l 1,30,31
 774 1152 774 1152 758 1196.5 c 128,-1,32
 742 1241 742 1241 714 1269.5 c 128,-1,33
 686 1298 686 1298 650 1311.5 c 128,-1,34
 614 1325 614 1325 574 1325 c 0,35,36
 532 1325 532 1325 495 1305.5 c 128,-1,37
 458 1286 458 1286 431.5 1249.5 c 128,-1,38
 405 1213 405 1213 389.5 1159.5 c 128,-1,39
 374 1106 374 1106 374 1039 c 2,40,-1
 381 778 l 1,41,-1
 647 778 l 1,42,-1
 647 626 l 1,43,-1
 385 626 l 1,0,-1
EndSplineSet
Validated: 1
EndChar

StartChar: currency
Encoding: 164 164 102
Width: 1024
GlyphClass: 2
Flags: W
LayerCount: 2
Fore
SplineSet
774 84 m 1,0,1
 722 34 722 34 659.5 7 c 128,-1,2
 597 -20 597 -20 527 -20 c 0,3,4
 456 -20 456 -20 394 7 c 128,-1,5
 332 34 332 34 281 82 c 1,6,-1
 194 -26 l 1,7,-1
 86 109 l 1,8,-1
 179 224 l 1,9,10
 147 287 147 287 130.5 360.5 c 128,-1,11
 114 434 114 434 114 515 c 0,12,13
 114 601 114 601 132 678 c 128,-1,14
 150 755 150 755 185 820 c 1,15,-1
 86 944 l 1,16,-1
 194 1079 l 1,17,-1
 292 957 l 1,18,19
 342 1001 342 1001 401 1025 c 128,-1,20
 460 1049 460 1049 527 1049 c 0,21,22
 593 1049 593 1049 653 1024.5 c 128,-1,23
 713 1000 713 1000 763 955 c 1,24,-1
 863 1080 l 1,25,-1
 972 944 l 1,26,-1
 869 816 l 1,27,28
 902 752 902 752 920.5 676 c 128,-1,29
 939 600 939 600 939 515 c 0,30,31
 939 435 939 435 922.5 362.5 c 128,-1,32
 906 290 906 290 876 228 c 1,33,-1
 972 109 l 1,34,-1
 863 -27 l 1,35,-1
 774 84 l 1,0,1
257 515 m 256,36,37
 257 441 257 441 277.5 375 c 128,-1,38
 298 309 298 309 334.5 259.5 c 128,-1,39
 371 210 371 210 420.5 180.5 c 128,-1,40
 470 151 470 151 527 151 c 256,41,42
 584 151 584 151 633 180.5 c 128,-1,43
 682 210 682 210 718.5 259.5 c 128,-1,44
 755 309 755 309 775 375 c 128,-1,45
 795 441 795 441 795 515 c 256,46,47
 795 589 795 589 775 655 c 128,-1,48
 755 721 755 721 718.5 770.5 c 128,-1,49
 682 820 682 820 633 849 c 128,-1,50
 584 878 584 878 527 878 c 256,51,52
 470 878 470 878 420.5 849 c 128,-1,53
 371 820 371 820 334.5 770.5 c 128,-1,54
 298 721 298 721 277.5 655 c 128,-1,55
 257 589 257 589 257 515 c 256,36,37
EndSplineSet
Validated: 1
EndChar

StartChar: yen
Encoding: 165 165 103
Width: 1024
GlyphClass: 2
Flags: W
LayerCount: 2
Fore
SplineSet
65 1456 m 1,0,-1
 213 1456 l 1,1,-1
 512 864 l 1,2,-1
 811 1456 l 1,3,-1
 959 1456 l 1,4,-1
 660 864 l 1,5,-1
 912 864 l 1,6,-1
 912 736 l 1,7,-1
 592 736 l 1,8,-1
 592 544 l 1,9,-1
 912 544 l 1,10,-1
 912 416 l 1,11,-1
 592 416 l 1,12,-1
 592 0 l 1,13,-1
 432 0 l 1,14,-1
 432 416 l 1,15,-1
 112 416 l 1,16,-1
 112 544 l 1,17,-1
 432 544 l 1,18,-1
 432 736 l 1,19,-1
 112 736 l 1,20,-1
 112 864 l 1,21,-1
 366 864 l 1,22,-1
 65 1456 l 1,0,-1
EndSplineSet
Validated: 1
EndChar

StartChar: brokenbar
Encoding: 166 166 104
Width: 1024
GlyphClass: 2
Flags: W
LayerCount: 2
Fore
SplineSet
576 -128 m 1,0,-1
 448 -128 l 1,1,-1
 448 576 l 1,2,-1
 576 576 l 1,3,-1
 576 -128 l 1,0,-1
448 832 m 1,4,-1
 448 1536 l 1,5,-1
 576 1536 l 1,6,-1
 576 832 l 1,7,-1
 448 832 l 1,4,-1
EndSplineSet
Validated: 1
EndChar

StartChar: section
Encoding: 167 167 105
Width: 1024
GlyphClass: 2
Flags: W
LayerCount: 2
Fore
SplineSet
947 561 m 0,0,1
 947 476 947 476 906.5 416 c 128,-1,2
 866 356 866 356 793 320 c 1,3,4
 850 278 850 278 880.5 219 c 128,-1,5
 911 160 911 160 911 72 c 0,6,7
 911 -5 911 -5 881.5 -64.5 c 128,-1,8
 852 -124 852 -124 798.5 -165 c 128,-1,9
 745 -206 745 -206 670.5 -227.5 c 128,-1,10
 596 -249 596 -249 505 -249 c 0,11,12
 424 -249 424 -249 346 -229.5 c 128,-1,13
 268 -210 268 -210 207.5 -165.5 c 128,-1,14
 147 -121 147 -121 109.5 -49 c 128,-1,15
 72 23 72 23 72 128 c 1,16,-1
 226 130 l 1,17,18
 226 62 226 62 251 15 c 128,-1,19
 276 -32 276 -32 316 -61.5 c 128,-1,20
 356 -91 356 -91 405.5 -103.5 c 128,-1,21
 455 -116 455 -116 505 -116 c 0,22,23
 563 -116 563 -116 609.5 -102 c 128,-1,24
 656 -88 656 -88 689 -63.5 c 128,-1,25
 722 -39 722 -39 739.5 -5 c 128,-1,26
 757 29 757 29 757 70 c 0,27,28
 757 112 757 112 741 143 c 128,-1,29
 725 174 725 174 690.5 198.5 c 128,-1,30
 656 223 656 223 600.5 246 c 128,-1,31
 545 269 545 269 465 294 c 0,32,33
 377 319 377 319 305.5 349.5 c 128,-1,34
 234 380 234 380 183 423 c 128,-1,35
 132 466 132 466 104.5 524.5 c 128,-1,36
 77 583 77 583 77 666 c 0,37,38
 77 748 77 748 117 809 c 128,-1,39
 157 870 157 870 229 906 c 1,40,41
 174 949 174 949 144.5 1008.5 c 128,-1,42
 115 1068 115 1068 115 1155 c 0,43,44
 115 1229 115 1229 144.5 1288 c 128,-1,45
 174 1347 174 1347 227 1389 c 128,-1,46
 280 1431 280 1431 355 1453.5 c 128,-1,47
 430 1476 430 1476 520 1476 c 0,48,49
 615 1476 615 1476 690.5 1451 c 128,-1,50
 766 1426 766 1426 819 1378 c 128,-1,51
 872 1330 872 1330 900.5 1259.5 c 128,-1,52
 929 1189 929 1189 929 1098 c 1,53,-1
 775 1098 l 1,54,55
 775 1149 775 1149 758 1194 c 128,-1,56
 741 1239 741 1239 708.5 1272 c 128,-1,57
 676 1305 676 1305 628.5 1324 c 128,-1,58
 581 1343 581 1343 520 1343 c 0,59,60
 458 1343 458 1343 411 1328.5 c 128,-1,61
 364 1314 364 1314 332 1289.5 c 128,-1,62
 300 1265 300 1265 284 1230.5 c 128,-1,63
 268 1196 268 1196 268 1157 c 0,64,65
 268 1111 268 1111 282.5 1079.5 c 128,-1,66
 297 1048 297 1048 330.5 1023.5 c 128,-1,67
 364 999 364 999 419.5 977.5 c 128,-1,68
 475 956 475 956 558 931 c 0,69,70
 648 905 648 905 720 874.5 c 128,-1,71
 792 844 792 844 842.5 802 c 128,-1,72
 893 760 893 760 920 701.5 c 128,-1,73
 947 643 947 643 947 561 c 0,0,1
497 789 m 0,74,75
 460 799 460 799 426 810 c 128,-1,76
 392 821 392 821 361 833 c 1,77,78
 296 817 296 817 263.5 773.5 c 128,-1,79
 231 730 231 730 231 668 c 0,80,81
 231 622 231 622 246 589.5 c 128,-1,82
 261 557 261 557 295 531 c 128,-1,83
 329 505 329 505 385.5 483 c 128,-1,84
 442 461 442 461 525 437 c 0,85,86
 562 426 562 426 595 415 c 128,-1,87
 628 404 628 404 659 392 c 1,88,89
 722 410 722 410 758 453 c 128,-1,90
 794 496 794 496 794 558 c 0,91,92
 794 600 794 600 777.5 632 c 128,-1,93
 761 664 761 664 725.5 690.5 c 128,-1,94
 690 717 690 717 633.5 740.5 c 128,-1,95
 577 764 577 764 497 789 c 0,74,75
EndSplineSet
Validated: 1
EndChar

StartChar: dieresis
Encoding: 168 168 106
Width: 1024
GlyphClass: 2
Flags: W
LayerCount: 2
Fore
SplineSet
600 1376 m 128,-1,1
 600 1422 600 1422 633 1455 c 128,-1,2
 666 1488 666 1488 712 1488 c 128,-1,3
 758 1488 758 1488 791 1455 c 128,-1,4
 824 1422 824 1422 824 1376 c 128,-1,5
 824 1330 824 1330 791 1297 c 128,-1,6
 758 1264 758 1264 712 1264 c 128,-1,7
 666 1264 666 1264 633 1297 c 128,-1,0
 600 1330 600 1330 600 1376 c 128,-1,1
200 1376 m 128,-1,9
 200 1422 200 1422 233 1455 c 128,-1,10
 266 1488 266 1488 312 1488 c 128,-1,11
 358 1488 358 1488 391 1455 c 128,-1,12
 424 1422 424 1422 424 1376 c 128,-1,13
 424 1330 424 1330 391 1297 c 128,-1,14
 358 1264 358 1264 312 1264 c 128,-1,15
 266 1264 266 1264 233 1297 c 128,-1,8
 200 1330 200 1330 200 1376 c 128,-1,9
EndSplineSet
Validated: 1
EndChar

StartChar: copyright
Encoding: 169 169 107
Width: 1024
GlyphClass: 2
Flags: W
LayerCount: 2
Fore
SplineSet
104 704 m 128,-1,1
 104 536 104 536 224 416 c 128,-1,2
 344 296 344 296 512 296 c 128,-1,3
 680 296 680 296 800 416 c 128,-1,4
 920 536 920 536 920 704 c 128,-1,5
 920 872 920 872 800 992 c 128,-1,6
 680 1112 680 1112 512 1112 c 128,-1,7
 344 1112 344 1112 224 992 c 128,-1,0
 104 872 104 872 104 704 c 128,-1,1
764 550 m 1,8,9
 676 416 676 416 520 416 c 0,10,11
 400 416 400 416 316 500 c 128,-1,12
 232 584 232 584 232 704 c 128,-1,13
 232 824 232 824 316 908 c 128,-1,14
 400 992 400 992 520 992 c 128,-1,15
 640 992 640 992 724 908 c 0,16,17
 765 867 765 867 786 817 c 1,18,-1
 698 779 l 1,19,20
 684 812 684 812 656 840 c 0,21,22
 600 896 600 896 520 896 c 128,-1,23
 440 896 440 896 384 840 c 128,-1,24
 328 784 328 784 328 704 c 128,-1,25
 328 624 328 624 384 568 c 128,-1,26
 440 512 440 512 533 512 c 0,27,28
 625 512 625 512 683 601 c 1,29,-1
 764 550 l 1,8,9
32 704 m 128,-1,31
 32 834 32 834 96 944 c 128,-1,32
 160 1054 160 1054 271 1119 c 128,-1,33
 382 1184 382 1184 512 1184 c 128,-1,34
 642 1184 642 1184 752 1120 c 128,-1,35
 862 1056 862 1056 927 945 c 128,-1,36
 992 834 992 834 992 704 c 128,-1,37
 992 574 992 574 928 464 c 128,-1,38
 864 354 864 354 753 289 c 128,-1,39
 642 224 642 224 512 224 c 128,-1,40
 382 224 382 224 272 288 c 128,-1,41
 162 352 162 352 97 463 c 128,-1,30
 32 574 32 574 32 704 c 128,-1,31
EndSplineSet
Validated: 1
EndChar

StartChar: ordfeminine
Encoding: 170 170 108
Width: 1024
GlyphClass: 2
Flags: W
LayerCount: 2
Fore
SplineSet
688 705 m 5,0,1
 673 749 673 749 667 802 c 5,2,3
 637 759 637 759 581 725.5 c 132,-1,4
 525 692 525 692 441 691 c 4,5,6
 323 691 323 691 257.5 752 c 132,-1,7
 192 813 192 813 192 918 c 4,8,9
 192 1030 192 1030 278.5 1089.5 c 132,-1,10
 365 1149 365 1149 523 1149 c 6,11,-1
 664 1149 l 5,12,-1
 664 1201 l 6,13,14
 663 1266 663 1266 632 1301 c 132,-1,15
 601 1336 601 1336 538 1336 c 4,16,17
 471 1336 471 1336 430.5 1309.5 c 132,-1,18
 390 1283 390 1283 389 1231 c 5,19,-1
 228 1243 l 5,20,21
 229 1294 229 1294 251.5 1337 c 132,-1,22
 274 1380 274 1380 314.5 1411 c 132,-1,23
 355 1442 355 1442 412 1459 c 132,-1,24
 469 1476 469 1476 538 1476 c 4,25,26
 603 1476 603 1476 656.5 1458.5 c 132,-1,27
 710 1441 710 1441 747.5 1406.5 c 132,-1,28
 785 1372 785 1372 806 1320 c 132,-1,29
 827 1268 827 1268 827 1200 c 6,30,-1
 827 886 l 6,31,32
 827 838 827 838 833 794 c 132,-1,33
 839 750 839 750 853 705 c 5,34,-1
 688 705 l 5,0,1
480 828 m 4,35,36
 507 828 507 828 536.5 836.5 c 132,-1,37
 566 845 566 845 591.5 859.5 c 132,-1,38
 617 874 617 874 636.5 892 c 132,-1,39
 656 910 656 910 664 928 c 5,40,-1
 664 1037 l 5,41,-1
 524 1037 l 6,42,43
 445 1037 445 1037 399.5 1004 c 132,-1,44
 354 971 354 971 354 922 c 4,45,46
 354 877 354 877 386 852.5 c 132,-1,47
 418 828 418 828 480 828 c 4,35,36
EndSplineSet
Validated: 1
EndChar

StartChar: logicalnot
Encoding: 172 172 110
Width: 1024
GlyphClass: 2
Flags: W
LayerCount: 2
Fore
SplineSet
832 448 m 1,0,-1
 720 448 l 1,1,-1
 720 712 l 1,2,-1
 96 712 l 1,3,-1
 96 824 l 1,4,-1
 832 824 l 1,5,-1
 832 448 l 1,0,-1
EndSplineSet
Validated: 1
EndChar

StartChar: uni00AD
Encoding: 173 173 111
Width: 1024
GlyphClass: 2
Flags: W
LayerCount: 2
Fore
SplineSet
792 576 m 1,0,-1
 232 576 l 1,1,-1
 232 704 l 1,2,-1
 792 704 l 1,3,-1
 792 576 l 1,0,-1
EndSplineSet
Validated: 1
EndChar

StartChar: registered
Encoding: 174 174 112
Width: 1024
GlyphClass: 2
Flags: W
LayerCount: 2
Fore
SplineSet
104 704 m 128,-1,1
 104 536 104 536 224 416 c 128,-1,2
 344 296 344 296 512 296 c 128,-1,3
 680 296 680 296 800 416 c 128,-1,4
 920 536 920 536 920 704 c 128,-1,5
 920 872 920 872 800 992 c 128,-1,6
 680 1112 680 1112 512 1112 c 128,-1,7
 344 1112 344 1112 224 992 c 128,-1,0
 104 872 104 872 104 704 c 128,-1,1
405 644 m 1,8,-1
 405 391 l 1,9,-1
 298 391 l 1,10,-1
 298 1026 l 1,11,-1
 509 1026 l 2,12,13
 564 1026 564 1026 608 1014 c 128,-1,14
 652 1002 652 1002 683.5 978 c 128,-1,15
 715 954 715 954 732 918 c 128,-1,16
 749 882 749 882 749 834 c 0,17,18
 749 778 749 778 714 739 c 128,-1,19
 679 700 679 700 613 678 c 1,20,-1
 760 391 l 1,21,-1
 650 391 l 1,22,-1
 530 644 l 1,23,-1
 405 644 l 1,8,-1
405 741 m 1,24,-1
 524 741 l 2,25,26
 572 742 572 742 607 765 c 128,-1,27
 642 788 642 788 642 830 c 0,28,29
 642 885 642 885 612 907 c 128,-1,30
 582 929 582 929 509 929 c 2,31,-1
 405 929 l 1,32,-1
 405 741 l 1,24,-1
32 704 m 128,-1,34
 32 834 32 834 96 944 c 128,-1,35
 160 1054 160 1054 271 1119 c 128,-1,36
 382 1184 382 1184 512 1184 c 128,-1,37
 642 1184 642 1184 752 1120 c 128,-1,38
 862 1056 862 1056 927 945 c 128,-1,39
 992 834 992 834 992 704 c 128,-1,40
 992 574 992 574 928 464 c 128,-1,41
 864 354 864 354 753 289 c 128,-1,42
 642 224 642 224 512 224 c 128,-1,43
 382 224 382 224 272 288 c 128,-1,44
 162 352 162 352 97 463 c 128,-1,33
 32 574 32 574 32 704 c 128,-1,34
EndSplineSet
Validated: 1
EndChar

StartChar: macron
Encoding: 175 175 113
Width: 1024
GlyphClass: 2
Flags: W
LayerCount: 2
Fore
SplineSet
809 1313 m 1,0,-1
 215 1313 l 1,1,-1
 215 1456 l 1,2,-1
 809 1456 l 1,3,-1
 809 1313 l 1,0,-1
EndSplineSet
Validated: 1
EndChar

StartChar: degree
Encoding: 176 176 114
Width: 1024
GlyphClass: 2
Flags: W
LayerCount: 2
Fore
SplineSet
256 1214 m 128,-1,1
 256 1320 256 1320 331 1395 c 128,-1,2
 406 1470 406 1470 512 1470 c 128,-1,3
 618 1470 618 1470 693 1395 c 128,-1,4
 768 1320 768 1320 768 1214 c 128,-1,5
 768 1108 768 1108 693 1033 c 128,-1,6
 618 958 618 958 512 958 c 128,-1,7
 406 958 406 958 331 1033 c 128,-1,0
 256 1108 256 1108 256 1214 c 128,-1,1
368 1216 m 128,-1,9
 368 1156 368 1156 410 1114 c 128,-1,10
 452 1072 452 1072 512 1072 c 128,-1,11
 572 1072 572 1072 614 1114 c 128,-1,12
 656 1156 656 1156 656 1216 c 128,-1,13
 656 1276 656 1276 614 1318 c 128,-1,14
 572 1360 572 1360 512 1360 c 128,-1,15
 452 1360 452 1360 410 1318 c 128,-1,8
 368 1276 368 1276 368 1216 c 128,-1,9
EndSplineSet
Validated: 1
EndChar

StartChar: plusminus
Encoding: 177 177 115
Width: 1024
GlyphClass: 2
Flags: W
LayerCount: 2
Fore
SplineSet
96 320 m 1,0,-1
 928 320 l 1,1,-1
 928 192 l 1,2,-1
 96 192 l 1,3,-1
 96 320 l 1,0,-1
576 896 m 1,4,-1
 928 896 l 1,5,-1
 928 768 l 1,6,-1
 576 768 l 1,7,-1
 576 416 l 1,8,-1
 448 416 l 1,9,-1
 448 768 l 1,10,-1
 96 768 l 1,11,-1
 96 896 l 1,12,-1
 448 896 l 1,13,-1
 448 1248 l 1,14,-1
 576 1248 l 1,15,-1
 576 896 l 1,4,-1
EndSplineSet
Validated: 1
EndChar

StartChar: uni00B2
Encoding: 178 178 116
Width: 1024
GlyphClass: 2
Flags: W
LayerCount: 2
Fore
SplineSet
821 667 m 5,0,-1
 222 667 l 5,1,-1
 222 775 l 5,2,-1
 510 1046 l 6,3,4
 575 1106 575 1106 603 1149.5 c 132,-1,5
 631 1193 631 1193 631 1228 c 4,6,7
 631 1277 631 1277 598 1307.5 c 132,-1,8
 565 1338 565 1338 507 1338 c 4,9,10
 433 1338 433 1338 397.5 1300.5 c 132,-1,11
 362 1263 362 1263 361 1205 c 5,12,-1
 203 1205 l 5,13,14
 203 1259 203 1259 224 1307 c 132,-1,15
 245 1355 245 1355 284 1390.5 c 132,-1,16
 323 1426 323 1426 378.5 1446.5 c 132,-1,17
 434 1467 434 1467 503 1467 c 4,18,19
 569 1467 569 1467 622 1450.5 c 132,-1,20
 675 1434 675 1434 712 1403 c 132,-1,21
 749 1372 749 1372 769 1328.5 c 132,-1,22
 789 1285 789 1285 789 1230 c 4,23,24
 789 1190 789 1190 775.5 1154.5 c 132,-1,25
 762 1119 762 1119 736.5 1084.5 c 132,-1,26
 711 1050 711 1050 675.5 1014.5 c 132,-1,27
 640 979 640 979 597 940 c 6,28,-1
 422 795 l 5,29,-1
 821 795 l 5,30,-1
 821 667 l 5,0,-1
EndSplineSet
Validated: 1
EndChar

StartChar: uni00B3
Encoding: 179 179 117
Width: 1024
GlyphClass: 2
Flags: W
LayerCount: 2
Fore
SplineSet
413 1125 m 5,0,-1
 497 1125 l 6,1,2
 567 1125 567 1125 605 1154 c 132,-1,3
 643 1183 643 1183 643 1234 c 4,4,5
 643 1279 643 1279 610 1308 c 132,-1,6
 577 1337 577 1337 510 1337 c 4,7,8
 453 1337 453 1337 416 1313 c 132,-1,9
 379 1289 379 1289 378 1245 c 5,10,-1
 221 1245 l 5,11,12
 221 1296 221 1296 243.5 1337 c 132,-1,13
 266 1378 266 1378 304.5 1406.5 c 132,-1,14
 343 1435 343 1435 395 1450.5 c 132,-1,15
 447 1466 447 1466 507 1466 c 4,16,17
 571 1466 571 1466 625 1451.5 c 132,-1,18
 679 1437 679 1437 718 1408.5 c 132,-1,19
 757 1380 757 1380 778.5 1338 c 132,-1,20
 800 1296 800 1296 800 1241 c 4,21,22
 800 1185 800 1185 764.5 1140 c 132,-1,23
 729 1095 729 1095 664 1070 c 5,24,25
 814 1028 814 1028 814 886 c 4,26,27
 814 830 814 830 790.5 787 c 132,-1,28
 767 744 767 744 725.5 715 c 132,-1,29
 684 686 684 686 628 670.5 c 132,-1,30
 572 655 572 655 508 655 c 4,31,32
 451 655 451 655 397.5 668.5 c 132,-1,33
 344 682 344 682 302.5 710.5 c 132,-1,34
 261 739 261 739 235.5 783 c 132,-1,35
 210 827 210 827 210 888 c 5,36,-1
 368 888 l 5,37,38
 369 842 369 842 408.5 812.5 c 132,-1,39
 448 783 448 783 513 783 c 4,40,41
 581 783 581 783 618.5 813 c 132,-1,42
 656 843 656 843 656 894 c 4,43,44
 656 957 656 957 612.5 983 c 132,-1,45
 569 1009 569 1009 497 1009 c 6,46,-1
 413 1009 l 5,47,-1
 413 1125 l 5,0,-1
EndSplineSet
Validated: 1
EndChar

StartChar: acute
Encoding: 180 180 118
Width: 1024
GlyphClass: 2
Flags: W
LayerCount: 2
Fore
SplineSet
494 1481 m 1,0,-1
 680 1481 l 1,1,-1
 457 1215 l 1,2,-1
 341 1215 l 1,3,-1
 494 1481 l 1,0,-1
EndSplineSet
Validated: 1
EndChar

StartChar: mu
Encoding: 181 181 119
Width: 1024
GlyphClass: 2
Flags: W
LayerCount: 2
Fore
SplineSet
310 1082 m 1,0,-1
 310 460 l 2,1,2
 310 360 310 360 323.5 296 c 128,-1,3
 337 232 337 232 361.5 195 c 128,-1,4
 386 158 386 158 419.5 144 c 128,-1,5
 453 130 453 130 493 130 c 0,6,7
 582 130 582 130 634 171 c 128,-1,8
 686 212 686 212 710 283 c 1,9,-1
 710 1082 l 1,10,-1
 864 1082 l 1,11,-1
 864 0 l 1,12,-1
 725 0 l 1,13,-1
 718 116 l 1,14,15
 681 51 681 51 627.5 15.5 c 128,-1,16
 574 -20 574 -20 499 -20 c 0,17,18
 378 -20 378 -20 310 53 c 1,19,-1
 310 -416 l 1,20,-1
 156 -416 l 1,21,-1
 156 1082 l 1,22,-1
 310 1082 l 1,0,-1
EndSplineSet
Validated: 1
EndChar

StartChar: paragraph
Encoding: 182 182 120
Width: 1024
GlyphClass: 2
Flags: W
LayerCount: 2
Fore
SplineSet
512 1472 m 2,0,-1
 896 1472 l 1,1,-1
 896 -64 l 1,2,-1
 784 -64 l 1,3,-1
 784 1360 l 1,4,-1
 624 1360 l 1,5,-1
 624 -64 l 1,6,-1
 512 -64 l 1,7,-1
 512 800 l 1,8,9
 372 800 372 800 274 898 c 128,-1,10
 176 996 176 996 176 1136 c 128,-1,11
 176 1276 176 1276 274 1374 c 128,-1,12
 372 1472 372 1472 512 1472 c 2,0,-1
EndSplineSet
Validated: 1
EndChar

StartChar: periodcentered
Encoding: 183 183 121
Width: 1024
GlyphClass: 2
Flags: W
LayerCount: 2
Fore
SplineSet
392 704 m 128,-1,1
 392 754 392 754 427 789 c 128,-1,2
 462 824 462 824 512 824 c 128,-1,3
 562 824 562 824 597 789 c 128,-1,4
 632 754 632 754 632 704 c 128,-1,5
 632 654 632 654 597 619 c 128,-1,6
 562 584 562 584 512 584 c 128,-1,7
 462 584 462 584 427 619 c 128,-1,0
 392 654 392 654 392 704 c 128,-1,1
EndSplineSet
Validated: 1
EndChar

StartChar: cedilla
Encoding: 184 184 122
Width: 1024
GlyphClass: 2
Flags: W
LayerCount: 2
Fore
SplineSet
577 0 m 1,0,-1
 565 -52 l 1,1,2
 594 -57 594 -57 621.5 -69 c 128,-1,3
 649 -81 649 -81 670.5 -101 c 128,-1,4
 692 -121 692 -121 705 -151.5 c 128,-1,5
 718 -182 718 -182 718 -225 c 0,6,7
 718 -322 718 -322 639 -378 c 128,-1,8
 560 -434 560 -434 415 -435 c 1,9,-1
 408 -328 l 1,10,11
 442 -328 442 -328 472 -322.5 c 128,-1,12
 502 -317 502 -317 524.5 -305 c 128,-1,13
 547 -293 547 -293 560.5 -274.5 c 128,-1,14
 574 -256 574 -256 574 -229 c 0,15,16
 574 -204 574 -204 564 -187 c 128,-1,17
 554 -170 554 -170 533.5 -159.5 c 128,-1,18
 513 -149 513 -149 483 -143 c 128,-1,19
 453 -137 453 -137 413 -134 c 1,20,-1
 444 0 l 1,21,-1
 577 0 l 1,0,-1
EndSplineSet
Validated: 1
EndChar

StartChar: uni00B9
Encoding: 185 185 123
Width: 1024
GlyphClass: 2
Flags: W
LayerCount: 2
Fore
SplineSet
705 665 m 5,0,-1
 548 665 l 5,1,-1
 548 1266 l 5,2,-1
 333 1209 l 5,3,-1
 333 1337 l 5,4,-1
 687 1454 l 5,5,-1
 705 1454 l 5,6,-1
 705 665 l 5,0,-1
EndSplineSet
Validated: 1
EndChar

StartChar: ordmasculine
Encoding: 186 186 124
Width: 1024
GlyphClass: 2
Flags: W
LayerCount: 2
Fore
SplineSet
170 1141 m 6,0,1
 170 1214 170 1214 194 1275.5 c 132,-1,2
 218 1337 218 1337 262.5 1381.5 c 132,-1,3
 307 1426 307 1426 370 1451 c 132,-1,4
 433 1476 433 1476 512 1476 c 260,5,6
 591 1476 591 1476 654.5 1451 c 132,-1,7
 718 1426 718 1426 762.5 1381.5 c 132,-1,8
 807 1337 807 1337 830.5 1275.5 c 132,-1,9
 854 1214 854 1214 854 1141 c 6,10,-1
 854 1024 l 6,11,12
 854 952 854 952 830.5 890.5 c 132,-1,13
 807 829 807 829 763 784.5 c 132,-1,14
 719 740 719 740 656 715 c 132,-1,15
 593 690 593 690 514 690 c 4,16,17
 434 690 434 690 370.5 715 c 132,-1,18
 307 740 307 740 262.5 784.5 c 132,-1,19
 218 829 218 829 194 890.5 c 132,-1,20
 170 952 170 952 170 1024 c 6,21,-1
 170 1141 l 6,0,1
333 1024 m 6,22,23
 333 982 333 982 344 946.5 c 132,-1,24
 355 911 355 911 377.5 885 c 132,-1,25
 400 859 400 859 434 844 c 132,-1,26
 468 829 468 829 514 829 c 4,27,28
 558 829 558 829 591.5 844 c 132,-1,29
 625 859 625 859 647 885 c 132,-1,30
 669 911 669 911 680.5 946.5 c 132,-1,31
 692 982 692 982 692 1024 c 6,32,-1
 692 1141 l 6,33,34
 692 1182 692 1182 680.5 1217.5 c 132,-1,35
 669 1253 669 1253 646.5 1279.5 c 132,-1,36
 624 1306 624 1306 590.5 1321 c 132,-1,37
 557 1336 557 1336 512 1336 c 260,38,39
 467 1336 467 1336 433.5 1321 c 132,-1,40
 400 1306 400 1306 377.5 1279.5 c 132,-1,41
 355 1253 355 1253 344 1217.5 c 132,-1,42
 333 1182 333 1182 333 1141 c 6,43,-1
 333 1024 l 6,22,23
EndSplineSet
Validated: 1
EndChar

StartChar: onequarter
Encoding: 188 188 126
Width: 1024
GlyphClass: 2
Flags: W
LayerCount: 2
Fore
SplineSet
343 929 m 5,0,-1
 225 929 l 5,1,-1
 225 1380 l 5,2,-1
 64 1337 l 5,3,-1
 64 1433 l 5,4,-1
 329 1520 l 5,5,-1
 343 1520 l 5,6,-1
 343 929 l 5,0,-1
0 366 m 1,7,-1
 960 1136 l 1,8,-1
 1024 1040 l 1,9,-1
 64 266 l 1,10,-1
 0 366 l 1,7,-1
912 160 m 5,11,-1
 992 160 l 5,12,-1
 992 63 l 5,13,-1
 912 63 l 5,14,-1
 912 -64 l 5,15,-1
 794 -64 l 5,16,-1
 794 63 l 5,17,-1
 513 63 l 5,18,-1
 508 140 l 5,19,-1
 791 528 l 5,20,-1
 912 528 l 5,21,-1
 912 160 l 5,11,-1
627 160 m 5,22,-1
 794 160 l 5,23,-1
 794 377 l 5,24,-1
 782 356 l 5,25,-1
 627 160 l 5,22,-1
EndSplineSet
Validated: 1
EndChar

StartChar: onehalf
Encoding: 189 189 127
Width: 1024
GlyphClass: 2
Flags: W
LayerCount: 2
Fore
SplineSet
343 865 m 5,0,-1
 225 865 l 5,1,-1
 225 1316 l 5,2,-1
 64 1273 l 5,3,-1
 64 1369 l 5,4,-1
 329 1456 l 5,5,-1
 343 1456 l 5,6,-1
 343 865 l 5,0,-1
0 366 m 1,7,-1
 960 1136 l 1,8,-1
 1024 1040 l 1,9,-1
 64 266 l 1,10,-1
 0 366 l 1,7,-1
952 -64 m 5,11,-1
 502 -64 l 5,12,-1
 502 17 l 5,13,-1
 718 220 l 6,14,15
 767 265 767 265 788 298 c 132,-1,16
 809 331 809 331 809 357 c 4,17,18
 809 394 809 394 784.5 417 c 132,-1,19
 760 440 760 440 716 440 c 4,20,21
 660 440 660 440 634 411.5 c 132,-1,22
 608 383 608 383 607 340 c 5,23,-1
 488 340 l 5,24,25
 488 380 488 380 504 416 c 132,-1,26
 520 452 520 452 549 479 c 132,-1,27
 578 506 578 506 620 521 c 132,-1,28
 662 536 662 536 713 536 c 4,29,30
 763 536 763 536 802.5 524 c 132,-1,31
 842 512 842 512 870 488.5 c 132,-1,32
 898 465 898 465 913 432.5 c 132,-1,33
 928 400 928 400 928 358 c 4,34,35
 928 328 928 328 918 301.5 c 132,-1,36
 908 275 908 275 888.5 249.5 c 132,-1,37
 869 224 869 224 842.5 197 c 132,-1,38
 816 170 816 170 784 141 c 6,39,-1
 652 32 l 5,40,-1
 952 32 l 5,41,-1
 952 -64 l 5,11,-1
EndSplineSet
Validated: 1
EndChar

StartChar: threequarters
Encoding: 190 190 128
Width: 1024
GlyphClass: 2
Flags: W
LayerCount: 2
Fore
SplineSet
0 366 m 1,0,-1
 960 1136 l 1,1,-1
 1024 1040 l 1,2,-1
 64 266 l 1,3,-1
 0 366 l 1,0,-1
880 160 m 1,4,-1
 960 160 l 1,5,-1
 960 63 l 1,6,-1
 880 63 l 1,7,-1
 880 -64 l 1,8,-1
 762 -64 l 1,9,-1
 762 63 l 1,10,-1
 481 63 l 1,11,-1
 476 140 l 1,12,-1
 759 528 l 1,13,-1
 880 528 l 1,14,-1
 880 160 l 1,4,-1
595 160 m 1,15,-1
 762 160 l 1,16,-1
 762 377 l 1,17,-1
 750 356 l 1,18,-1
 595 160 l 1,15,-1
155 1210 m 5,19,-1
 218 1210 l 6,20,21
 270 1210 270 1210 298 1232 c 4,22,23
 326 1254 326 1254 327 1292 c 4,24,25
 327 1326 327 1326 302.5 1347.5 c 132,-1,26
 278 1369 278 1369 228 1369 c 4,27,28
 185 1369 185 1369 157 1351 c 4,29,30
 128 1333 128 1333 128 1300 c 5,31,-1
 11 1300 l 5,32,33
 11 1338 11 1338 27.5 1369 c 132,-1,34
 44 1400 44 1400 73 1421 c 132,-1,35
 102 1442 102 1442 141 1454 c 132,-1,36
 180 1466 180 1466 225 1466 c 4,37,38
 273 1466 273 1466 313.5 1455 c 132,-1,39
 354 1444 354 1444 383.5 1422.5 c 132,-1,40
 413 1401 413 1401 429 1369.5 c 132,-1,41
 445 1338 445 1338 445 1297 c 4,42,43
 444 1255 444 1255 418 1221 c 4,44,45
 392 1186 392 1186 343 1168 c 5,46,47
 456 1136 456 1136 456 1030 c 4,48,49
 456 988 456 988 438 956 c 132,-1,50
 420 924 420 924 389 902 c 132,-1,51
 358 880 358 880 316 868.5 c 132,-1,52
 274 857 274 857 226 857 c 4,53,54
 183 857 183 857 143 867.5 c 132,-1,55
 103 878 103 878 72 899 c 132,-1,56
 41 920 41 920 21.5 953 c 132,-1,57
 2 986 2 986 2 1032 c 5,58,-1
 121 1032 l 5,59,60
 122 998 122 998 151.5 975.5 c 132,-1,61
 181 953 181 953 230 953 c 4,62,63
 281 953 281 953 309 975.5 c 132,-1,64
 337 998 337 998 337 1036 c 4,65,66
 337 1083 337 1083 304.5 1103 c 132,-1,67
 272 1123 272 1123 218 1123 c 6,68,-1
 155 1123 l 5,69,-1
 155 1210 l 5,19,-1
EndSplineSet
Validated: 1
EndChar

StartChar: questiondown
Encoding: 191 191 129
Width: 1024
GlyphClass: 2
Flags: W
LayerCount: 2
Fore
SplineSet
601 673 m 1,0,1
 600 602 600 602 596.5 556 c 128,-1,2
 593 510 593 510 580.5 474 c 128,-1,3
 568 438 568 438 543.5 404.5 c 128,-1,4
 519 371 519 371 478 326 c 1,5,6
 452 291 452 291 425 253.5 c 128,-1,7
 398 216 398 216 375 175 c 128,-1,8
 352 134 352 134 337.5 89 c 128,-1,9
 323 44 323 44 323 -7 c 0,10,11
 323 -116 323 -116 371 -173.5 c 128,-1,12
 419 -231 419 -231 510 -231 c 0,13,14
 546 -231 546 -231 579.5 -219.5 c 128,-1,15
 613 -208 613 -208 639 -183.5 c 128,-1,16
 665 -159 665 -159 680.5 -121.5 c 128,-1,17
 696 -84 696 -84 696 -32 c 1,18,-1
 850 -32 l 1,19,20
 849 -116 849 -116 823 -183 c 128,-1,21
 797 -250 797 -250 751.5 -296.5 c 128,-1,22
 706 -343 706 -343 644 -367.5 c 128,-1,23
 582 -392 582 -392 510 -392 c 0,24,25
 429 -392 429 -392 365.5 -366.5 c 128,-1,26
 302 -341 302 -341 258.5 -292 c 128,-1,27
 215 -243 215 -243 192 -173 c 128,-1,28
 169 -103 169 -103 169 -13 c 0,29,30
 169 59 169 59 188.5 123 c 128,-1,31
 208 187 208 187 238.5 243.5 c 128,-1,32
 269 300 269 300 306.5 349.5 c 128,-1,33
 344 399 344 399 382 442 c 0,34,35
 406 471 406 471 419 496 c 128,-1,36
 432 521 432 521 438.5 547.5 c 128,-1,37
 445 574 445 574 446 604 c 128,-1,38
 447 634 447 634 447 673 c 1,39,-1
 601 673 l 1,0,1
447 910.5 m 128,-1,41
 423 942 423 942 423 989 c 128,-1,42
 423 1036 423 1036 447 1068.5 c 128,-1,43
 471 1101 471 1101 518 1101 c 256,44,45
 565 1101 565 1101 589 1068.5 c 128,-1,46
 613 1036 613 1036 613 989 c 128,-1,47
 613 942 613 942 589 910.5 c 128,-1,48
 565 879 565 879 518 879 c 256,49,40
 471 879 471 879 447 910.5 c 128,-1,41
EndSplineSet
Validated: 1
EndChar

StartChar: multiply
Encoding: 215 215 130
Width: 1024
GlyphClass: 2
Flags: W
LayerCount: 2
Fore
SplineSet
902 1012 m 1,0,-1
 594 704 l 1,1,-1
 902 396 l 1,2,-1
 820 314 l 1,3,-1
 512 622 l 1,4,-1
 204 314 l 1,5,-1
 122 396 l 1,6,-1
 430 704 l 1,7,-1
 122 1012 l 1,8,-1
 204 1094 l 1,9,-1
 512 786 l 1,10,-1
 820 1094 l 1,11,-1
 902 1012 l 1,0,-1
EndSplineSet
Validated: 1
EndChar

StartChar: divide
Encoding: 247 247 131
Width: 1024
GlyphClass: 2
Flags: W
LayerCount: 2
Fore
SplineSet
960 648 m 1,0,-1
 64 648 l 1,1,-1
 64 760 l 1,2,-1
 960 760 l 1,3,-1
 960 648 l 1,0,-1
416 320 m 128,-1,5
 416 360 416 360 444 388 c 128,-1,6
 472 416 472 416 512 416 c 128,-1,7
 552 416 552 416 580 388 c 128,-1,8
 608 360 608 360 608 320 c 128,-1,9
 608 280 608 280 580 252 c 128,-1,10
 552 224 552 224 512 224 c 128,-1,11
 472 224 472 224 444 252 c 128,-1,4
 416 280 416 280 416 320 c 128,-1,5
416 1088 m 128,-1,13
 416 1128 416 1128 444 1156 c 128,-1,14
 472 1184 472 1184 512 1184 c 128,-1,15
 552 1184 552 1184 580 1156 c 128,-1,16
 608 1128 608 1128 608 1088 c 128,-1,17
 608 1048 608 1048 580 1020 c 128,-1,18
 552 992 552 992 512 992 c 128,-1,19
 472 992 472 992 444 1020 c 128,-1,12
 416 1048 416 1048 416 1088 c 128,-1,13
EndSplineSet
Validated: 1
EndChar

StartChar: ring
Encoding: 730 730 132
Width: 1024
GlyphClass: 2
Flags: W
LayerCount: 2
Fore
SplineSet
416 1312 m 128,-1,1
 416 1272 416 1272 444 1244 c 128,-1,2
 472 1216 472 1216 512 1216 c 128,-1,3
 552 1216 552 1216 580 1244 c 128,-1,4
 608 1272 608 1272 608 1312 c 128,-1,5
 608 1352 608 1352 580 1380 c 128,-1,6
 552 1408 552 1408 512 1408 c 128,-1,7
 472 1408 472 1408 444 1380 c 128,-1,0
 416 1352 416 1352 416 1312 c 128,-1,1
324 1312 m 128,-1,9
 324 1390 324 1390 379 1445 c 128,-1,10
 434 1500 434 1500 512 1500 c 128,-1,11
 590 1500 590 1500 645 1445 c 128,-1,12
 700 1390 700 1390 700 1312 c 128,-1,13
 700 1234 700 1234 645 1179 c 128,-1,14
 590 1124 590 1124 512 1124 c 128,-1,15
 434 1124 434 1124 379 1179 c 128,-1,8
 324 1234 324 1234 324 1312 c 128,-1,9
EndSplineSet
Validated: 1
EndChar

StartChar: Gamma
Encoding: 915 915 135
Width: 1024
GlyphClass: 2
Flags: W
LayerCount: 2
Fore
SplineSet
890 1304 m 1,0,-1
 305 1304 l 1,1,-1
 305 0 l 1,2,-1
 150 0 l 1,3,-1
 150 1456 l 1,4,-1
 890 1456 l 1,5,-1
 890 1304 l 1,0,-1
EndSplineSet
Validated: 1
EndChar

StartChar: uni0394
Encoding: 916 916 136
Width: 1024
GlyphClass: 2
Flags: W
LayerCount: 2
Fore
SplineSet
468 1456 m 1,0,-1
 601 1456 l 1,1,-1
 999 0 l 1,2,-1
 38 0 l 1,3,-1
 468 1456 l 1,0,-1
237 151 m 1,4,-1
 803 151 l 1,5,-1
 532 1203 l 1,6,-1
 237 151 l 1,4,-1
EndSplineSet
Validated: 1
EndChar

StartChar: Theta
Encoding: 920 920 140
Width: 1024
GlyphClass: 2
Flags: W
LayerCount: 2
Fore
SplineSet
701 660 m 1,0,-1
 316 660 l 1,1,-1
 316 811 l 1,2,-1
 701 811 l 1,3,-1
 701 660 l 1,0,-1
931 644 m 2,4,5
 930 566 930 566 919.5 486.5 c 128,-1,6
 909 407 909 407 887.5 333 c 128,-1,7
 866 259 866 259 832.5 195 c 128,-1,8
 799 131 799 131 752.5 83 c 128,-1,9
 706 35 706 35 645.5 7.5 c 128,-1,10
 585 -20 585 -20 510 -20 c 256,11,12
 435 -20 435 -20 375 7.5 c 128,-1,13
 315 35 315 35 268.5 83 c 128,-1,14
 222 131 222 131 188 195.5 c 128,-1,15
 154 260 154 260 132 334 c 128,-1,16
 110 408 110 408 99.5 487 c 128,-1,17
 89 566 89 566 88 644 c 2,18,-1
 88 810 l 2,19,20
 89 888 89 888 99.5 967.5 c 128,-1,21
 110 1047 110 1047 132 1121 c 128,-1,22
 154 1195 154 1195 187.5 1259.5 c 128,-1,23
 221 1324 221 1324 267.5 1372.5 c 128,-1,24
 314 1421 314 1421 374 1448.5 c 128,-1,25
 434 1476 434 1476 509 1476 c 256,26,27
 584 1476 584 1476 644.5 1448.5 c 128,-1,28
 705 1421 705 1421 751.5 1373 c 128,-1,29
 798 1325 798 1325 831.5 1260.5 c 128,-1,30
 865 1196 865 1196 887 1122 c 128,-1,31
 909 1048 909 1048 919.5 968 c 128,-1,32
 930 888 930 888 931 810 c 2,33,-1
 931 644 l 2,4,5
779 812 m 2,34,35
 778 864 778 864 773 920.5 c 128,-1,36
 768 977 768 977 756 1032.5 c 128,-1,37
 744 1088 744 1088 724 1138.5 c 128,-1,38
 704 1189 704 1189 674 1227.5 c 128,-1,39
 644 1266 644 1266 603.5 1288.5 c 128,-1,40
 563 1311 563 1311 509 1311 c 0,41,42
 456 1311 456 1311 415 1288 c 128,-1,43
 374 1265 374 1265 344.5 1226.5 c 128,-1,44
 315 1188 315 1188 295 1137.5 c 128,-1,45
 275 1087 275 1087 263 1031.5 c 128,-1,46
 251 976 251 976 245.5 919.5 c 128,-1,47
 240 863 240 863 239 812 c 2,48,-1
 239 644 l 2,49,50
 240 593 240 593 245.5 536 c 128,-1,51
 251 479 251 479 263.5 423.5 c 128,-1,52
 276 368 276 368 295.5 317 c 128,-1,53
 315 266 315 266 345 227.5 c 128,-1,54
 375 189 375 189 416 166 c 128,-1,55
 457 143 457 143 510 143 c 0,56,57
 564 143 564 143 605.5 166 c 128,-1,58
 647 189 647 189 676.5 227.5 c 128,-1,59
 706 266 706 266 725.5 316.5 c 128,-1,60
 745 367 745 367 757 422.5 c 128,-1,61
 769 478 769 478 773.5 535 c 128,-1,62
 778 592 778 592 779 644 c 2,63,-1
 779 812 l 2,34,35
EndSplineSet
Validated: 1
EndChar

StartChar: Lambda
Encoding: 923 923 143
Width: 1024
GlyphClass: 2
Flags: W
LayerCount: 2
Fore
SplineSet
513 1180 m 1,0,-1
 202 0 l 1,1,-1
 45 0 l 1,2,-1
 447 1456 l 1,3,-1
 580 1456 l 1,4,-1
 983 0 l 1,5,-1
 826 0 l 1,6,-1
 513 1180 l 1,0,-1
EndSplineSet
Validated: 1
EndChar

StartChar: Xi
Encoding: 926 926 146
Width: 1024
GlyphClass: 2
Flags: W
LayerCount: 2
Fore
SplineSet
120 151 m 1,0,-1
 896 151 l 1,1,-1
 896 0 l 1,2,-1
 120 0 l 1,3,-1
 120 151 l 1,0,-1
191 830 m 1,4,-1
 817 830 l 1,5,-1
 817 678 l 1,6,-1
 191 678 l 1,7,-1
 191 830 l 1,4,-1
122 1456 m 1,8,-1
 884 1456 l 1,9,-1
 884 1304 l 1,10,-1
 122 1304 l 1,11,-1
 122 1456 l 1,8,-1
EndSplineSet
Validated: 1
EndChar

StartChar: Pi
Encoding: 928 928 148
Width: 1024
GlyphClass: 2
Flags: W
LayerCount: 2
Fore
SplineSet
885 0 m 1,0,-1
 731 0 l 1,1,-1
 731 1304 l 1,2,-1
 288 1304 l 1,3,-1
 288 0 l 1,4,-1
 134 0 l 1,5,-1
 134 1456 l 1,6,-1
 885 1456 l 1,7,-1
 885 0 l 1,0,-1
EndSplineSet
Validated: 1
EndChar

StartChar: Sigma
Encoding: 931 931 150
Width: 1024
GlyphClass: 2
Flags: W
LayerCount: 2
Fore
SplineSet
658 717 m 1,0,-1
 283 152 l 1,1,-1
 942 152 l 1,2,-1
 942 0 l 1,3,-1
 93 0 l 1,4,-1
 93 144 l 1,5,-1
 496 729 l 1,6,-1
 93 1312 l 1,7,-1
 93 1456 l 1,8,-1
 901 1456 l 1,9,-1
 901 1304 l 1,10,-1
 284 1304 l 1,11,-1
 658 742 l 1,12,-1
 658 717 l 1,0,-1
EndSplineSet
Validated: 1
EndChar

StartChar: Phi
Encoding: 934 934 153
Width: 1024
GlyphClass: 2
Flags: W
LayerCount: 2
Fore
SplineSet
587 1250 m 1,0,1
 668 1242 668 1242 736 1201 c 128,-1,2
 804 1160 804 1160 854.5 1091 c 128,-1,3
 905 1022 905 1022 933.5 929 c 128,-1,4
 962 836 962 836 962 725 c 0,5,6
 962 613 962 613 933.5 519.5 c 128,-1,7
 905 426 905 426 854.5 356.5 c 128,-1,8
 804 287 804 287 735.5 245 c 128,-1,9
 667 203 667 203 587 196 c 1,10,-1
 587 0 l 1,11,-1
 433 0 l 1,12,-1
 433 196 l 1,13,14
 352 203 352 203 283.5 244 c 128,-1,15
 215 285 215 285 164.5 354 c 128,-1,16
 114 423 114 423 85.5 517 c 128,-1,17
 57 611 57 611 57 723 c 0,18,19
 57 834 57 834 85.5 928 c 128,-1,20
 114 1022 114 1022 164.5 1091 c 128,-1,21
 215 1160 215 1160 283.5 1201.5 c 128,-1,22
 352 1243 352 1243 433 1250 c 1,23,-1
 433 1456 l 1,24,-1
 587 1456 l 1,25,-1
 587 1250 l 1,0,1
209 723 m 0,26,27
 209 643 209 643 224 576.5 c 128,-1,28
 239 510 239 510 267.5 461.5 c 128,-1,29
 296 413 296 413 337.5 383.5 c 128,-1,30
 379 354 379 354 433 348 c 1,31,-1
 433 1098 l 1,32,33
 379 1091 379 1091 337.5 1061.5 c 128,-1,34
 296 1032 296 1032 267.5 983 c 128,-1,35
 239 934 239 934 224 868 c 128,-1,36
 209 802 209 802 209 723 c 0,26,27
809 725 m 0,37,38
 809 804 809 804 794 869.5 c 128,-1,39
 779 935 779 935 750.5 983.5 c 128,-1,40
 722 1032 722 1032 681 1061.5 c 128,-1,41
 640 1091 640 1091 587 1098 c 1,42,-1
 587 348 l 1,43,44
 640 355 640 355 681 384.5 c 128,-1,45
 722 414 722 414 750.5 463 c 128,-1,46
 779 512 779 512 794 578.5 c 128,-1,47
 809 645 809 645 809 725 c 0,37,38
EndSplineSet
Validated: 1
EndChar

StartChar: Psi
Encoding: 936 936 155
Width: 1024
GlyphClass: 2
Flags: W
LayerCount: 2
Fore
SplineSet
590 479 m 1,0,1
 636 491 636 491 673 519 c 128,-1,2
 710 547 710 547 736 592 c 128,-1,3
 762 637 762 637 776.5 699.5 c 128,-1,4
 791 762 791 762 791 842 c 2,5,-1
 791 1456 l 1,6,-1
 945 1456 l 1,7,-1
 945 842 l 2,8,9
 945 724 945 724 918.5 632.5 c 128,-1,10
 892 541 892 541 845.5 476 c 128,-1,11
 799 411 799 411 733.5 373 c 128,-1,12
 668 335 668 335 590 324 c 1,13,-1
 590 0 l 1,14,-1
 437 0 l 1,15,-1
 437 324 l 1,16,17
 358 335 358 335 293 373 c 128,-1,18
 228 411 228 411 181.5 476 c 128,-1,19
 135 541 135 541 109.5 632.5 c 128,-1,20
 84 724 84 724 84 842 c 2,21,-1
 84 1456 l 1,22,-1
 237 1456 l 1,23,-1
 237 842 l 2,24,25
 237 762 237 762 251.5 700 c 128,-1,26
 266 638 266 638 292 593 c 128,-1,27
 318 548 318 548 355 520 c 128,-1,28
 392 492 392 492 437 480 c 1,29,-1
 437 1456 l 1,30,-1
 590 1456 l 1,31,-1
 590 479 l 1,0,1
EndSplineSet
Validated: 1
EndChar

StartChar: uni03A9
Encoding: 937 937 156
Width: 1024
GlyphClass: 2
Flags: W
LayerCount: 2
Fore
SplineSet
564 193 m 1,0,1
 670 222 670 222 727 366 c 128,-1,2
 784 510 784 510 784 759 c 2,3,-1
 784 840 l 2,4,5
 784 957 784 957 765 1047.5 c 128,-1,6
 746 1138 746 1138 711 1199.5 c 128,-1,7
 676 1261 676 1261 624.5 1293 c 128,-1,8
 573 1325 573 1325 508 1325 c 0,9,10
 444 1325 444 1325 393.5 1293 c 128,-1,11
 343 1261 343 1261 307.5 1199.5 c 128,-1,12
 272 1138 272 1138 253 1047.5 c 128,-1,13
 234 957 234 957 234 840 c 2,14,-1
 234 759 l 2,15,16
 235 508 235 508 293.5 365 c 128,-1,17
 352 222 352 222 459 193 c 1,18,-1
 459 0 l 1,19,-1
 84 0 l 1,20,-1
 84 151 l 1,21,-1
 301 151 l 1,22,23
 250 198 250 198 209 265.5 c 128,-1,24
 168 333 168 333 139 413.5 c 128,-1,25
 110 494 110 494 95.5 582 c 128,-1,26
 81 670 81 670 81 759 c 2,27,-1
 81 838 l 2,28,29
 81 977 81 977 111 1094.5 c 128,-1,30
 141 1212 141 1212 197 1296.5 c 128,-1,31
 253 1381 253 1381 332 1428.5 c 128,-1,32
 411 1476 411 1476 508 1476 c 256,33,34
 605 1476 605 1476 684.5 1428.5 c 128,-1,35
 764 1381 764 1381 820 1296.5 c 128,-1,36
 876 1212 876 1212 906.5 1094.5 c 128,-1,37
 937 977 937 977 937 838 c 2,38,-1
 937 759 l 2,39,40
 937 670 937 670 922 581.5 c 128,-1,41
 907 493 907 493 879.5 413 c 128,-1,42
 852 333 852 333 811 265.5 c 128,-1,43
 770 198 770 198 719 151 c 1,44,-1
 940 151 l 1,45,-1
 940 0 l 1,46,-1
 564 0 l 1,47,-1
 564 193 l 1,0,1
EndSplineSet
Validated: 1
EndChar

StartChar: alpha
Encoding: 945 945 157
Width: 1024
GlyphClass: 2
Flags: W
LayerCount: 2
Fore
SplineSet
836 1082 m 1,0,-1
 836 277 l 2,1,2
 836 239 836 239 841 213.5 c 128,-1,3
 846 188 846 188 854.5 173 c 128,-1,4
 863 158 863 158 875 151.5 c 128,-1,5
 887 145 887 145 902 145 c 0,6,7
 914 145 914 145 925.5 147 c 128,-1,8
 937 149 937 149 945 151 c 1,9,-1
 965 13 l 1,10,11
 939 -8 939 -8 914.5 -14.5 c 128,-1,12
 890 -21 890 -21 863 -21 c 0,13,14
 801 -21 801 -21 760 12.5 c 128,-1,15
 719 46 719 46 699 120 c 1,16,17
 654 51 654 51 590 15 c 128,-1,18
 526 -21 526 -21 441 -21 c 0,19,20
 360 -21 360 -21 297.5 18.5 c 128,-1,21
 235 58 235 58 192.5 127.5 c 128,-1,22
 150 197 150 197 128.5 292.5 c 128,-1,23
 107 388 107 388 107 500 c 2,24,-1
 107 521 l 2,25,26
 107 646 107 646 128.5 752.5 c 128,-1,27
 150 859 150 859 192.5 936.5 c 128,-1,28
 235 1014 235 1014 297.5 1058 c 128,-1,29
 360 1102 360 1102 442 1102 c 0,30,31
 528 1102 528 1102 592.5 1064 c 128,-1,32
 657 1026 657 1026 702 955 c 1,33,-1
 743 1082 l 1,34,-1
 836 1082 l 1,0,-1
261 500 m 2,35,36
 261 425 261 425 272.5 358 c 128,-1,37
 284 291 284 291 310 240.5 c 128,-1,38
 336 190 336 190 377.5 160 c 128,-1,39
 419 130 419 130 478 130 c 0,40,41
 552 130 552 130 601.5 171 c 128,-1,42
 651 212 651 212 682 277 c 1,43,-1
 682 808 l 1,44,45
 666 839 666 839 646.5 865 c 128,-1,46
 627 891 627 891 601.5 910 c 128,-1,47
 576 929 576 929 545.5 939.5 c 128,-1,48
 515 950 515 950 480 950 c 0,49,50
 420 950 420 950 378 915 c 128,-1,51
 336 880 336 880 310 820.5 c 128,-1,52
 284 761 284 761 272.5 683.5 c 128,-1,53
 261 606 261 606 261 521 c 2,54,-1
 261 500 l 2,35,36
EndSplineSet
Validated: 1
EndChar

StartChar: beta
Encoding: 946 946 158
Width: 1024
GlyphClass: 2
Flags: W
LayerCount: 2
Fore
SplineSet
514 1476 m 0,0,1
 595 1476 595 1476 660 1447.5 c 128,-1,2
 725 1419 725 1419 771.5 1366.5 c 128,-1,3
 818 1314 818 1314 843.5 1242 c 128,-1,4
 869 1170 869 1170 869 1083 c 0,5,6
 869 991 869 991 828.5 915.5 c 128,-1,7
 788 840 788 840 715 793 c 1,8,9
 815 749 815 749 870.5 652 c 128,-1,10
 926 555 926 555 926 424 c 0,11,12
 926 317 926 317 897.5 234.5 c 128,-1,13
 869 152 869 152 818.5 95 c 128,-1,14
 768 38 768 38 699 8.5 c 128,-1,15
 630 -21 630 -21 549 -21 c 0,16,17
 482 -21 482 -21 416 2 c 128,-1,18
 350 25 350 25 299 75 c 1,19,-1
 299 -384 l 1,20,-1
 144 -384 l 1,21,-1
 144 1073 l 2,22,23
 144 1155 144 1155 173.5 1228.5 c 128,-1,24
 203 1302 203 1302 253.5 1357 c 128,-1,25
 304 1412 304 1412 371 1444 c 128,-1,26
 438 1476 438 1476 514 1476 c 0,0,1
510 858 m 2,27,28
 563 858 563 858 602.5 875 c 128,-1,29
 642 892 642 892 666.5 922 c 128,-1,30
 691 952 691 952 703.5 994 c 128,-1,31
 716 1036 716 1036 716 1087 c 0,32,33
 716 1133 716 1133 702.5 1176 c 128,-1,34
 689 1219 689 1219 663.5 1252 c 128,-1,35
 638 1285 638 1285 600 1305 c 128,-1,36
 562 1325 562 1325 514 1325 c 0,37,38
 468 1325 468 1325 428.5 1305.5 c 128,-1,39
 389 1286 389 1286 360.5 1252 c 128,-1,40
 332 1218 332 1218 315.5 1172 c 128,-1,41
 299 1126 299 1126 299 1073 c 2,42,-1
 299 246 l 1,43,44
 336 193 336 193 396 161.5 c 128,-1,45
 456 130 456 130 533 130 c 0,46,47
 589 130 589 130 633 151.5 c 128,-1,48
 677 173 677 173 708 211.5 c 128,-1,49
 739 250 739 250 755.5 303.5 c 128,-1,50
 772 357 772 357 772 420 c 0,51,52
 772 473 772 473 758 524 c 128,-1,53
 744 575 744 575 716.5 615.5 c 128,-1,54
 689 656 689 656 649.5 681 c 128,-1,55
 610 706 610 706 559 706 c 2,56,-1
 441 706 l 1,57,-1
 441 858 l 1,58,-1
 510 858 l 2,27,28
EndSplineSet
Validated: 1
EndChar

StartChar: gamma
Encoding: 947 947 159
Width: 1024
GlyphClass: 2
Flags: W
LayerCount: 2
Fore
SplineSet
817 1082 m 1,0,-1
 975 1082 l 1,1,-1
 594 47 l 1,2,-1
 594 -416 l 1,3,-1
 440 -416 l 1,4,-1
 440 54 l 1,5,-1
 59 1082 l 1,6,-1
 217 1082 l 1,7,-1
 499 298 l 1,8,-1
 519 201 l 1,9,-1
 540 298 l 1,10,-1
 817 1082 l 1,0,-1
EndSplineSet
Validated: 1
EndChar

StartChar: delta
Encoding: 948 948 160
Width: 1024
GlyphClass: 2
Flags: W
LayerCount: 2
Fore
SplineSet
218 1269 m 0,0,1
 218 1338 218 1338 240.5 1393 c 128,-1,2
 263 1448 263 1448 304 1486 c 128,-1,3
 345 1524 345 1524 403.5 1544 c 128,-1,4
 462 1564 462 1564 533 1564 c 0,5,6
 599 1564 599 1564 665 1540.5 c 128,-1,7
 731 1517 731 1517 794 1479 c 1,8,-1
 760 1349 l 1,9,10
 741 1358 741 1358 714.5 1369 c 128,-1,11
 688 1380 688 1380 658 1389.5 c 128,-1,12
 628 1399 628 1399 596 1405.5 c 128,-1,13
 564 1412 564 1412 530 1412 c 0,14,15
 495 1412 495 1412 466.5 1402 c 128,-1,16
 438 1392 438 1392 417.5 1374 c 128,-1,17
 397 1356 397 1356 385.5 1330.5 c 128,-1,18
 374 1305 374 1305 374 1274 c 0,19,20
 374 1252 374 1252 383.5 1228.5 c 128,-1,21
 393 1205 393 1205 415 1181 c 128,-1,22
 437 1157 437 1157 474 1133 c 128,-1,23
 511 1109 511 1109 567 1086 c 0,24,25
 750 1013 750 1013 842.5 875 c 128,-1,26
 935 737 935 737 935 530 c 2,27,-1
 935 509 l 2,28,29
 935 396 935 396 906.5 299.5 c 128,-1,30
 878 203 878 203 824.5 132 c 128,-1,31
 771 61 771 61 694 20.5 c 128,-1,32
 617 -20 617 -20 519 -20 c 0,33,34
 419 -20 419 -20 341.5 20.5 c 128,-1,35
 264 61 264 61 210 132 c 128,-1,36
 156 203 156 203 128 299.5 c 128,-1,37
 100 396 100 396 100 509 c 2,38,-1
 100 530 l 2,39,40
 100 617 100 617 122 693 c 128,-1,41
 144 769 144 769 183 829 c 128,-1,42
 222 889 222 889 274.5 930 c 128,-1,43
 327 971 327 971 387 988 c 1,44,-1
 390 999 l 1,45,46
 351 1018 351 1018 319.5 1045 c 128,-1,47
 288 1072 288 1072 265.5 1106.5 c 128,-1,48
 243 1141 243 1141 230.5 1181.5 c 128,-1,49
 218 1222 218 1222 218 1269 c 0,0,1
254 509 m 2,50,51
 254 432 254 432 270 363 c 128,-1,52
 286 294 286 294 318.5 242.5 c 128,-1,53
 351 191 351 191 401 160.5 c 128,-1,54
 451 130 451 130 519 130 c 0,55,56
 586 130 586 130 635 160.5 c 128,-1,57
 684 191 684 191 716.5 242.5 c 128,-1,58
 749 294 749 294 764.5 363 c 128,-1,59
 780 432 780 432 780 509 c 2,60,-1
 780 530 l 2,61,62
 780 593 780 593 761.5 655.5 c 128,-1,63
 743 718 743 718 709 770.5 c 128,-1,64
 675 823 675 823 627 860.5 c 128,-1,65
 579 898 579 898 520 910 c 1,66,67
 453 910 453 910 403.5 880 c 128,-1,68
 354 850 354 850 320.5 797.5 c 128,-1,69
 287 745 287 745 270.5 675.5 c 128,-1,70
 254 606 254 606 254 530 c 2,71,-1
 254 509 l 2,50,51
EndSplineSet
Validated: 1
EndChar

StartChar: epsilon
Encoding: 949 949 161
Width: 1024
GlyphClass: 2
Flags: W
LayerCount: 2
Fore
SplineSet
513 478 m 2,0,1
 393 478 393 478 331.5 437.5 c 128,-1,2
 270 397 270 397 270 304 c 0,3,4
 270 267 270 267 286.5 235 c 128,-1,5
 303 203 303 203 335 179.5 c 128,-1,6
 367 156 367 156 414.5 142.5 c 128,-1,7
 462 129 462 129 523 129 c 0,8,9
 578 129 578 129 624.5 144 c 128,-1,10
 671 159 671 159 704.5 185.5 c 128,-1,11
 738 212 738 212 757 246.5 c 128,-1,12
 776 281 776 281 776 320 c 1,13,-1
 930 320 l 1,14,15
 929 261 929 261 912.5 212.5 c 128,-1,16
 896 164 896 164 867.5 126.5 c 128,-1,17
 839 89 839 89 800 61.5 c 128,-1,18
 761 34 761 34 716.5 15.5 c 128,-1,19
 672 -3 672 -3 622.5 -11.5 c 128,-1,20
 573 -20 573 -20 523 -20 c 0,21,22
 433 -20 433 -20 358.5 1.5 c 128,-1,23
 284 23 284 23 229.5 64.5 c 128,-1,24
 175 106 175 106 145 166 c 128,-1,25
 115 226 115 226 115 304 c 0,26,27
 115 399 115 399 162 462 c 128,-1,28
 209 525 209 525 297 556 c 1,29,30
 218 591 218 591 174.5 651.5 c 128,-1,31
 131 712 131 712 131 787 c 0,32,33
 131 865 131 865 158.5 923.5 c 128,-1,34
 186 982 186 982 237 1021.5 c 128,-1,35
 288 1061 288 1061 360.5 1081 c 128,-1,36
 433 1101 433 1101 523 1101 c 0,37,38
 602 1101 602 1101 673 1079 c 128,-1,39
 744 1057 744 1057 797.5 1015.5 c 128,-1,40
 851 974 851 974 882.5 914.5 c 128,-1,41
 914 855 914 855 915 780 c 1,42,-1
 761 780 l 1,43,44
 761 817 761 817 741.5 848.5 c 128,-1,45
 722 880 722 880 689.5 902.5 c 128,-1,46
 657 925 657 925 614 938 c 128,-1,47
 571 951 571 951 523 951 c 0,48,49
 461 951 461 951 416 938 c 128,-1,50
 371 925 371 925 342 902.5 c 128,-1,51
 313 880 313 880 299.5 850 c 128,-1,52
 286 820 286 820 286 786 c 0,53,54
 286 749 286 749 298 719.5 c 128,-1,55
 310 690 310 690 337.5 669 c 128,-1,56
 365 648 365 648 408.5 637 c 128,-1,57
 452 626 452 626 513 626 c 2,58,-1
 715 626 l 1,59,-1
 715 478 l 1,60,-1
 513 478 l 2,0,1
EndSplineSet
Validated: 1
EndChar

StartChar: zeta
Encoding: 950 950 162
Width: 1024
GlyphClass: 2
Flags: W
LayerCount: 2
Fore
SplineSet
889 1456 m 1,0,-1
 889 1336 l 1,1,-1
 550 909 l 2,2,3
 493 843 493 843 447 784.5 c 128,-1,4
 401 726 401 726 369 666 c 128,-1,5
 337 606 337 606 320 541 c 128,-1,6
 303 476 303 476 303 398 c 0,7,8
 303 299 303 299 341 250 c 128,-1,9
 379 201 379 201 454 183 c 2,10,-1
 638 133 l 2,11,12
 683 121 683 121 722.5 108 c 128,-1,13
 762 95 762 95 791 72 c 128,-1,14
 820 49 820 49 837 11.5 c 128,-1,15
 854 -26 854 -26 854 -88 c 0,16,17
 853 -127 853 -127 838.5 -170 c 128,-1,18
 824 -213 824 -213 802.5 -252.5 c 128,-1,19
 781 -292 781 -292 755 -326.5 c 128,-1,20
 729 -361 729 -361 706 -383 c 1,21,-1
 624 -299 l 1,22,23
 665 -245 665 -245 685.5 -202.5 c 128,-1,24
 706 -160 706 -160 706 -116 c 0,25,26
 706 -81 706 -81 675 -53 c 128,-1,27
 644 -25 644 -25 578 -9 c 2,28,-1
 427 26 l 2,29,30
 353 42 353 42 300.5 71.5 c 128,-1,31
 248 101 248 101 214.5 145.5 c 128,-1,32
 181 190 181 190 165 251 c 128,-1,33
 149 312 149 312 149 393 c 0,34,35
 149 450 149 450 166.5 517.5 c 128,-1,36
 184 585 184 585 220 661 c 128,-1,37
 256 737 256 737 312 819 c 128,-1,38
 368 901 368 901 444 988 c 1,39,-1
 698 1304 l 1,40,-1
 97 1304 l 1,41,-1
 97 1456 l 1,42,-1
 889 1456 l 1,0,-1
EndSplineSet
Validated: 1
EndChar

StartChar: eta
Encoding: 951 951 163
Width: 1024
GlyphClass: 2
Flags: W
LayerCount: 2
Fore
SplineSet
275 1082 m 1,0,-1
 286 922 l 1,1,2
 332 1006 332 1006 402 1053.5 c 128,-1,3
 472 1101 472 1101 565 1102 c 0,4,5
 640 1102 640 1102 699 1080 c 128,-1,6
 758 1058 758 1058 799.5 1008.5 c 128,-1,7
 841 959 841 959 863.5 879.5 c 128,-1,8
 886 800 886 800 886 685 c 2,9,-1
 886 -415 l 1,10,-1
 731 -415 l 1,11,-1
 731 681 l 2,12,13
 731 825 731 825 678 887.5 c 128,-1,14
 625 950 625 950 520 950 c 0,15,16
 436 950 436 950 379.5 911.5 c 128,-1,17
 323 873 323 873 291 808 c 1,18,-1
 291 0 l 1,19,-1
 136 0 l 1,20,-1
 136 1082 l 1,21,-1
 275 1082 l 1,0,-1
EndSplineSet
Validated: 1
EndChar

StartChar: theta
Encoding: 952 952 164
Width: 1024
GlyphClass: 2
Flags: W
LayerCount: 2
Fore
SplineSet
870 557 m 2,0,1
 870 419 870 419 846.5 311.5 c 128,-1,2
 823 204 823 204 777 130.5 c 128,-1,3
 731 57 731 57 664.5 18.5 c 128,-1,4
 598 -20 598 -20 513 -20 c 128,-1,5
 428 -20 428 -20 361.5 18.5 c 128,-1,6
 295 57 295 57 249 130.5 c 128,-1,7
 203 204 203 204 178.5 311.5 c 128,-1,8
 154 419 154 419 154 557 c 2,9,-1
 154 898 l 2,10,11
 154 1036 154 1036 178 1143.5 c 128,-1,12
 202 1251 202 1251 247.5 1325.5 c 128,-1,13
 293 1400 293 1400 360 1438.5 c 128,-1,14
 427 1477 427 1477 511 1477 c 0,15,16
 596 1477 596 1477 663 1438.5 c 128,-1,17
 730 1400 730 1400 776 1325.5 c 128,-1,18
 822 1251 822 1251 846 1143.5 c 128,-1,19
 870 1036 870 1036 870 898 c 2,20,-1
 870 557 l 2,0,1
716 659 m 1,21,-1
 307 659 l 1,22,-1
 307 518 l 2,23,24
 307 332 307 332 357.5 231 c 128,-1,25
 408 130 408 130 513 130 c 256,26,27
 618 130 618 130 667 231 c 128,-1,28
 716 332 716 332 716 518 c 2,29,-1
 716 659 l 1,21,-1
307 810 m 1,30,-1
 716 810 l 1,31,-1
 716 939 l 2,32,33
 716 1125 716 1125 667 1225 c 128,-1,34
 618 1325 618 1325 511 1325 c 0,35,36
 406 1325 406 1325 356.5 1225 c 128,-1,37
 307 1125 307 1125 307 939 c 2,38,-1
 307 810 l 1,30,-1
EndSplineSet
Validated: 1
EndChar

StartChar: iota
Encoding: 953 953 165
Width: 1024
GlyphClass: 2
Flags: W
LayerCount: 2
Fore
SplineSet
153 1082 m 1,0,-1
 598 1082 l 1,1,-1
 599 322 l 2,2,3
 599 257 599 257 610.5 219.5 c 128,-1,4
 622 182 622 182 641.5 163.5 c 128,-1,5
 661 145 661 145 686 140 c 128,-1,6
 711 135 711 135 738 135 c 0,7,8
 775 135 775 135 807.5 149 c 128,-1,9
 840 163 840 163 864 180 c 1,10,-1
 898 50 l 1,11,12
 847 6 847 6 798.5 -7 c 128,-1,13
 750 -20 750 -20 699 -20 c 0,14,15
 639 -20 639 -20 592 -3 c 128,-1,16
 545 14 545 14 512.5 55 c 128,-1,17
 480 96 480 96 462.5 163.5 c 128,-1,18
 445 231 445 231 445 332 c 2,19,-1
 445 921 l 1,20,-1
 153 921 l 1,21,-1
 153 1082 l 1,0,-1
EndSplineSet
Validated: 1
EndChar

StartChar: kappa
Encoding: 954 954 166
Width: 1024
GlyphClass: 2
Flags: W
LayerCount: 2
Fore
SplineSet
432 477 m 1,0,-1
 308 344 l 1,1,-1
 308 0 l 1,2,-1
 154 0 l 1,3,-1
 154 1082 l 1,4,-1
 308 1082 l 1,5,-1
 308 551 l 1,6,-1
 399 671 l 1,7,-1
 730 1082 l 1,8,-1
 915 1082 l 1,9,-1
 536 603 l 1,10,-1
 945 0 l 1,11,-1
 750 0 l 1,12,-1
 432 477 l 1,0,-1
EndSplineSet
Validated: 1
EndChar

StartChar: lambda
Encoding: 955 955 167
Width: 1024
GlyphClass: 2
Flags: W
LayerCount: 2
Fore
SplineSet
218 0 m 1,0,-1
 47 0 l 1,1,-1
 375 1032 l 1,2,-1
 330 1175 l 2,3,4
 318 1210 318 1210 304 1244.5 c 128,-1,5
 290 1279 290 1279 271.5 1306 c 128,-1,6
 253 1333 253 1333 230.5 1349.5 c 128,-1,7
 208 1366 208 1366 179 1366 c 0,8,9
 168 1366 168 1366 151.5 1364 c 128,-1,10
 135 1362 135 1362 125 1361 c 1,11,-1
 124 1503 l 1,12,13
 139 1508 139 1508 163.5 1513 c 128,-1,14
 188 1518 188 1518 209 1518 c 0,15,16
 269 1518 269 1518 313 1491 c 128,-1,17
 357 1464 357 1464 388 1423.5 c 128,-1,18
 419 1383 419 1383 439.5 1335.5 c 128,-1,19
 460 1288 460 1288 472 1248 c 2,20,-1
 773 298 l 2,21,22
 781 265 781 265 793 237 c 128,-1,23
 805 209 805 209 819 188.5 c 128,-1,24
 833 168 833 168 850.5 156 c 128,-1,25
 868 144 868 144 888 144 c 0,26,27
 895 144 895 144 899 144 c 128,-1,28
 903 144 903 144 907 145 c 128,-1,29
 911 146 911 146 915 146.5 c 128,-1,30
 919 147 919 147 926 149 c 1,31,-1
 925 -2 l 1,32,33
 916 -8 916 -8 901 -12.5 c 128,-1,34
 886 -17 886 -17 876 -17 c 0,35,36
 827 -17 827 -17 788.5 0 c 128,-1,37
 750 17 750 17 720 50.5 c 128,-1,38
 690 84 690 84 666 134 c 128,-1,39
 642 184 642 184 623 250 c 2,40,-1
 447 805 l 1,41,-1
 423 686 l 1,42,-1
 218 0 l 1,0,-1
EndSplineSet
Validated: 1
EndChar

StartChar: xi
Encoding: 958 958 170
Width: 1024
GlyphClass: 2
Flags: W
LayerCount: 2
Fore
SplineSet
843 1288 m 1,0,1
 796 1303 796 1303 748.5 1313.5 c 128,-1,2
 701 1324 701 1324 651 1324 c 0,3,4
 572 1324 572 1324 516 1309 c 128,-1,5
 460 1294 460 1294 424 1268.5 c 128,-1,6
 388 1243 388 1243 371 1209 c 128,-1,7
 354 1175 354 1175 354 1136 c 0,8,9
 354 1085 354 1085 371 1044.5 c 128,-1,10
 388 1004 388 1004 427 975.5 c 128,-1,11
 466 947 466 947 526 932 c 128,-1,12
 586 917 586 917 671 917 c 2,13,-1
 789 917 l 1,14,-1
 789 765 l 1,15,-1
 671 765 l 2,16,17
 488 765 488 765 393.5 687 c 128,-1,18
 299 609 299 609 299 444 c 0,19,20
 299 376 299 376 321.5 325 c 128,-1,21
 344 274 344 274 383 237 c 128,-1,22
 422 200 422 200 473 177 c 128,-1,23
 524 154 524 154 579 142 c 2,24,-1
 672 117 l 2,25,26
 717 104 717 104 756 91.5 c 128,-1,27
 795 79 795 79 824.5 56.5 c 128,-1,28
 854 34 854 34 871 -3 c 128,-1,29
 888 -40 888 -40 888 -101 c 0,30,31
 887 -140 887 -140 872.5 -182 c 128,-1,32
 858 -224 858 -224 836 -263.5 c 128,-1,33
 814 -303 814 -303 788.5 -337 c 128,-1,34
 763 -371 763 -371 740 -393 c 1,35,-1
 660 -309 l 1,36,37
 680 -282 680 -282 695 -261 c 128,-1,38
 710 -240 710 -240 720 -219.5 c 128,-1,39
 730 -199 730 -199 735.5 -176.5 c 128,-1,40
 741 -154 741 -154 741 -125 c 0,41,42
 740 -81 740 -81 708 -59.5 c 128,-1,43
 676 -38 676 -38 612 -21 c 2,44,-1
 564 -8 l 2,45,46
 469 14 469 14 392 46.5 c 128,-1,47
 315 79 315 79 260 130.5 c 128,-1,48
 205 182 205 182 175 259 c 128,-1,49
 145 336 145 336 145 448 c 0,50,51
 145 524 145 524 164.5 587 c 128,-1,52
 184 650 184 650 221 699 c 128,-1,53
 258 748 258 748 310.5 784 c 128,-1,54
 363 820 363 820 428 842 c 1,55,56
 374 863 374 863 332 892.5 c 128,-1,57
 290 922 290 922 260.5 959 c 128,-1,58
 231 996 231 996 215 1039.5 c 128,-1,59
 199 1083 199 1083 199 1132 c 0,60,61
 199 1215 199 1215 230 1279 c 128,-1,62
 261 1343 261 1343 320 1387 c 128,-1,63
 379 1431 379 1431 462 1453.5 c 128,-1,64
 545 1476 545 1476 649 1476 c 0,65,66
 708 1476 708 1476 766 1465 c 128,-1,67
 824 1454 824 1454 864 1437 c 1,68,-1
 843 1288 l 1,0,1
EndSplineSet
Validated: 1
EndChar

StartChar: pi
Encoding: 960 960 172
Width: 1024
GlyphClass: 2
Flags: W
LayerCount: 2
Fore
SplineSet
913 929 m 1,0,-1
 794 929 l 1,1,-1
 794 268 l 2,2,3
 794 224 794 224 801 198.5 c 128,-1,4
 808 173 808 173 819.5 159 c 128,-1,5
 831 145 831 145 846.5 141 c 128,-1,6
 862 137 862 137 880 137 c 0,7,8
 902 137 902 137 922 145 c 128,-1,9
 942 153 942 153 956 162 c 1,10,-1
 990 32 l 1,11,12
 951 0 951 0 915 -9.5 c 128,-1,13
 879 -19 879 -19 840 -19 c 0,14,15
 793 -19 793 -19 755.5 -4 c 128,-1,16
 718 11 718 11 692.5 45.5 c 128,-1,17
 667 80 667 80 654 137 c 128,-1,18
 641 194 641 194 641 278 c 2,19,-1
 641 929 l 1,20,-1
 337 929 l 1,21,-1
 337 0 l 1,22,-1
 183 0 l 1,23,-1
 183 929 l 1,24,-1
 74 929 l 1,25,-1
 74 1082 l 1,26,-1
 913 1082 l 1,27,-1
 913 929 l 1,0,-1
EndSplineSet
Validated: 1
EndChar

StartChar: rho
Encoding: 961 961 173
Width: 1024
GlyphClass: 2
Flags: W
LayerCount: 2
Fore
SplineSet
908 500 m 2,0,1
 908 388 908 388 885.5 292.5 c 128,-1,2
 863 197 863 197 819.5 127.5 c 128,-1,3
 776 58 776 58 711.5 19 c 128,-1,4
 647 -20 647 -20 563 -20 c 0,5,6
 475 -20 475 -20 407.5 14 c 128,-1,7
 340 48 340 48 291 112 c 1,8,-1
 291 -416 l 1,9,-1
 137 -416 l 1,10,-1
 137 577 l 1,11,-1
 137 578 l 2,12,13
 137 705 137 705 167.5 803 c 128,-1,14
 198 901 198 901 250.5 967.5 c 128,-1,15
 303 1034 303 1034 373 1068 c 128,-1,16
 443 1102 443 1102 523 1102 c 0,17,18
 620 1102 620 1102 692.5 1058 c 128,-1,19
 765 1014 765 1014 813 936.5 c 128,-1,20
 861 859 861 859 884.5 753 c 128,-1,21
 908 647 908 647 908 521 c 2,22,-1
 908 500 l 2,0,1
755 521 m 2,23,24
 755 606 755 606 742.5 684 c 128,-1,25
 730 762 730 762 702.5 821 c 128,-1,26
 675 880 675 880 631 915 c 128,-1,27
 587 950 587 950 523 950 c 0,28,29
 482 950 482 950 449 934 c 128,-1,30
 416 918 416 918 390 890 c 128,-1,31
 364 862 364 862 345.5 825 c 128,-1,32
 327 788 327 788 315 746.5 c 128,-1,33
 303 705 303 705 297 661.5 c 128,-1,34
 291 618 291 618 291 577 c 2,35,-1
 291 284 l 1,36,37
 307 251 307 251 328 222.5 c 128,-1,38
 349 194 349 194 377 173.5 c 128,-1,39
 405 153 405 153 440 141.5 c 128,-1,40
 475 130 475 130 517 130 c 0,41,42
 580 130 580 130 625.5 159.5 c 128,-1,43
 671 189 671 189 699.5 240 c 128,-1,44
 728 291 728 291 741.5 358 c 128,-1,45
 755 425 755 425 755 500 c 2,46,-1
 755 521 l 2,23,24
EndSplineSet
Validated: 1
EndChar

StartChar: sigma
Encoding: 963 963 174
Width: 1024
GlyphClass: 2
Flags: W
LayerCount: 2
Fore
SplineSet
961 929 m 1,0,-1
 726 929 l 1,1,2
 807 857 807 857 849.5 751.5 c 128,-1,3
 892 646 892 646 892 514 c 2,4,-1
 892 491 l 2,5,6
 892 392 892 392 865 300 c 128,-1,7
 838 208 838 208 787 137 c 128,-1,8
 736 66 736 66 661.5 23 c 128,-1,9
 587 -20 587 -20 492 -20 c 128,-1,10
 397 -20 397 -20 322 22 c 128,-1,11
 247 64 247 64 195.5 138 c 128,-1,12
 144 212 144 212 117 312 c 128,-1,13
 90 412 90 412 90 529 c 2,14,-1
 90 551 l 2,15,16
 90 663 90 663 117 760.5 c 128,-1,17
 144 858 144 858 195.5 929 c 128,-1,18
 247 1000 247 1000 321.5 1041 c 128,-1,19
 396 1082 396 1082 491 1082 c 2,20,-1
 961 1082 l 1,21,-1
 961 929 l 1,0,-1
244 529 m 2,22,23
 244 449 244 449 259 376.5 c 128,-1,24
 274 304 274 304 304.5 249 c 128,-1,25
 335 194 335 194 381.5 162 c 128,-1,26
 428 130 428 130 492 130 c 0,27,28
 555 130 555 130 601.5 162 c 128,-1,29
 648 194 648 194 679 249 c 128,-1,30
 710 304 710 304 724.5 376.5 c 128,-1,31
 739 449 739 449 739 529 c 2,32,-1
 739 551 l 2,33,34
 739 627 739 627 724 695.5 c 128,-1,35
 709 764 709 764 678.5 816 c 128,-1,36
 648 868 648 868 601 898.5 c 128,-1,37
 554 929 554 929 491 929 c 128,-1,38
 428 929 428 929 381.5 898.5 c 128,-1,39
 335 868 335 868 304.5 816 c 128,-1,40
 274 764 274 764 259 695.5 c 128,-1,41
 244 627 244 627 244 551 c 2,42,-1
 244 529 l 2,22,23
EndSplineSet
Validated: 1
EndChar

StartChar: tau
Encoding: 964 964 175
Width: 1024
GlyphClass: 2
Flags: W
LayerCount: 2
Fore
SplineSet
892 924 m 1,0,-1
 597 924 l 1,1,-1
 596 324 l 2,2,3
 596 260 596 260 607 222.5 c 128,-1,4
 618 185 618 185 636.5 166 c 128,-1,5
 655 147 655 147 679 141.5 c 128,-1,6
 703 136 703 136 730 136 c 0,7,8
 767 136 767 136 799 149.5 c 128,-1,9
 831 163 831 163 853 180 c 1,10,-1
 887 49 l 1,11,12
 862 27 862 27 837.5 13.5 c 128,-1,13
 813 0 813 0 789 -7.5 c 128,-1,14
 765 -15 765 -15 740.5 -18 c 128,-1,15
 716 -21 716 -21 691 -21 c 0,16,17
 631 -21 631 -21 585.5 -3 c 128,-1,18
 540 15 540 15 508 56.5 c 128,-1,19
 476 98 476 98 459 165.5 c 128,-1,20
 442 233 442 233 442 334 c 2,21,-1
 442 924 l 1,22,-1
 144 924 l 1,23,-1
 144 1082 l 1,24,-1
 892 1082 l 1,25,-1
 892 924 l 1,0,-1
EndSplineSet
Validated: 1
EndChar

StartChar: upsilon
Encoding: 965 965 176
Width: 1024
GlyphClass: 2
Flags: W
LayerCount: 2
Fore
SplineSet
285 1082 m 1,0,-1
 285 463 l 2,1,2
 285 374 285 374 300.5 311 c 128,-1,3
 316 248 316 248 345 207.5 c 128,-1,4
 374 167 374 167 415.5 148.5 c 128,-1,5
 457 130 457 130 506 130 c 0,6,7
 570 130 570 130 616 168.5 c 128,-1,8
 662 207 662 207 691.5 268.5 c 128,-1,9
 721 330 721 330 735 407 c 128,-1,10
 749 484 749 484 749 562 c 0,11,12
 747 696 747 696 718 826.5 c 128,-1,13
 689 957 689 957 646 1082 c 1,14,-1
 808 1082 l 1,15,16
 827 1034 827 1034 844 977.5 c 128,-1,17
 861 921 861 921 874 856 c 128,-1,18
 887 791 887 791 894.5 717.5 c 128,-1,19
 902 644 902 644 902 562 c 0,20,21
 902 448 902 448 880.5 342.5 c 128,-1,22
 859 237 859 237 812.5 156.5 c 128,-1,23
 766 76 766 76 692 28 c 128,-1,24
 618 -20 618 -20 514 -20 c 0,25,26
 423 -20 423 -20 352 9 c 128,-1,27
 281 38 281 38 232 97.5 c 128,-1,28
 183 157 183 157 157 248.5 c 128,-1,29
 131 340 131 340 131 465 c 2,30,-1
 131 1082 l 1,31,-1
 285 1082 l 1,0,-1
EndSplineSet
Validated: 1
EndChar

StartChar: phi
Encoding: 966 966 177
Width: 1024
GlyphClass: 2
Flags: W
LayerCount: 2
Fore
SplineSet
436 -14 m 1,0,1
 342 1 342 1 277 52.5 c 128,-1,2
 212 104 212 104 170.5 179.5 c 128,-1,3
 129 255 129 255 110 349.5 c 128,-1,4
 91 444 91 444 91 546 c 0,5,6
 91 716 91 716 142 853.5 c 128,-1,7
 193 991 193 991 300 1082 c 1,8,-1
 383 949 l 1,9,10
 346 908 346 908 320.5 859 c 128,-1,11
 295 810 295 810 278.5 757.5 c 128,-1,12
 262 705 262 705 254.5 651 c 128,-1,13
 247 597 247 597 245 545 c 0,14,15
 245 481 245 481 255.5 417 c 128,-1,16
 266 353 266 353 288 298.5 c 128,-1,17
 310 244 310 244 346.5 202.5 c 128,-1,18
 383 161 383 161 436 143 c 1,19,-1
 436 835 l 2,20,21
 436 883 436 883 448.5 927.5 c 128,-1,22
 461 972 461 972 486 1006.5 c 128,-1,23
 511 1041 511 1041 550 1061.5 c 128,-1,24
 589 1082 589 1082 642 1082 c 0,25,26
 707 1082 707 1082 762.5 1040 c 128,-1,27
 818 998 818 998 859.5 925.5 c 128,-1,28
 901 853 901 853 925 754.5 c 128,-1,29
 949 656 949 656 949 544 c 0,30,31
 949 443 949 443 929 349 c 128,-1,32
 909 255 909 255 866 179 c 128,-1,33
 823 103 823 103 754.5 51.5 c 128,-1,34
 686 0 686 0 589 -15 c 1,35,-1
 589 -478 l 1,36,-1
 436 -478 l 1,37,-1
 436 -14 l 1,0,1
589 141 m 1,38,39
 645 159 645 159 684 200 c 128,-1,40
 723 241 723 241 748 296.5 c 128,-1,41
 773 352 773 352 784 416.5 c 128,-1,42
 795 481 795 481 795 544 c 0,43,44
 793 614 793 614 783.5 683 c 128,-1,45
 774 752 774 752 755.5 806.5 c 128,-1,46
 737 861 737 861 709 895 c 128,-1,47
 681 929 681 929 642 929 c 0,48,49
 615 929 615 929 602.5 905 c 128,-1,50
 590 881 590 881 589 842 c 2,51,-1
 589 141 l 1,38,39
EndSplineSet
Validated: 1
EndChar

StartChar: psi
Encoding: 968 968 179
Width: 1024
GlyphClass: 2
Flags: W
LayerCount: 2
Fore
SplineSet
581 1082 m 1,0,-1
 581 140 l 1,1,2
 642 158 642 158 684 201 c 128,-1,3
 726 244 726 244 752.5 302.5 c 128,-1,4
 779 361 779 361 791 430 c 128,-1,5
 803 499 803 499 803 567 c 0,6,7
 801 701 801 701 780.5 829 c 128,-1,8
 760 957 760 957 729 1082 c 1,9,-1
 891 1082 l 1,10,11
 918 987 918 987 937 859 c 128,-1,12
 956 731 956 731 956 567 c 0,13,14
 956 460 956 460 936 361 c 128,-1,15
 916 262 916 262 872 183 c 128,-1,16
 828 104 828 104 756.5 51.5 c 128,-1,17
 685 -1 685 -1 581 -15 c 1,18,-1
 581 -472 l 1,19,-1
 427 -472 l 1,20,-1
 427 -13 l 1,21,22
 345 1 345 1 281 45 c 128,-1,23
 217 89 217 89 172 165 c 128,-1,24
 127 241 127 241 104 348.5 c 128,-1,25
 81 456 81 456 81 596 c 2,26,-1
 81 1082 l 1,27,-1
 234 1082 l 1,28,-1
 234 594 l 2,29,30
 234 491 234 491 247.5 413 c 128,-1,31
 261 335 261 335 286.5 279.5 c 128,-1,32
 312 224 312 224 347.5 190.5 c 128,-1,33
 383 157 383 157 427 142 c 1,34,-1
 427 1082 l 1,35,-1
 581 1082 l 1,0,-1
EndSplineSet
Validated: 1
EndChar

StartChar: omega
Encoding: 969 969 180
Width: 1024
GlyphClass: 2
Flags: W
LayerCount: 2
Fore
SplineSet
306 1082 m 1,0,1
 269 956 269 956 245 825.5 c 128,-1,2
 221 695 221 695 219 560 c 0,3,4
 219 476 219 476 224 398.5 c 128,-1,5
 229 321 229 321 241 261 c 128,-1,6
 253 201 253 201 272 165.5 c 128,-1,7
 291 130 291 130 320 130 c 0,8,9
 376 130 376 130 406.5 213 c 128,-1,10
 437 296 437 296 437 471 c 2,11,-1
 437 770 l 1,12,-1
 592 770 l 1,13,-1
 592 471 l 2,14,15
 592 296 592 296 623 213 c 128,-1,16
 654 130 654 130 709 130 c 0,17,18
 737 130 737 130 756.5 165.5 c 128,-1,19
 776 201 776 201 788 260 c 128,-1,20
 800 319 800 319 805 397 c 128,-1,21
 810 475 810 475 810 560 c 0,22,23
 808 695 808 695 784 825.5 c 128,-1,24
 760 956 760 956 723 1082 c 1,25,-1
 884 1082 l 1,26,27
 917 985 917 985 940.5 855 c 128,-1,28
 964 725 964 725 964 560 c 0,29,30
 964 449 964 449 951.5 344.5 c 128,-1,31
 939 240 939 240 910 159 c 128,-1,32
 881 78 881 78 833.5 29 c 128,-1,33
 786 -20 786 -20 717 -20 c 0,34,35
 642 -20 642 -20 591.5 34.5 c 128,-1,36
 541 89 541 89 515 191 c 1,37,38
 488 89 488 89 437.5 34.5 c 128,-1,39
 387 -20 387 -20 312 -20 c 0,40,41
 243 -20 243 -20 196 29 c 128,-1,42
 149 78 149 78 119.5 159 c 128,-1,43
 90 240 90 240 78 344.5 c 128,-1,44
 66 449 66 449 66 560 c 0,45,46
 66 725 66 725 89 855 c 128,-1,47
 112 985 112 985 145 1082 c 1,48,-1
 306 1082 l 1,0,1
EndSplineSet
Validated: 1
EndChar

StartChar: uni0401
Encoding: 1025 1025 181
Width: 1024
GlyphClass: 2
Flags: W
LayerCount: 2
Fore
SplineSet
605 1723 m 128,-1,1
 605 1769 605 1769 638 1802 c 128,-1,2
 671 1835 671 1835 717 1835 c 128,-1,3
 763 1835 763 1835 796 1802 c 128,-1,4
 829 1769 829 1769 829 1723 c 128,-1,5
 829 1677 829 1677 796 1644 c 128,-1,6
 763 1611 763 1611 717 1611 c 128,-1,7
 671 1611 671 1611 638 1644 c 128,-1,0
 605 1677 605 1677 605 1723 c 128,-1,1
205 1723 m 128,-1,9
 205 1769 205 1769 238 1802 c 128,-1,10
 271 1835 271 1835 317 1835 c 128,-1,11
 363 1835 363 1835 396 1802 c 128,-1,12
 429 1769 429 1769 429 1723 c 128,-1,13
 429 1677 429 1677 396 1644 c 128,-1,14
 363 1611 363 1611 317 1611 c 128,-1,15
 271 1611 271 1611 238 1644 c 128,-1,8
 205 1677 205 1677 205 1723 c 128,-1,9
810 673 m 1,16,-1
 305 673 l 1,17,-1
 305 157 l 1,18,-1
 894 157 l 1,19,-1
 894 0 l 1,20,-1
 151 0 l 1,21,-1
 151 1456 l 1,22,-1
 887 1456 l 1,23,-1
 887 1298 l 1,24,-1
 305 1298 l 1,25,-1
 305 830 l 1,26,-1
 810 830 l 1,27,-1
 810 673 l 1,16,-1
EndSplineSet
Validated: 1
EndChar

StartChar: uni0411
Encoding: 1041 1041 183
Width: 1024
GlyphClass: 2
Flags: W
LayerCount: 2
Fore
SplineSet
874 1304 m 1,0,-1
 289 1304 l 1,1,-1
 289 857 l 1,2,-1
 510 857 l 2,3,4
 606 857 606 857 681 827 c 128,-1,5
 756 797 756 797 807.5 741.5 c 128,-1,6
 859 686 859 686 886 608 c 128,-1,7
 913 530 913 530 913 433 c 0,8,9
 913 337 913 337 886 257 c 128,-1,10
 859 177 859 177 807.5 120 c 128,-1,11
 756 63 756 63 681 31.5 c 128,-1,12
 606 0 606 0 510 0 c 2,13,-1
 134 0 l 1,14,-1
 134 1456 l 1,15,-1
 874 1456 l 1,16,-1
 874 1304 l 1,0,-1
289 706 m 1,17,-1
 289 151 l 1,18,-1
 510 151 l 2,19,20
 575 151 575 151 621.5 174 c 128,-1,21
 668 197 668 197 699 236 c 128,-1,22
 730 275 730 275 744.5 326.5 c 128,-1,23
 759 378 759 378 759 435 c 0,24,25
 759 491 759 491 744.5 540.5 c 128,-1,26
 730 590 730 590 699 626.5 c 128,-1,27
 668 663 668 663 621 684.5 c 128,-1,28
 574 706 574 706 510 706 c 2,29,-1
 289 706 l 1,17,-1
EndSplineSet
Validated: 1
EndChar

StartChar: uni0414
Encoding: 1044 1044 186
Width: 1024
GlyphClass: 2
Flags: W
LayerCount: 2
Fore
SplineSet
935 -357 m 1,0,-1
 796 -357 l 1,1,-1
 796 0 l 1,2,-1
 211 0 l 1,3,-1
 211 -359 l 1,4,-1
 81 -359 l 1,5,-1
 58 151 l 1,6,-1
 112 151 l 1,7,8
 150 181 150 181 179 237.5 c 128,-1,9
 208 294 208 294 229 381.5 c 128,-1,10
 250 469 250 469 262.5 590 c 128,-1,11
 275 711 275 711 279 871 c 2,12,-1
 305 1456 l 1,13,-1
 844 1456 l 1,14,-1
 844 151 l 1,15,-1
 950 151 l 1,16,-1
 935 -357 l 1,0,-1
434 871 m 2,17,18
 427 629 427 629 399.5 446.5 c 128,-1,19
 372 264 372 264 319 151 c 1,20,-1
 691 151 l 1,21,-1
 691 1304 l 1,22,-1
 452 1304 l 1,23,-1
 434 871 l 2,17,18
EndSplineSet
Validated: 1
EndChar

StartChar: uni0416
Encoding: 1046 1046 188
Width: 1024
GlyphClass: 2
Flags: W
LayerCount: 2
Fore
SplineSet
633 651 m 1,0,-1
 589 651 l 1,1,-1
 589 0 l 1,2,-1
 437 0 l 1,3,-1
 437 651 l 1,4,-1
 385 651 l 1,5,-1
 215 0 l 1,6,-1
 24 0 l 1,7,-1
 247 727 l 1,8,-1
 56 1456 l 1,9,-1
 235 1456 l 1,10,-1
 379 803 l 1,11,-1
 437 803 l 1,12,-1
 437 1456 l 1,13,-1
 589 1456 l 1,14,-1
 589 803 l 1,15,-1
 640 803 l 1,16,-1
 784 1456 l 1,17,-1
 963 1456 l 1,18,-1
 770 729 l 1,19,-1
 994 0 l 1,20,-1
 804 0 l 1,21,-1
 633 651 l 1,0,-1
EndSplineSet
Validated: 1
EndChar

StartChar: uni0417
Encoding: 1047 1047 189
Width: 1024
GlyphClass: 2
Flags: W
LayerCount: 2
Fore
SplineSet
510 818 m 2,0,1
 642 819 642 819 706 886.5 c 128,-1,2
 770 954 770 954 770 1066 c 0,3,4
 770 1121 770 1121 753 1168 c 128,-1,5
 736 1215 736 1215 702 1250 c 128,-1,6
 668 1285 668 1285 617.5 1305 c 128,-1,7
 567 1325 567 1325 499 1325 c 0,8,9
 447 1325 447 1325 400.5 1306.5 c 128,-1,10
 354 1288 354 1288 320 1254.5 c 128,-1,11
 286 1221 286 1221 265.5 1175 c 128,-1,12
 245 1129 245 1129 245 1075 c 1,13,-1
 91 1075 l 1,14,15
 91 1168 91 1168 124 1242.5 c 128,-1,16
 157 1317 157 1317 213 1368.5 c 128,-1,17
 269 1420 269 1420 343 1448 c 128,-1,18
 417 1476 417 1476 499 1476 c 0,19,20
 594 1476 594 1476 672.5 1450 c 128,-1,21
 751 1424 751 1424 807 1372 c 128,-1,22
 863 1320 863 1320 894 1242 c 128,-1,23
 925 1164 925 1164 925 1062 c 0,24,25
 924 959 924 959 871 877 c 128,-1,26
 818 795 818 795 727 747 c 1,27,28
 831 705 831 705 887 620 c 128,-1,29
 943 535 943 535 943 406 c 0,30,31
 943 303 943 303 909.5 223.5 c 128,-1,32
 876 144 876 144 816.5 89.5 c 128,-1,33
 757 35 757 35 675.5 7 c 128,-1,34
 594 -21 594 -21 499 -21 c 0,35,36
 420 -21 420 -21 344 3.5 c 128,-1,37
 268 28 268 28 208.5 80 c 128,-1,38
 149 132 149 132 111.5 212.5 c 128,-1,39
 74 293 74 293 74 404 c 1,40,-1
 228 404 l 1,41,42
 228 347 228 347 248 297 c 128,-1,43
 268 247 268 247 304 210 c 128,-1,44
 340 173 340 173 389.5 151.5 c 128,-1,45
 439 130 439 130 499 130 c 0,46,47
 566 130 566 130 619.5 150 c 128,-1,48
 673 170 673 170 711 206 c 128,-1,49
 749 242 749 242 769 292 c 128,-1,50
 789 342 789 342 789 402 c 0,51,52
 789 471 789 471 770 520.5 c 128,-1,53
 751 570 751 570 715.5 602.5 c 128,-1,54
 680 635 680 635 628 650.5 c 128,-1,55
 576 666 576 666 510 666 c 2,56,-1
 359 666 l 1,57,-1
 359 818 l 1,58,-1
 510 818 l 2,0,1
EndSplineSet
Validated: 1
EndChar

StartChar: uni0418
Encoding: 1048 1048 190
Width: 1024
GlyphClass: 2
Flags: W
LayerCount: 2
Fore
SplineSet
731 1456 m 1,0,-1
 885 1456 l 1,1,-1
 885 0 l 1,2,-1
 731 0 l 1,3,-1
 732 1073 l 1,4,-1
 288 0 l 1,5,-1
 134 0 l 1,6,-1
 134 1456 l 1,7,-1
 288 1456 l 1,8,-1
 287 384 l 1,9,-1
 731 1456 l 1,0,-1
EndSplineSet
Validated: 1
EndChar

StartChar: uni0419
Encoding: 1049 1049 191
Width: 1024
GlyphClass: 2
Flags: W
LayerCount: 2
Fore
SplineSet
731 1456 m 1,0,-1
 885 1456 l 1,1,-1
 885 0 l 1,2,-1
 731 0 l 1,3,-1
 732 1073 l 1,4,-1
 288 0 l 1,5,-1
 134 0 l 1,6,-1
 134 1456 l 1,7,-1
 288 1456 l 1,8,-1
 287 384 l 1,9,-1
 731 1456 l 1,0,-1
752 1854 m 1,10,11
 752 1796 752 1796 735 1746 c 0,12,13
 719 1698 719 1698 685 1661 c 0,14,15
 653 1626 653 1626 607 1606 c 0,16,17
 561 1587 561 1587 505 1587 c 0,18,19
 448 1587 448 1587 402 1606.5 c 128,-1,20
 356 1626 356 1626 324 1661 c 128,-1,21
 292 1696 292 1696 274 1746 c 128,-1,22
 256 1796 256 1796 256 1854 c 1,23,-1
 380 1854 l 1,24,25
 380 1824 380 1824 388 1796 c 0,26,27
 395 1768 395 1768 410 1749 c 0,28,29
 425 1729 425 1729 448 1717 c 128,-1,30
 471 1705 471 1705 505 1705 c 0,31,32
 537 1705 537 1705 560 1717 c 128,-1,33
 583 1729 583 1729 598 1749 c 0,34,35
 613 1768 613 1768 620 1796 c 128,-1,36
 627 1824 627 1824 628 1854 c 1,37,-1
 752 1854 l 1,10,11
EndSplineSet
Validated: 1
EndChar

StartChar: uni041A
Encoding: 1050 1050 192
Width: 1024
GlyphClass: 2
Flags: W
LayerCount: 2
Fore
SplineSet
436 659 m 1,0,-1
 294 659 l 1,1,-1
 294 0 l 1,2,-1
 140 0 l 1,3,-1
 140 1456 l 1,4,-1
 294 1456 l 1,5,-1
 294 810 l 1,6,-1
 423 810 l 1,7,-1
 791 1456 l 1,8,-1
 967 1456 l 1,9,-1
 556 751 l 1,10,-1
 1001 0 l 1,11,-1
 813 0 l 1,12,-1
 436 659 l 1,0,-1
EndSplineSet
Validated: 1
EndChar

StartChar: uni041B
Encoding: 1051 1051 193
Width: 1024
GlyphClass: 2
Flags: W
LayerCount: 2
Fore
SplineSet
886 1456 m 1,0,-1
 886 0 l 1,1,-1
 732 0 l 1,2,-1
 732 1304 l 1,3,-1
 383 1304 l 1,4,-1
 381 680 l 2,5,6
 381 518 381 518 365 391.5 c 128,-1,7
 349 265 349 265 314 178 c 128,-1,8
 279 91 279 91 221.5 45.5 c 128,-1,9
 164 0 164 0 81 0 c 2,10,-1
 39 0 l 1,11,-1
 39 151 l 1,12,-1
 72 151 l 2,13,14
 157 151 157 151 192 285.5 c 128,-1,15
 227 420 227 420 227 680 c 2,16,-1
 231 1456 l 1,17,-1
 886 1456 l 1,0,-1
EndSplineSet
Validated: 1
EndChar

StartChar: uni0423
Encoding: 1059 1059 201
Width: 1024
GlyphClass: 2
Flags: W
LayerCount: 2
Fore
SplineSet
464 759 m 1,0,-1
 523 568 l 1,1,-1
 822 1456 l 1,2,-1
 1000 1456 l 1,3,-1
 556 240 l 2,4,5
 537 188 537 188 512.5 140.5 c 128,-1,6
 488 93 488 93 453 57 c 128,-1,7
 418 21 418 21 369 0 c 128,-1,8
 320 -21 320 -21 251 -21 c 0,9,10
 195 -21 195 -21 151 -9 c 128,-1,11
 107 3 107 3 85 14 c 1,12,-1
 105 155 l 1,13,14
 116 152 116 152 131.5 147.5 c 128,-1,15
 147 143 147 143 165 139 c 128,-1,16
 183 135 183 135 200.5 132.5 c 128,-1,17
 218 130 218 130 234 130 c 0,18,19
 272 130 272 130 301 143.5 c 128,-1,20
 330 157 330 157 352 179 c 128,-1,21
 374 201 374 201 388.5 229 c 128,-1,22
 403 257 403 257 414 285 c 2,23,-1
 449 370 l 1,24,-1
 36 1456 l 1,25,-1
 208 1456 l 1,26,-1
 464 759 l 1,0,-1
EndSplineSet
Validated: 1
EndChar

StartChar: uni0426
Encoding: 1062 1062 204
Width: 1024
GlyphClass: 2
Flags: W
LayerCount: 2
Fore
SplineSet
138 1456 m 1,0,-1
 291 1456 l 1,1,-1
 291 151 l 1,2,-1
 724 151 l 1,3,-1
 724 1456 l 1,4,-1
 877 1456 l 1,5,-1
 877 156 l 1,6,-1
 999 156 l 1,7,-1
 984 -351 l 1,8,-1
 847 -351 l 1,9,-1
 847 0 l 1,10,-1
 138 0 l 1,11,-1
 138 1456 l 1,0,-1
EndSplineSet
Validated: 1
EndChar

StartChar: uni0427
Encoding: 1063 1063 205
Width: 1024
GlyphClass: 2
Flags: W
LayerCount: 2
Fore
SplineSet
882 1456 m 1,0,-1
 882 0 l 1,1,-1
 729 0 l 1,2,-1
 729 603 l 1,3,4
 702 591 702 591 674.5 582 c 128,-1,5
 647 573 647 573 617.5 566 c 128,-1,6
 588 559 588 559 554 555.5 c 128,-1,7
 520 552 520 552 481 552 c 0,8,9
 400 552 400 552 337 576.5 c 128,-1,10
 274 601 274 601 231 655 c 128,-1,11
 188 709 188 709 165 794 c 128,-1,12
 142 879 142 879 142 1000 c 2,13,-1
 142 1456 l 1,14,-1
 296 1456 l 1,15,-1
 296 1000 l 2,16,17
 296 915 296 915 307 858.5 c 128,-1,18
 318 802 318 802 341 767.5 c 128,-1,19
 364 733 364 733 398.5 718.5 c 128,-1,20
 433 704 433 704 481 704 c 0,21,22
 550 704 550 704 609.5 718.5 c 128,-1,23
 669 733 669 733 729 757 c 1,24,-1
 729 1456 l 1,25,-1
 882 1456 l 1,0,-1
EndSplineSet
Validated: 1
EndChar

StartChar: uni0428
Encoding: 1064 1064 206
Width: 1024
GlyphClass: 2
Flags: W
LayerCount: 2
Fore
SplineSet
257 1456 m 1,0,-1
 257 151 l 1,1,-1
 434 151 l 1,2,-1
 434 1456 l 1,3,-1
 587 1456 l 1,4,-1
 587 151 l 1,5,-1
 764 151 l 1,6,-1
 764 1456 l 1,7,-1
 916 1456 l 1,8,-1
 916 0 l 1,9,-1
 104 0 l 1,10,-1
 104 1456 l 1,11,-1
 257 1456 l 1,0,-1
EndSplineSet
Validated: 1
EndChar

StartChar: uni0429
Encoding: 1065 1065 207
Width: 1024
GlyphClass: 2
Flags: W
LayerCount: 2
Fore
SplineSet
257 1456 m 1,0,-1
 257 151 l 1,1,-1
 434 151 l 1,2,-1
 434 1456 l 1,3,-1
 587 1456 l 1,4,-1
 587 151 l 1,5,-1
 711 151 l 1,6,-1
 711 152 l 1,7,-1
 764 152 l 1,8,-1
 764 1456 l 1,9,-1
 916 1456 l 1,10,-1
 916 152 l 1,11,-1
 991 152 l 1,12,-1
 976 -351 l 1,13,-1
 839 -351 l 1,14,-1
 839 0 l 1,15,-1
 104 0 l 1,16,-1
 104 1456 l 1,17,-1
 257 1456 l 1,0,-1
EndSplineSet
Validated: 1
EndChar

StartChar: uni042A
Encoding: 1066 1066 208
Width: 1024
GlyphClass: 2
Flags: W
LayerCount: 2
Fore
SplineSet
42 1456 m 1,0,-1
 448 1456 l 1,1,-1
 448 857 l 1,2,-1
 568 857 l 2,3,4
 660 857 660 857 731.5 826.5 c 128,-1,5
 803 796 803 796 851.5 740.5 c 128,-1,6
 900 685 900 685 925 607 c 128,-1,7
 950 529 950 529 950 433 c 0,8,9
 950 338 950 338 925 258.5 c 128,-1,10
 900 179 900 179 851.5 121.5 c 128,-1,11
 803 64 803 64 731.5 32 c 128,-1,12
 660 0 660 0 568 0 c 2,13,-1
 295 0 l 1,14,-1
 295 1304 l 1,15,-1
 42 1304 l 1,16,-1
 42 1456 l 1,0,-1
448 706 m 1,17,-1
 448 151 l 1,18,-1
 568 151 l 2,19,20
 629 151 629 151 672 174.5 c 128,-1,21
 715 198 715 198 742.5 237 c 128,-1,22
 770 276 770 276 783 327.5 c 128,-1,23
 796 379 796 379 796 435 c 0,24,25
 796 490 796 490 783 539.5 c 128,-1,26
 770 589 770 589 742.5 626 c 128,-1,27
 715 663 715 663 671.5 684.5 c 128,-1,28
 628 706 628 706 568 706 c 2,29,-1
 448 706 l 1,17,-1
EndSplineSet
Validated: 1
EndChar

StartChar: uni042B
Encoding: 1067 1067 209
Width: 1024
GlyphClass: 2
Flags: W
LayerCount: 2
Fore
SplineSet
273 857 m 1,0,-1
 349 857 l 2,1,2
 428 857 428 857 488.5 826.5 c 128,-1,3
 549 796 549 796 590 740.5 c 128,-1,4
 631 685 631 685 651.5 606.5 c 128,-1,5
 672 528 672 528 672 433 c 256,6,7
 672 338 672 338 651.5 258.5 c 128,-1,8
 631 179 631 179 590 121.5 c 128,-1,9
 549 64 549 64 488.5 32 c 128,-1,10
 428 0 428 0 349 0 c 2,11,-1
 120 0 l 1,12,-1
 120 1456 l 1,13,-1
 273 1456 l 1,14,-1
 273 857 l 1,0,-1
912 0 m 1,15,-1
 759 0 l 1,16,-1
 759 1456 l 1,17,-1
 912 1456 l 1,18,-1
 912 0 l 1,15,-1
273 706 m 1,19,-1
 273 151 l 1,20,-1
 349 151 l 2,21,22
 395 151 395 151 427.5 174.5 c 128,-1,23
 460 198 460 198 480 237.5 c 128,-1,24
 500 277 500 277 509 328 c 128,-1,25
 518 379 518 379 518 435 c 0,26,27
 518 490 518 490 509 539 c 128,-1,28
 500 588 500 588 479.5 625 c 128,-1,29
 459 662 459 662 427 684 c 128,-1,30
 395 706 395 706 349 706 c 2,31,-1
 273 706 l 1,19,-1
EndSplineSet
Validated: 1
EndChar

StartChar: uni042C
Encoding: 1068 1068 210
Width: 1024
GlyphClass: 2
Flags: W
LayerCount: 2
Fore
SplineSet
293 857 m 1,0,-1
 514 857 l 2,1,2
 610 857 610 857 685 827 c 128,-1,3
 760 797 760 797 811.5 741.5 c 128,-1,4
 863 686 863 686 890 608 c 128,-1,5
 917 530 917 530 917 433 c 0,6,7
 917 337 917 337 890 257 c 128,-1,8
 863 177 863 177 811.5 120 c 128,-1,9
 760 63 760 63 685 31.5 c 128,-1,10
 610 0 610 0 514 0 c 2,11,-1
 139 0 l 1,12,-1
 139 1456 l 1,13,-1
 293 1456 l 1,14,-1
 293 857 l 1,0,-1
293 706 m 1,15,-1
 293 151 l 1,16,-1
 514 151 l 2,17,18
 579 151 579 151 625.5 174 c 128,-1,19
 672 197 672 197 703 236 c 128,-1,20
 734 275 734 275 748.5 326.5 c 128,-1,21
 763 378 763 378 763 435 c 0,22,23
 763 491 763 491 748.5 540.5 c 128,-1,24
 734 590 734 590 703 626.5 c 128,-1,25
 672 663 672 663 625.5 684.5 c 128,-1,26
 579 706 579 706 514 706 c 2,27,-1
 293 706 l 1,15,-1
EndSplineSet
Validated: 1
EndChar

StartChar: uni042D
Encoding: 1069 1069 211
Width: 1024
GlyphClass: 2
Flags: W
LayerCount: 2
Fore
SplineSet
248 465 m 1,0,1
 249 389 249 389 265 327.5 c 128,-1,2
 281 266 281 266 312 222.5 c 128,-1,3
 343 179 343 179 388 155 c 128,-1,4
 433 131 433 131 492 131 c 0,5,6
 557 131 557 131 607.5 163 c 128,-1,7
 658 195 658 195 693 252 c 128,-1,8
 728 309 728 309 746.5 388 c 128,-1,9
 765 467 765 467 765 561 c 2,10,-1
 765 651 l 1,11,-1
 364 651 l 1,12,-1
 364 802 l 1,13,-1
 765 802 l 1,14,-1
 765 895 l 2,15,16
 765 989 765 989 747 1068.5 c 128,-1,17
 729 1148 729 1148 694 1205 c 128,-1,18
 659 1262 659 1262 608.5 1294 c 128,-1,19
 558 1326 558 1326 492 1326 c 0,20,21
 433 1326 433 1326 388 1302 c 128,-1,22
 343 1278 343 1278 312 1234.5 c 128,-1,23
 281 1191 281 1191 265 1128.5 c 128,-1,24
 249 1066 249 1066 248 990 c 1,25,-1
 95 990 l 1,26,27
 96 1091 96 1091 123.5 1180 c 128,-1,28
 151 1269 151 1269 203 1335 c 128,-1,29
 255 1401 255 1401 328 1439 c 128,-1,30
 401 1477 401 1477 492 1477 c 0,31,32
 589 1477 589 1477 668 1435 c 128,-1,33
 747 1393 747 1393 802.5 1316.5 c 128,-1,34
 858 1240 858 1240 888.5 1132.5 c 128,-1,35
 919 1025 919 1025 919 894 c 2,36,-1
 919 562 l 2,37,38
 919 431 919 431 888.5 324 c 128,-1,39
 858 217 858 217 802.5 140.5 c 128,-1,40
 747 64 747 64 668 22 c 128,-1,41
 589 -20 589 -20 492 -20 c 0,42,43
 401 -20 401 -20 328 14.5 c 128,-1,44
 255 49 255 49 203 112.5 c 128,-1,45
 151 176 151 176 123 265.5 c 128,-1,46
 95 355 95 355 95 465 c 1,47,-1
 248 465 l 1,0,1
EndSplineSet
Validated: 1
EndChar

StartChar: uni042E
Encoding: 1070 1070 212
Width: 1024
GlyphClass: 2
Flags: W
LayerCount: 2
Fore
SplineSet
938 515 m 2,0,1
 938 388 938 388 919 288.5 c 128,-1,2
 900 189 900 189 861.5 120.5 c 128,-1,3
 823 52 823 52 766.5 16 c 128,-1,4
 710 -20 710 -20 635 -20 c 0,5,6
 564 -20 564 -20 510 16 c 128,-1,7
 456 52 456 52 419.5 120.5 c 128,-1,8
 383 189 383 189 365 288.5 c 128,-1,9
 347 388 347 388 347 515 c 2,10,-1
 347 637 l 1,11,-1
 252 637 l 1,12,-1
 252 0 l 1,13,-1
 99 0 l 1,14,-1
 99 1456 l 1,15,-1
 252 1456 l 1,16,-1
 252 788 l 1,17,-1
 347 788 l 1,18,-1
 347 940 l 2,19,20
 347 1067 347 1067 365 1166.5 c 128,-1,21
 383 1266 383 1266 419 1335 c 128,-1,22
 455 1404 455 1404 509 1440 c 128,-1,23
 563 1476 563 1476 634 1476 c 0,24,25
 710 1476 710 1476 766.5 1440 c 128,-1,26
 823 1404 823 1404 861.5 1335 c 128,-1,27
 900 1266 900 1266 919 1166.5 c 128,-1,28
 938 1067 938 1067 938 940 c 2,29,-1
 938 515 l 2,0,1
784 942 m 2,30,31
 784 1130 784 1130 750.5 1224 c 128,-1,32
 717 1318 717 1318 634 1318 c 0,33,34
 597 1318 597 1318 571 1294.5 c 128,-1,35
 545 1271 545 1271 529.5 1224 c 128,-1,36
 514 1177 514 1177 507.5 1106.5 c 128,-1,37
 501 1036 501 1036 501 942 c 2,38,-1
 501 515 l 2,39,40
 501 420 501 420 507.5 349 c 128,-1,41
 514 278 514 278 529.5 231 c 128,-1,42
 545 184 545 184 571 160.5 c 128,-1,43
 597 137 597 137 635 137 c 0,44,45
 677 137 677 137 705.5 160.5 c 128,-1,46
 734 184 734 184 751.5 231 c 128,-1,47
 769 278 769 278 776.5 349 c 128,-1,48
 784 420 784 420 784 515 c 2,49,-1
 784 942 l 2,30,31
EndSplineSet
Validated: 1
EndChar

StartChar: uni042F
Encoding: 1071 1071 213
Width: 1024
GlyphClass: 2
Flags: W
LayerCount: 2
Fore
SplineSet
728 0 m 1,0,-1
 728 607 l 1,1,-1
 471 607 l 1,2,-1
 217 0 l 1,3,-1
 54 0 l 1,4,-1
 337 658 l 1,5,6
 221 709 221 709 159.5 803 c 128,-1,7
 98 897 98 897 98 1036 c 0,8,9
 98 1136 98 1136 127.5 1214.5 c 128,-1,10
 157 1293 157 1293 212 1346.5 c 128,-1,11
 267 1400 267 1400 345.5 1428 c 128,-1,12
 424 1456 424 1456 521 1456 c 2,13,-1
 882 1456 l 1,14,-1
 882 0 l 1,15,-1
 728 0 l 1,0,-1
252 1038 m 0,16,17
 252 979 252 979 269 928 c 128,-1,18
 286 877 286 877 319 839.5 c 128,-1,19
 352 802 352 802 402 781 c 128,-1,20
 452 760 452 760 516 760 c 2,21,-1
 728 760 l 1,22,-1
 728 1304 l 1,23,-1
 521 1304 l 2,24,25
 455 1304 455 1304 404.5 1285.5 c 128,-1,26
 354 1267 354 1267 320 1232.5 c 128,-1,27
 286 1198 286 1198 269 1148.5 c 128,-1,28
 252 1099 252 1099 252 1038 c 0,16,17
EndSplineSet
Validated: 1
EndChar

StartChar: uni0431
Encoding: 1073 1073 215
Width: 1024
GlyphClass: 2
Flags: W
LayerCount: 2
Fore
SplineSet
536 1020 m 0,0,1
 624 1020 624 1020 693 982.5 c 128,-1,2
 762 945 762 945 810 879.5 c 128,-1,3
 858 814 858 814 883.5 724.5 c 128,-1,4
 909 635 909 635 909 530 c 2,5,-1
 909 507 l 2,6,7
 909 394 909 394 882 298 c 128,-1,8
 855 202 855 202 803.5 131 c 128,-1,9
 752 60 752 60 677.5 20 c 128,-1,10
 603 -20 603 -20 509 -20 c 0,11,12
 414 -20 414 -20 339.5 20 c 128,-1,13
 265 60 265 60 213.5 131 c 128,-1,14
 162 202 162 202 134.5 298 c 128,-1,15
 107 394 107 394 107 507 c 2,16,-1
 107 530 l 1,17,-1
 107 537 l 1,18,-1
 107 606 l 2,19,20
 107 787 107 787 135.5 924.5 c 128,-1,21
 164 1062 164 1062 217 1158.5 c 128,-1,22
 270 1255 270 1255 345 1312.5 c 128,-1,23
 420 1370 420 1370 512 1391 c 0,24,25
 556 1401 556 1401 594 1412.5 c 128,-1,26
 632 1424 632 1424 659.5 1441.5 c 128,-1,27
 687 1459 687 1459 703 1485.5 c 128,-1,28
 719 1512 719 1512 719 1553 c 1,29,-1
 845 1553 l 1,30,31
 845 1487 845 1487 833 1440 c 128,-1,32
 821 1393 821 1393 800 1360.5 c 128,-1,33
 779 1328 779 1328 750 1307.5 c 128,-1,34
 721 1287 721 1287 688 1273 c 128,-1,35
 655 1259 655 1259 618.5 1250 c 128,-1,36
 582 1241 582 1241 545 1231 c 0,37,38
 487 1216 487 1216 436.5 1189.5 c 128,-1,39
 386 1163 386 1163 346 1118 c 128,-1,40
 306 1073 306 1073 279 1007.5 c 128,-1,41
 252 942 252 942 239 850 c 1,42,43
 266 887 266 887 298 918.5 c 128,-1,44
 330 950 330 950 367.5 972.5 c 128,-1,45
 405 995 405 995 447.5 1007.5 c 128,-1,46
 490 1020 490 1020 536 1020 c 0,0,1
507 868 m 256,47,48
 444 868 444 868 397.5 840.5 c 128,-1,49
 351 813 351 813 321 766.5 c 128,-1,50
 291 720 291 720 276 659 c 128,-1,51
 261 598 261 598 261 530 c 2,52,-1
 261 507 l 2,53,54
 261 431 261 431 276 362.5 c 128,-1,55
 291 294 291 294 321 242.5 c 128,-1,56
 351 191 351 191 398 160.5 c 128,-1,57
 445 130 445 130 509 130 c 0,58,59
 572 130 572 130 618 160.5 c 128,-1,60
 664 191 664 191 694.5 242.5 c 128,-1,61
 725 294 725 294 740 362.5 c 128,-1,62
 755 431 755 431 755 507 c 2,63,-1
 755 530 l 2,64,65
 755 598 755 598 740 659 c 128,-1,66
 725 720 725 720 694.5 766.5 c 128,-1,67
 664 813 664 813 617 840.5 c 128,-1,68
 570 868 570 868 507 868 c 256,47,48
EndSplineSet
Validated: 1
EndChar

StartChar: uni0432
Encoding: 1074 1074 216
Width: 1024
GlyphClass: 2
Flags: W
LayerCount: 2
Fore
SplineSet
136 0 m 1,0,-1
 136 1082 l 1,1,-1
 489 1082 l 2,2,3
 572 1082 572 1082 640 1064 c 128,-1,4
 708 1046 708 1046 756.5 1010 c 128,-1,5
 805 974 805 974 831 918 c 128,-1,6
 857 862 857 862 857 785 c 256,7,8
 857 708 857 708 820 649 c 128,-1,9
 783 590 783 590 711 558 c 1,10,11
 754 546 754 546 787.5 521.5 c 128,-1,12
 821 497 821 497 844 464 c 128,-1,13
 867 431 867 431 878.5 391 c 128,-1,14
 890 351 890 351 890 307 c 0,15,16
 890 230 890 230 866 172.5 c 128,-1,17
 842 115 842 115 797 76.5 c 128,-1,18
 752 38 752 38 688.5 19 c 128,-1,19
 625 0 625 0 546 0 c 2,20,-1
 136 0 l 1,0,-1
291 475 m 1,21,-1
 291 149 l 1,22,-1
 546 149 l 2,23,24
 639 149 639 149 687 191 c 128,-1,25
 735 233 735 233 735 313 c 0,26,27
 735 391 735 391 686.5 433 c 128,-1,28
 638 475 638 475 546 475 c 2,29,-1
 291 475 l 1,21,-1
291 623 m 1,30,-1
 491 623 l 2,31,32
 594 623 594 623 649 660 c 128,-1,33
 704 697 704 697 704 775 c 0,34,35
 704 856 704 856 648 894 c 128,-1,36
 592 932 592 932 489 932 c 2,37,-1
 291 932 l 1,38,-1
 291 623 l 1,30,-1
EndSplineSet
Validated: 1
EndChar

StartChar: uni0433
Encoding: 1075 1075 217
Width: 1024
GlyphClass: 2
Flags: W
LayerCount: 2
Fore
SplineSet
885 929 m 1,0,-1
 306 929 l 1,1,-1
 306 0 l 1,2,-1
 152 0 l 1,3,-1
 152 1082 l 1,4,-1
 885 1082 l 1,5,-1
 885 929 l 1,0,-1
EndSplineSet
Validated: 1
EndChar

StartChar: uni0434
Encoding: 1076 1076 218
Width: 1024
GlyphClass: 2
Flags: W
LayerCount: 2
Fore
SplineSet
129 151 m 1,0,1
 165 157 165 157 189.5 196.5 c 128,-1,2
 214 236 214 236 230 304 c 128,-1,3
 246 372 246 372 255.5 466 c 128,-1,4
 265 560 265 560 271 676 c 2,5,-1
 284 1082 l 1,6,-1
 862 1082 l 1,7,-1
 862 151 l 1,8,-1
 978 151 l 1,9,-1
 963 -318 l 1,10,-1
 824 -318 l 1,11,-1
 824 0 l 1,12,-1
 198 0 l 1,13,-1
 198 -318 l 1,14,-1
 60 -318 l 1,15,-1
 45 151 l 1,16,-1
 129 151 l 1,0,1
424 676 m 2,17,18
 420 592 420 592 414 516 c 128,-1,19
 408 440 408 440 398.5 373.5 c 128,-1,20
 389 307 389 307 375.5 251 c 128,-1,21
 362 195 362 195 342 151 c 1,22,-1
 709 151 l 1,23,-1
 709 911 l 1,24,-1
 432 911 l 1,25,-1
 424 676 l 2,17,18
EndSplineSet
Validated: 1
EndChar

StartChar: uni0436
Encoding: 1078 1078 220
Width: 1024
GlyphClass: 2
Flags: W
LayerCount: 2
Fore
SplineSet
628 470 m 1,0,-1
 580 470 l 1,1,-1
 580 0 l 1,2,-1
 427 0 l 1,3,-1
 427 470 l 1,4,-1
 378 470 l 1,5,-1
 199 0 l 1,6,-1
 14 0 l 1,7,-1
 261 563 l 1,8,-1
 43 1082 l 1,9,-1
 221 1082 l 1,10,-1
 378 634 l 1,11,-1
 427 634 l 1,12,-1
 427 1082 l 1,13,-1
 580 1082 l 1,14,-1
 580 634 l 1,15,-1
 629 634 l 1,16,-1
 787 1082 l 1,17,-1
 965 1082 l 1,18,-1
 745 563 l 1,19,-1
 993 0 l 1,20,-1
 807 0 l 1,21,-1
 628 470 l 1,0,-1
EndSplineSet
Validated: 1
EndChar

StartChar: uni0437
Encoding: 1079 1079 221
Width: 1024
GlyphClass: 2
Flags: W
LayerCount: 2
Fore
SplineSet
528 630 m 2,0,1
 634 630 634 630 687 670.5 c 128,-1,2
 740 711 740 711 740 786 c 0,3,4
 740 820 740 820 725.5 850 c 128,-1,5
 711 880 711 880 683.5 902.5 c 128,-1,6
 656 925 656 925 614.5 938 c 128,-1,7
 573 951 573 951 519 951 c 0,8,9
 471 951 471 951 427.5 938 c 128,-1,10
 384 925 384 925 351.5 902.5 c 128,-1,11
 319 880 319 880 299.5 848.5 c 128,-1,12
 280 817 280 817 280 780 c 1,13,-1
 126 780 l 1,14,15
 127 855 127 855 159 914.5 c 128,-1,16
 191 974 191 974 244.5 1015.5 c 128,-1,17
 298 1057 298 1057 369 1079 c 128,-1,18
 440 1101 440 1101 519 1101 c 0,19,20
 602 1101 602 1101 671 1081 c 128,-1,21
 740 1061 740 1061 789.5 1021.5 c 128,-1,22
 839 982 839 982 866.5 923.5 c 128,-1,23
 894 865 894 865 894 787 c 0,24,25
 894 712 894 712 850 651.5 c 128,-1,26
 806 591 806 591 730 556 c 1,27,28
 815 525 815 525 863 462 c 128,-1,29
 911 399 911 399 911 304 c 0,30,31
 911 226 911 226 881 166 c 128,-1,32
 851 106 851 106 798 64.5 c 128,-1,33
 745 23 745 23 673.5 2 c 128,-1,34
 602 -19 602 -19 519 -19 c 0,35,36
 469 -19 469 -19 419.5 -10.5 c 128,-1,37
 370 -2 370 -2 325.5 16 c 128,-1,38
 281 34 281 34 242 61.5 c 128,-1,39
 203 89 203 89 174 126.5 c 128,-1,40
 145 164 145 164 128.5 212.5 c 128,-1,41
 112 261 112 261 112 320 c 1,42,-1
 266 320 l 1,43,44
 266 281 266 281 285 246.5 c 128,-1,45
 304 212 304 212 338 185.5 c 128,-1,46
 372 159 372 159 418.5 143.5 c 128,-1,47
 465 128 465 128 519 128 c 0,48,49
 572 128 572 128 616 141.5 c 128,-1,50
 660 155 660 155 691 179 c 128,-1,51
 722 203 722 203 739 235 c 128,-1,52
 756 267 756 267 756 304 c 0,53,54
 756 350 756 350 740.5 382.5 c 128,-1,55
 725 415 725 415 695 435.5 c 128,-1,56
 665 456 665 456 622.5 465 c 128,-1,57
 580 474 580 474 528 474 c 2,58,-1
 328 474 l 1,59,-1
 328 630 l 1,60,-1
 528 630 l 2,0,1
EndSplineSet
Validated: 1
EndChar

StartChar: uni0438
Encoding: 1080 1080 222
Width: 1024
GlyphClass: 2
Flags: W
LayerCount: 2
Fore
SplineSet
729 1082 m 1,0,-1
 882 1082 l 1,1,-1
 882 0 l 1,2,-1
 729 0 l 1,3,-1
 729 798 l 1,4,-1
 290 0 l 1,5,-1
 137 0 l 1,6,-1
 137 1082 l 1,7,-1
 290 1082 l 1,8,-1
 290 283 l 1,9,-1
 729 1082 l 1,0,-1
EndSplineSet
Validated: 1
EndChar

StartChar: uni0439
Encoding: 1081 1081 223
Width: 1024
GlyphClass: 2
Flags: W
LayerCount: 2
Fore
SplineSet
729 1082 m 1,0,-1
 882 1082 l 1,1,-1
 882 0 l 1,2,-1
 729 0 l 1,3,-1
 729 798 l 1,4,-1
 290 0 l 1,5,-1
 137 0 l 1,6,-1
 137 1082 l 1,7,-1
 290 1082 l 1,8,-1
 290 283 l 1,9,-1
 729 1082 l 1,0,-1
748 1523 m 1,10,11
 748 1464 748 1464 730 1414 c 0,12,13
 713 1364 713 1364 681 1330 c 128,-1,14
 649 1296 649 1296 603 1276 c 128,-1,15
 557 1256 557 1256 501 1256 c 0,16,17
 444 1256 444 1256 398 1276 c 128,-1,18
 352 1296 352 1296 320 1330 c 0,19,20
 285 1367 285 1367 269 1414 c 0,21,22
 252 1464 252 1464 252 1523 c 1,23,-1
 376 1523 l 1,24,25
 376 1494 376 1494 383 1466 c 128,-1,26
 390 1438 390 1438 406 1418 c 0,27,28
 421 1398 421 1398 444 1386 c 128,-1,29
 467 1374 467 1374 501 1374 c 0,30,31
 533 1374 533 1374 556 1386 c 128,-1,32
 579 1398 579 1398 594 1418 c 128,-1,33
 609 1438 609 1438 616 1466 c 128,-1,34
 623 1494 623 1494 623 1523 c 1,35,-1
 748 1523 l 1,10,11
EndSplineSet
Validated: 1
EndChar

StartChar: uni043A
Encoding: 1082 1082 224
Width: 1024
GlyphClass: 2
Flags: W
LayerCount: 2
Fore
SplineSet
436 461 m 1,0,-1
 290 461 l 1,1,-1
 290 0 l 1,2,-1
 136 0 l 1,3,-1
 136 1082 l 1,4,-1
 290 1082 l 1,5,-1
 290 624 l 1,6,-1
 423 624 l 1,7,-1
 757 1082 l 1,8,-1
 944 1082 l 1,9,-1
 559 561 l 1,10,-1
 974 0 l 1,11,-1
 779 0 l 1,12,-1
 436 461 l 1,0,-1
EndSplineSet
Validated: 1
EndChar

StartChar: uni043B
Encoding: 1083 1083 225
Width: 1024
GlyphClass: 2
Flags: W
LayerCount: 2
Fore
SplineSet
882 1082 m 1,0,-1
 882 0 l 1,1,-1
 727 0 l 1,2,-1
 727 929 l 1,3,-1
 397 929 l 1,4,-1
 396 619 l 2,5,6
 396 471 396 471 381 356 c 128,-1,7
 366 241 366 241 331 162 c 128,-1,8
 296 83 296 83 237 41.5 c 128,-1,9
 178 0 178 0 90 0 c 2,10,-1
 46 0 l 1,11,-1
 48 165 l 1,12,-1
 82 166 l 2,13,14
 129 166 129 166 160.5 194.5 c 128,-1,15
 192 223 192 223 209.5 279.5 c 128,-1,16
 227 336 227 336 234.5 421 c 128,-1,17
 242 506 242 506 242 619 c 2,18,-1
 243 1082 l 1,19,-1
 882 1082 l 1,0,-1
EndSplineSet
Validated: 1
EndChar

StartChar: uni043C
Encoding: 1084 1084 226
Width: 1024
GlyphClass: 2
Flags: W
LayerCount: 2
Fore
SplineSet
501 245 m 1,0,-1
 692 1082 l 1,1,-1
 884 1082 l 1,2,-1
 884 0 l 1,3,-1
 730 0 l 1,4,-1
 730 667 l 1,5,-1
 554 0 l 1,6,-1
 448 0 l 1,7,-1
 267 691 l 1,8,-1
 267 0 l 1,9,-1
 114 0 l 1,10,-1
 114 1082 l 1,11,-1
 312 1082 l 1,12,-1
 501 245 l 1,0,-1
EndSplineSet
Validated: 1
EndChar

StartChar: uni043D
Encoding: 1085 1085 227
Width: 1024
GlyphClass: 2
Flags: W
LayerCount: 2
Fore
SplineSet
882 0 m 1,0,-1
 729 0 l 1,1,-1
 729 462 l 1,2,-1
 291 462 l 1,3,-1
 291 0 l 1,4,-1
 137 0 l 1,5,-1
 137 1082 l 1,6,-1
 291 1082 l 1,7,-1
 291 613 l 1,8,-1
 729 613 l 1,9,-1
 729 1082 l 1,10,-1
 882 1082 l 1,11,-1
 882 0 l 1,0,-1
EndSplineSet
Validated: 1
EndChar

StartChar: uni043F
Encoding: 1087 1087 229
Width: 1024
GlyphClass: 2
Flags: W
LayerCount: 2
Fore
SplineSet
882 0 m 1,0,-1
 729 0 l 1,1,-1
 729 929 l 1,2,-1
 291 929 l 1,3,-1
 291 0 l 1,4,-1
 137 0 l 1,5,-1
 137 1082 l 1,6,-1
 882 1082 l 1,7,-1
 882 0 l 1,0,-1
EndSplineSet
Validated: 1
EndChar

StartChar: uni0441
Encoding: 1089 1089 231
Width: 1024
GlyphClass: 2
Flags: W
LayerCount: 2
Fore
SplineSet
527 130 m 0,0,1
 569 130 569 130 608 146 c 128,-1,2
 647 162 647 162 678 190.5 c 128,-1,3
 709 219 709 219 727.5 257.5 c 128,-1,4
 746 296 746 296 747 341 c 1,5,-1
 892 341 l 1,6,7
 891 269 891 269 861 203.5 c 128,-1,8
 831 138 831 138 780.5 88.5 c 128,-1,9
 730 39 730 39 664 9.5 c 128,-1,10
 598 -20 598 -20 527 -20 c 0,11,12
 425 -20 425 -20 348.5 24 c 128,-1,13
 272 68 272 68 221 142.5 c 128,-1,14
 170 217 170 217 144.5 314.5 c 128,-1,15
 119 412 119 412 119 520 c 2,16,-1
 119 562 l 2,17,18
 119 669 119 669 144.5 767 c 128,-1,19
 170 865 170 865 221 939.5 c 128,-1,20
 272 1014 272 1014 348.5 1058 c 128,-1,21
 425 1102 425 1102 527 1102 c 0,22,23
 607 1102 607 1102 673.5 1071.5 c 128,-1,24
 740 1041 740 1041 789 988.5 c 128,-1,25
 838 936 838 936 865 864 c 128,-1,26
 892 792 892 792 892 710 c 1,27,-1
 747 710 l 1,28,29
 746 759 746 759 729 802.5 c 128,-1,30
 712 846 712 846 683 879 c 128,-1,31
 654 912 654 912 614 931 c 128,-1,32
 574 950 574 950 527 950 c 0,33,34
 456 950 456 950 407.5 915.5 c 128,-1,35
 359 881 359 881 329 825.5 c 128,-1,36
 299 770 299 770 286 701 c 128,-1,37
 273 632 273 632 273 562 c 2,38,-1
 273 520 l 2,39,40
 273 449 273 449 286 379.5 c 128,-1,41
 299 310 299 310 328.5 254.5 c 128,-1,42
 358 199 358 199 406.5 164.5 c 128,-1,43
 455 130 455 130 527 130 c 0,0,1
EndSplineSet
Validated: 1
EndChar

StartChar: uni0442
Encoding: 1090 1090 232
Width: 1024
GlyphClass: 2
Flags: W
LayerCount: 2
Fore
SplineSet
952 932 m 1,0,-1
 594 932 l 1,1,-1
 594 0 l 1,2,-1
 439 0 l 1,3,-1
 439 932 l 1,4,-1
 86 932 l 1,5,-1
 86 1082 l 1,6,-1
 952 1082 l 1,7,-1
 952 932 l 1,0,-1
EndSplineSet
Validated: 1
EndChar

StartChar: uni0444
Encoding: 1092 1092 234
Width: 1024
GlyphClass: 2
Flags: W
LayerCount: 2
Fore
SplineSet
101 551 m 2,0,1
 101 655 101 655 123.5 747 c 128,-1,2
 146 839 146 839 189 910.5 c 128,-1,3
 232 982 232 982 293 1029.5 c 128,-1,4
 354 1077 354 1077 432 1094 c 1,5,-1
 432 1536 l 1,6,-1
 585 1536 l 1,7,-1
 585 1094 l 1,8,9
 663 1078 663 1078 725 1030 c 128,-1,10
 787 982 787 982 830 910.5 c 128,-1,11
 873 839 873 839 895.5 747 c 128,-1,12
 918 655 918 655 918 551 c 2,13,-1
 918 529 l 2,14,15
 918 424 918 424 895 332.5 c 128,-1,16
 872 241 872 241 829.5 169.5 c 128,-1,17
 787 98 787 98 725 50.5 c 128,-1,18
 663 3 663 3 585 -12 c 1,19,-1
 585 -416 l 1,20,-1
 432 -416 l 1,21,-1
 432 -11 l 1,22,23
 355 5 355 5 293.5 52.5 c 128,-1,24
 232 100 232 100 189 171 c 128,-1,25
 146 242 146 242 123.5 333.5 c 128,-1,26
 101 425 101 425 101 529 c 2,27,-1
 101 551 l 2,0,1
765 551 m 2,28,29
 765 617 765 617 753.5 679 c 128,-1,30
 742 741 742 741 719.5 792 c 128,-1,31
 697 843 697 843 663.5 880 c 128,-1,32
 630 917 630 917 585 935 c 1,33,-1
 585 143 l 1,34,35
 630 161 630 161 663.5 198 c 128,-1,36
 697 235 697 235 719.5 286 c 128,-1,37
 742 337 742 337 753.5 399 c 128,-1,38
 765 461 765 461 765 529 c 2,39,-1
 765 551 l 2,28,29
255 529 m 2,40,41
 255 462 255 462 265.5 400.5 c 128,-1,42
 276 339 276 339 298 288 c 128,-1,43
 320 237 320 237 353.5 200 c 128,-1,44
 387 163 387 163 432 145 c 1,45,-1
 432 935 l 1,46,47
 388 917 388 917 354.5 879.5 c 128,-1,48
 321 842 321 842 299 791 c 128,-1,49
 277 740 277 740 266 678.5 c 128,-1,50
 255 617 255 617 255 551 c 2,51,-1
 255 529 l 2,40,41
EndSplineSet
Validated: 1
EndChar

StartChar: uni0446
Encoding: 1094 1094 236
Width: 1024
GlyphClass: 2
Flags: W
LayerCount: 2
Fore
SplineSet
141 1082 m 1,0,-1
 295 1082 l 1,1,-1
 295 151 l 1,2,-1
 708 151 l 1,3,-1
 708 1082 l 1,4,-1
 862 1082 l 1,5,-1
 862 151 l 1,6,-1
 970 151 l 1,7,-1
 955 -321 l 1,8,-1
 817 -321 l 1,9,-1
 817 0 l 1,10,-1
 141 0 l 1,11,-1
 141 1082 l 1,0,-1
EndSplineSet
Validated: 1
EndChar

StartChar: uni0447
Encoding: 1095 1095 237
Width: 1024
GlyphClass: 2
Flags: W
LayerCount: 2
Fore
SplineSet
882 0 m 1,0,-1
 729 0 l 1,1,-1
 729 395 l 1,2,3
 673 378 673 378 612.5 369 c 128,-1,4
 552 360 552 360 481 360 c 0,5,6
 398 360 398 360 331 385 c 128,-1,7
 264 410 264 410 216.5 460.5 c 128,-1,8
 169 511 169 511 143 587.5 c 128,-1,9
 117 664 117 664 117 767 c 2,10,-1
 117 1082 l 1,11,-1
 271 1082 l 1,12,-1
 271 767 l 2,13,14
 272 634 272 634 326 573 c 128,-1,15
 380 512 380 512 481 512 c 0,16,17
 548 512 548 512 610 521 c 128,-1,18
 672 530 672 530 729 547 c 1,19,-1
 729 1082 l 1,20,-1
 882 1082 l 1,21,-1
 882 0 l 1,0,-1
EndSplineSet
Validated: 1
EndChar

StartChar: uni0448
Encoding: 1096 1096 238
Width: 1024
GlyphClass: 2
Flags: W
LayerCount: 2
Fore
SplineSet
261 1082 m 1,0,-1
 261 151 l 1,1,-1
 433 151 l 1,2,-1
 433 1082 l 1,3,-1
 587 1082 l 1,4,-1
 587 151 l 1,5,-1
 760 151 l 1,6,-1
 760 1082 l 1,7,-1
 913 1082 l 1,8,-1
 913 0 l 1,9,-1
 107 0 l 1,10,-1
 107 1082 l 1,11,-1
 261 1082 l 1,0,-1
EndSplineSet
Validated: 1
EndChar

StartChar: uni0449
Encoding: 1097 1097 239
Width: 1024
GlyphClass: 2
Flags: W
LayerCount: 2
Fore
SplineSet
252 1082 m 1,0,-1
 252 151 l 1,1,-1
 424 151 l 1,2,-1
 424 1082 l 1,3,-1
 578 1082 l 1,4,-1
 578 151 l 1,5,-1
 706 151 l 1,6,-1
 706 152 l 1,7,-1
 750 152 l 1,8,-1
 750 1082 l 1,9,-1
 904 1082 l 1,10,-1
 904 152 l 1,11,-1
 976 152 l 1,12,-1
 961 -321 l 1,13,-1
 824 -321 l 1,14,-1
 824 0 l 1,15,-1
 98 0 l 1,16,-1
 98 1082 l 1,17,-1
 252 1082 l 1,0,-1
EndSplineSet
Validated: 1
EndChar

StartChar: uni044A
Encoding: 1098 1098 240
Width: 1024
GlyphClass: 2
Flags: W
LayerCount: 2
Fore
SplineSet
47 1082 m 1,0,-1
 450 1082 l 1,1,-1
 450 672 l 1,2,-1
 616 672 l 2,3,4
 696 672 696 672 758 647 c 128,-1,5
 820 622 820 622 862.5 578 c 128,-1,6
 905 534 905 534 927 473 c 128,-1,7
 949 412 949 412 949 340 c 256,8,9
 949 268 949 268 927 206 c 128,-1,10
 905 144 905 144 862.5 98.5 c 128,-1,11
 820 53 820 53 758 26.5 c 128,-1,12
 696 0 696 0 616 0 c 2,13,-1
 296 0 l 1,14,-1
 296 930 l 1,15,-1
 47 930 l 1,16,-1
 47 1082 l 1,0,-1
450 521 m 1,17,-1
 450 151 l 1,18,-1
 616 151 l 2,19,20
 664 151 664 151 697.5 166 c 128,-1,21
 731 181 731 181 752.5 206.5 c 128,-1,22
 774 232 774 232 784 265 c 128,-1,23
 794 298 794 298 794 333 c 0,24,25
 794 367 794 367 784 400.5 c 128,-1,26
 774 434 774 434 752.5 460.5 c 128,-1,27
 731 487 731 487 697 504 c 128,-1,28
 663 521 663 521 616 521 c 2,29,-1
 450 521 l 1,17,-1
EndSplineSet
Validated: 1
EndChar

StartChar: uni044B
Encoding: 1099 1099 241
Width: 1024
GlyphClass: 2
Flags: W
LayerCount: 2
Fore
SplineSet
273 672 m 1,0,-1
 355 672 l 2,1,2
 427 672 427 672 483.5 647 c 128,-1,3
 540 622 540 622 577.5 577.5 c 128,-1,4
 615 533 615 533 634.5 472 c 128,-1,5
 654 411 654 411 654 340 c 256,6,7
 654 269 654 269 634.5 207 c 128,-1,8
 615 145 615 145 577.5 99 c 128,-1,9
 540 53 540 53 484 26.5 c 128,-1,10
 428 0 428 0 355 0 c 2,11,-1
 120 0 l 1,12,-1
 120 1082 l 1,13,-1
 273 1082 l 1,14,-1
 273 672 l 1,0,-1
902 0 m 1,15,-1
 749 0 l 1,16,-1
 749 1082 l 1,17,-1
 902 1082 l 1,18,-1
 902 0 l 1,15,-1
273 521 m 1,19,-1
 273 151 l 1,20,-1
 355 151 l 2,21,22
 394 151 394 151 421.5 166.5 c 128,-1,23
 449 182 449 182 466 207.5 c 128,-1,24
 483 233 483 233 491 265.5 c 128,-1,25
 499 298 499 298 499 333 c 0,26,27
 499 366 499 366 491 399.5 c 128,-1,28
 483 433 483 433 466 460 c 128,-1,29
 449 487 449 487 421.5 504 c 128,-1,30
 394 521 394 521 355 521 c 2,31,-1
 273 521 l 1,19,-1
EndSplineSet
Validated: 1
EndChar

StartChar: uni044C
Encoding: 1100 1100 242
Width: 1024
GlyphClass: 2
Flags: W
LayerCount: 2
Fore
SplineSet
291 672 m 1,0,-1
 565 672 l 2,1,2
 646 672 646 672 708.5 647.5 c 128,-1,3
 771 623 771 623 814 579 c 128,-1,4
 857 535 857 535 880 474 c 128,-1,5
 903 413 903 413 903 340 c 0,6,7
 903 268 903 268 880.5 205.5 c 128,-1,8
 858 143 858 143 815 97.5 c 128,-1,9
 772 52 772 52 709 26 c 128,-1,10
 646 0 646 0 565 0 c 2,11,-1
 137 0 l 1,12,-1
 137 1082 l 1,13,-1
 291 1082 l 1,14,-1
 291 672 l 1,0,-1
291 521 m 1,15,-1
 291 151 l 1,16,-1
 565 151 l 2,17,18
 613 151 613 151 648 166 c 128,-1,19
 683 181 683 181 705.5 206 c 128,-1,20
 728 231 728 231 738.5 264 c 128,-1,21
 749 297 749 297 749 333 c 0,22,23
 749 368 749 368 738 401.5 c 128,-1,24
 727 435 727 435 704.5 461.5 c 128,-1,25
 682 488 682 488 647.5 504.5 c 128,-1,26
 613 521 613 521 565 521 c 2,27,-1
 291 521 l 1,15,-1
EndSplineSet
Validated: 1
EndChar

StartChar: uni044D
Encoding: 1101 1101 243
Width: 1024
GlyphClass: 2
Flags: W
LayerCount: 2
Fore
SplineSet
475 950 m 0,0,1
 433 950 433 950 393.5 934 c 128,-1,2
 354 918 354 918 322.5 889.5 c 128,-1,3
 291 861 291 861 272 822.5 c 128,-1,4
 253 784 253 784 253 738 c 1,5,-1
 107 738 l 1,6,7
 107 811 107 811 138 877 c 128,-1,8
 169 943 169 943 220 993 c 128,-1,9
 271 1043 271 1043 337 1072.5 c 128,-1,10
 403 1102 403 1102 475 1102 c 0,11,12
 580 1102 580 1102 660 1058 c 128,-1,13
 740 1014 740 1014 792.5 940 c 128,-1,14
 845 866 845 866 871.5 768 c 128,-1,15
 898 670 898 670 898 562 c 2,16,-1
 898 520 l 2,17,18
 898 412 898 412 871.5 314 c 128,-1,19
 845 216 845 216 792 141.5 c 128,-1,20
 739 67 739 67 659.5 23.5 c 128,-1,21
 580 -20 580 -20 475 -20 c 0,22,23
 395 -20 395 -20 328 10 c 128,-1,24
 261 40 261 40 212 92.5 c 128,-1,25
 163 145 163 145 135 216.5 c 128,-1,26
 107 288 107 288 107 371 c 1,27,-1
 253 371 l 1,28,29
 253 321 253 321 270.5 277 c 128,-1,30
 288 233 288 233 318 200.5 c 128,-1,31
 348 168 348 168 388 149 c 128,-1,32
 428 130 428 130 475 130 c 0,33,34
 545 130 545 130 593.5 159.5 c 128,-1,35
 642 189 642 189 674 237.5 c 128,-1,36
 706 286 706 286 722.5 348 c 128,-1,37
 739 410 739 410 743 475 c 1,38,-1
 387 475 l 1,39,-1
 387 627 l 1,40,-1
 741 627 l 1,41,42
 736 690 736 690 718.5 748 c 128,-1,43
 701 806 701 806 669.5 851 c 128,-1,44
 638 896 638 896 590 923 c 128,-1,45
 542 950 542 950 475 950 c 0,0,1
EndSplineSet
Validated: 1
EndChar

StartChar: uni044E
Encoding: 1102 1102 244
Width: 1024
GlyphClass: 2
Flags: W
LayerCount: 2
Fore
SplineSet
247 623 m 1,0,-1
 355 623 l 1,1,2
 361 725 361 725 382 812.5 c 128,-1,3
 403 900 403 900 440 964.5 c 128,-1,4
 477 1029 477 1029 530.5 1065.5 c 128,-1,5
 584 1102 584 1102 654 1102 c 0,6,7
 731 1102 731 1102 788.5 1059 c 128,-1,8
 846 1016 846 1016 883.5 941 c 128,-1,9
 921 866 921 866 939 765.5 c 128,-1,10
 957 665 957 665 957 551 c 2,11,-1
 957 529 l 2,12,13
 957 415 957 415 939 314.5 c 128,-1,14
 921 214 921 214 884 140 c 128,-1,15
 847 66 847 66 790 23 c 128,-1,16
 733 -20 733 -20 656 -20 c 0,17,18
 584 -20 584 -20 529.5 17.5 c 128,-1,19
 475 55 475 55 437.5 121 c 128,-1,20
 400 187 400 187 379.5 277 c 128,-1,21
 359 367 359 367 354 471 c 1,22,-1
 247 471 l 1,23,-1
 247 0 l 1,24,-1
 94 0 l 1,25,-1
 94 1082 l 1,26,-1
 247 1082 l 1,27,-1
 247 623 l 1,0,-1
508 529 m 2,28,29
 508 451 508 451 514.5 378.5 c 128,-1,30
 521 306 521 306 538 251 c 128,-1,31
 555 196 555 196 583.5 163 c 128,-1,32
 612 130 612 130 656 130 c 0,33,34
 699 130 699 130 727.5 163 c 128,-1,35
 756 196 756 196 772.5 251 c 128,-1,36
 789 306 789 306 796.5 378.5 c 128,-1,37
 804 451 804 451 804 529 c 2,38,-1
 804 551 l 2,39,40
 804 629 804 629 796.5 701 c 128,-1,41
 789 773 789 773 772 828.5 c 128,-1,42
 755 884 755 884 726.5 917 c 128,-1,43
 698 950 698 950 654 950 c 0,44,45
 611 950 611 950 582.5 917 c 128,-1,46
 554 884 554 884 537.5 828.5 c 128,-1,47
 521 773 521 773 514.5 701 c 128,-1,48
 508 629 508 629 508 551 c 2,49,-1
 508 529 l 2,28,29
EndSplineSet
Validated: 1
EndChar

StartChar: uni044F
Encoding: 1103 1103 245
Width: 1024
GlyphClass: 2
Flags: W
LayerCount: 2
Fore
SplineSet
877 1082 m 1,0,-1
 877 0 l 1,1,-1
 724 0 l 1,2,-1
 724 421 l 1,3,-1
 445 421 l 1,4,-1
 232 0 l 1,5,-1
 66 0 l 1,6,-1
 292 449 l 1,7,8
 206 487 206 487 159.5 566.5 c 128,-1,9
 113 646 113 646 113 752 c 0,10,11
 113 824 113 824 136.5 884.5 c 128,-1,12
 160 945 160 945 204 988.5 c 128,-1,13
 248 1032 248 1032 312 1057 c 128,-1,14
 376 1082 376 1082 456 1082 c 2,15,-1
 877 1082 l 1,0,-1
267 750 m 0,16,17
 267 716 267 716 277 684 c 128,-1,18
 287 652 287 652 308.5 627.5 c 128,-1,19
 330 603 330 603 361.5 588 c 128,-1,20
 393 573 393 573 437 573 c 2,21,-1
 724 573 l 1,22,-1
 724 932 l 1,23,-1
 456 932 l 2,24,25
 409 932 409 932 373 916.5 c 128,-1,26
 337 901 337 901 314 875.5 c 128,-1,27
 291 850 291 850 279 817.5 c 128,-1,28
 267 785 267 785 267 750 c 0,16,17
EndSplineSet
Validated: 1
EndChar

StartChar: uni0451
Encoding: 1105 1105 246
Width: 1024
GlyphClass: 2
Flags: W
LayerCount: 2
Fore
SplineSet
606 1402 m 128,-1,1
 606 1448 606 1448 639 1481 c 128,-1,2
 672 1514 672 1514 718 1514 c 128,-1,3
 764 1514 764 1514 797 1481 c 128,-1,4
 830 1448 830 1448 830 1402 c 128,-1,5
 830 1356 830 1356 797 1323 c 128,-1,6
 764 1290 764 1290 718 1290 c 128,-1,7
 672 1290 672 1290 639 1323 c 128,-1,0
 606 1356 606 1356 606 1402 c 128,-1,1
206 1402 m 128,-1,9
 206 1448 206 1448 239 1481 c 128,-1,10
 272 1514 272 1514 318 1514 c 128,-1,11
 364 1514 364 1514 397 1481 c 128,-1,12
 430 1448 430 1448 430 1402 c 128,-1,13
 430 1356 430 1356 397 1323 c 128,-1,14
 364 1290 364 1290 318 1290 c 128,-1,15
 272 1290 272 1290 239 1323 c 128,-1,8
 206 1356 206 1356 206 1402 c 128,-1,9
542 -20 m 0,16,17
 447 -20 447 -20 367.5 19 c 128,-1,18
 288 58 288 58 231.5 128 c 128,-1,19
 175 198 175 198 143.5 294 c 128,-1,20
 112 390 112 390 112 503 c 2,21,-1
 112 545 l 2,22,23
 112 676 112 676 147 779.5 c 128,-1,24
 182 883 182 883 239.5 954.5 c 128,-1,25
 297 1026 297 1026 371 1064 c 128,-1,26
 445 1102 445 1102 522 1102 c 0,27,28
 619 1102 619 1102 692 1061.5 c 128,-1,29
 765 1021 765 1021 813 949.5 c 128,-1,30
 861 878 861 878 884.5 781 c 128,-1,31
 908 684 908 684 908 571 c 2,32,-1
 908 488 l 1,33,-1
 266 488 l 1,34,35
 268 414 268 414 289.5 349 c 128,-1,36
 311 284 311 284 348 235.5 c 128,-1,37
 385 187 385 187 436.5 159 c 128,-1,38
 488 131 488 131 550 131 c 0,39,40
 632 131 632 131 696 171 c 128,-1,41
 760 211 760 211 803 277 c 1,42,-1
 897 189 l 1,43,44
 875 148 875 148 841 110.5 c 128,-1,45
 807 73 807 73 763 44 c 128,-1,46
 719 15 719 15 663.5 -2.5 c 128,-1,47
 608 -20 608 -20 542 -20 c 0,16,17
522 950 m 0,48,49
 475 950 475 950 433.5 929.5 c 128,-1,50
 392 909 392 909 359 869.5 c 128,-1,51
 326 830 326 830 303 772.5 c 128,-1,52
 280 715 280 715 271 640 c 1,53,-1
 755 640 l 1,54,-1
 755 654 l 2,55,56
 753 708 753 708 738 761 c 128,-1,57
 723 814 723 814 694.5 856 c 128,-1,58
 666 898 666 898 623.5 924 c 128,-1,59
 581 950 581 950 522 950 c 0,48,49
EndSplineSet
Validated: 1
EndChar

StartChar: uni2010
Encoding: 8208 8208 258
Width: 1024
GlyphClass: 2
Flags: W
LayerCount: 2
Fore
SplineSet
792 576 m 1,0,-1
 232 576 l 1,1,-1
 232 704 l 1,2,-1
 792 704 l 1,3,-1
 792 576 l 1,0,-1
EndSplineSet
Validated: 1
EndChar

StartChar: figuredash
Encoding: 8210 8210 259
Width: 1024
GlyphClass: 2
Flags: W
LayerCount: 2
Fore
SplineSet
792 576 m 1,0,-1
 232 576 l 1,1,-1
 232 704 l 1,2,-1
 792 704 l 1,3,-1
 792 576 l 1,0,-1
EndSplineSet
Validated: 1
EndChar

StartChar: endash
Encoding: 8211 8211 260
Width: 1024
GlyphClass: 2
Flags: W
LayerCount: 2
Fore
SplineSet
896 576 m 1,0,-1
 128 576 l 1,1,-1
 128 704 l 1,2,-1
 896 704 l 1,3,-1
 896 576 l 1,0,-1
EndSplineSet
Validated: 1
EndChar

StartChar: emdash
Encoding: 8212 8212 261
Width: 1024
GlyphClass: 2
Flags: W
LayerCount: 2
Fore
SplineSet
960 576 m 1,0,-1
 64 576 l 1,1,-1
 64 704 l 1,2,-1
 960 704 l 1,3,-1
 960 576 l 1,0,-1
EndSplineSet
Validated: 1
EndChar

StartChar: uni2015
Encoding: 8213 8213 262
Width: 1024
GlyphClass: 2
Flags: W
LayerCount: 2
Fore
SplineSet
1024 576 m 1,0,-1
 0 576 l 1,1,-1
 0 704 l 1,2,-1
 1024 704 l 1,3,-1
 1024 576 l 1,0,-1
EndSplineSet
Validated: 1
EndChar

StartChar: uni2016
Encoding: 8214 8214 263
Width: 1024
GlyphClass: 2
Flags: W
LayerCount: 2
Fore
SplineSet
704 -128 m 1,0,-1
 592 -128 l 1,1,-1
 592 1536 l 1,2,-1
 704 1536 l 1,3,-1
 704 -128 l 1,0,-1
432 -128 m 1,4,-1
 320 -128 l 1,5,-1
 320 1536 l 1,6,-1
 432 1536 l 1,7,-1
 432 -128 l 1,4,-1
EndSplineSet
Validated: 1
EndChar

StartChar: underscoredbl
Encoding: 8215 8215 264
Width: 1024
GlyphClass: 2
Flags: W
LayerCount: 2
Fore
SplineSet
64 -384 m 1,0,-1
 64 -256 l 1,1,-1
 960 -256 l 1,2,-1
 960 -384 l 1,3,-1
 64 -384 l 1,0,-1
64 -128 m 1,4,-1
 64 0 l 1,5,-1
 960 0 l 1,6,-1
 960 -128 l 1,7,-1
 64 -128 l 1,4,-1
EndSplineSet
Validated: 1
EndChar

StartChar: quoteleft
Encoding: 8216 8216 265
Width: 1024
GlyphClass: 2
Flags: W
LayerCount: 2
Fore
SplineSet
613 1088 m 1,0,-1
 411 1088 l 1,1,-1
 411 1214 l 2,2,3
 411 1472 411 1472 603 1664 c 1,4,-1
 704 1568 l 1,5,6
 613 1477 613 1477 613 1214 c 2,7,-1
 613 1088 l 1,0,-1
EndSplineSet
Validated: 1
EndChar

StartChar: quoteright
Encoding: 8217 8217 266
Width: 1024
GlyphClass: 2
Flags: W
LayerCount: 2
Fore
SplineSet
411 1664 m 1,0,-1
 613 1664 l 1,1,-1
 613 1538 l 2,2,3
 613 1280 613 1280 421 1088 c 1,4,-1
 320 1184 l 1,5,6
 411 1275 411 1275 411 1538 c 2,7,-1
 411 1664 l 1,0,-1
EndSplineSet
Validated: 1
EndChar

StartChar: quotesinglbase
Encoding: 8218 8218 267
Width: 1024
GlyphClass: 2
Flags: W
LayerCount: 2
Fore
SplineSet
411 252 m 1,0,-1
 613 252 l 1,1,-1
 613 126 l 2,2,3
 613 -132 613 -132 421 -324 c 1,4,-1
 320 -228 l 1,5,6
 411 -137 411 -137 411 126 c 2,7,-1
 411 252 l 1,0,-1
EndSplineSet
Validated: 1
EndChar

StartChar: quotereversed
Encoding: 8219 8219 268
Width: 1024
GlyphClass: 2
Flags: W
LayerCount: 2
Fore
SplineSet
613 1664 m 1,0,-1
 613 1536 l 2,1,2
 613 1275 613 1275 704 1184 c 1,3,-1
 603 1088 l 1,4,5
 411 1280 411 1280 411 1536 c 2,6,-1
 411 1664 l 1,7,-1
 613 1664 l 1,0,-1
EndSplineSet
Validated: 1
EndChar

StartChar: quotedblleft
Encoding: 8220 8220 269
Width: 1024
GlyphClass: 2
Flags: W
LayerCount: 2
Fore
SplineSet
421 1088 m 1,0,-1
 219 1088 l 1,1,-1
 219 1214 l 2,2,3
 219 1472 219 1472 411 1664 c 1,4,-1
 512 1568 l 1,5,6
 421 1477 421 1477 421 1214 c 2,7,-1
 421 1088 l 1,0,-1
805 1088 m 1,8,-1
 603 1088 l 1,9,-1
 603 1214 l 2,10,11
 603 1472 603 1472 795 1664 c 1,12,-1
 896 1568 l 1,13,14
 805 1477 805 1477 805 1214 c 2,15,-1
 805 1088 l 1,8,-1
EndSplineSet
Validated: 1
EndChar

StartChar: quotedblright
Encoding: 8221 8221 270
Width: 1024
GlyphClass: 2
Flags: W
LayerCount: 2
Fore
SplineSet
219 1664 m 1,0,-1
 421 1664 l 1,1,-1
 421 1538 l 2,2,3
 421 1280 421 1280 229 1088 c 1,4,-1
 128 1184 l 1,5,6
 219 1275 219 1275 219 1538 c 2,7,-1
 219 1664 l 1,0,-1
603 1664 m 1,8,-1
 805 1664 l 1,9,-1
 805 1538 l 2,10,11
 805 1280 805 1280 613 1088 c 1,12,-1
 512 1184 l 1,13,14
 603 1275 603 1275 603 1538 c 2,15,-1
 603 1664 l 1,8,-1
EndSplineSet
Validated: 1
EndChar

StartChar: quotedblbase
Encoding: 8222 8222 271
Width: 1024
GlyphClass: 2
Flags: W
LayerCount: 2
Fore
SplineSet
219 252 m 1,0,-1
 421 252 l 1,1,-1
 421 126 l 2,2,3
 421 -132 421 -132 229 -324 c 1,4,-1
 128 -228 l 1,5,6
 219 -137 219 -137 219 126 c 2,7,-1
 219 252 l 1,0,-1
603 252 m 1,8,-1
 805 252 l 1,9,-1
 805 126 l 2,10,11
 805 -132 805 -132 613 -324 c 1,12,-1
 512 -228 l 1,13,14
 603 -137 603 -137 603 126 c 2,15,-1
 603 252 l 1,8,-1
EndSplineSet
Validated: 1
EndChar

StartChar: uni201F
Encoding: 8223 8223 272
Width: 1024
GlyphClass: 2
Flags: W
LayerCount: 2
Fore
SplineSet
421 1664 m 1,0,-1
 421 1536 l 2,1,2
 421 1275 421 1275 512 1184 c 1,3,-1
 411 1088 l 1,4,5
 219 1280 219 1280 219 1536 c 2,6,-1
 219 1664 l 1,7,-1
 421 1664 l 1,0,-1
805 1664 m 1,8,-1
 805 1536 l 2,9,10
 805 1275 805 1275 896 1184 c 1,11,-1
 795 1088 l 1,12,13
 603 1280 603 1280 603 1536 c 2,14,-1
 603 1664 l 1,15,-1
 805 1664 l 1,8,-1
EndSplineSet
Validated: 1
EndChar

StartChar: dagger
Encoding: 8224 8224 273
Width: 1024
GlyphClass: 2
Flags: W
LayerCount: 2
Fore
SplineSet
448 1696 m 5,0,-1
 480 1728 l 5,1,-1
 544 1728 l 5,2,-1
 576 1696 l 5,3,-1
 560 1448 l 5,4,-1
 832 1456 l 5,5,-1
 832 1360 l 5,6,-1
 560 1368 l 5,7,-1
 576 768 l 5,8,-1
 512 672 l 5,9,-1
 448 768 l 5,10,-1
 464 1368 l 5,11,-1
 192 1360 l 5,12,-1
 192 1456 l 5,13,-1
 464 1448 l 5,14,-1
 448 1696 l 5,0,-1
EndSplineSet
Validated: 1
EndChar

StartChar: daggerdbl
Encoding: 8225 8225 274
Width: 1024
GlyphClass: 2
Flags: W
LayerCount: 2
Fore
SplineSet
448 1696 m 1,0,-1
 480 1728 l 1,1,-1
 544 1728 l 1,2,-1
 576 1696 l 1,3,-1
 560 1448 l 1,4,-1
 832 1456 l 1,5,-1
 832 1360 l 1,6,-1
 560 1368 l 1,7,-1
 576 1152 l 1,8,-1
 560 936 l 1,9,-1
 832 944 l 1,10,-1
 832 848 l 1,11,-1
 560 856 l 1,12,-1
 576 256 l 1,13,-1
 512 160 l 1,14,-1
 448 256 l 1,15,-1
 464 856 l 1,16,-1
 192 848 l 1,17,-1
 192 944 l 1,18,-1
 464 936 l 1,19,-1
 448 1152 l 1,20,-1
 464 1368 l 1,21,-1
 192 1360 l 1,22,-1
 192 1456 l 1,23,-1
 464 1448 l 1,24,-1
 448 1696 l 1,0,-1
EndSplineSet
Validated: 1
EndChar

StartChar: bullet
Encoding: 8226 8226 275
Width: 1024
GlyphClass: 2
Flags: W
LayerCount: 2
Fore
SplineSet
256 704 m 128,-1,1
 256 810 256 810 331 885 c 128,-1,2
 406 960 406 960 512 960 c 128,-1,3
 618 960 618 960 693 885 c 128,-1,4
 768 810 768 810 768 704 c 128,-1,5
 768 598 768 598 693 523 c 128,-1,6
 618 448 618 448 512 448 c 128,-1,7
 406 448 406 448 331 523 c 128,-1,0
 256 598 256 598 256 704 c 128,-1,1
EndSplineSet
Validated: 1
EndChar

StartChar: uni2023
Encoding: 8227 8227 276
Width: 1024
GlyphClass: 2
Flags: W
LayerCount: 2
Fore
SplineSet
313 1049 m 1,0,-1
 910 704 l 1,1,-1
 313 359 l 1,2,-1
 313 1049 l 1,0,-1
EndSplineSet
Validated: 1
EndChar

StartChar: onedotenleader
Encoding: 8228 8228 277
Width: 1024
GlyphClass: 2
Flags: W
LayerCount: 2
Fore
SplineSet
392 100 m 128,-1,1
 392 150 392 150 427 185 c 128,-1,2
 462 220 462 220 512 220 c 128,-1,3
 562 220 562 220 597 185 c 128,-1,4
 632 150 632 150 632 100 c 128,-1,5
 632 50 632 50 597 15 c 128,-1,6
 562 -20 562 -20 512 -20 c 128,-1,7
 462 -20 462 -20 427 15 c 128,-1,0
 392 50 392 50 392 100 c 128,-1,1
EndSplineSet
Validated: 1
EndChar

StartChar: twodotenleader
Encoding: 8229 8229 278
Width: 1024
GlyphClass: 2
Flags: W
LayerCount: 2
Fore
SplineSet
648 100 m 128,-1,1
 648 150 648 150 683 185 c 128,-1,2
 718 220 718 220 768 220 c 128,-1,3
 818 220 818 220 853 185 c 128,-1,4
 888 150 888 150 888 100 c 128,-1,5
 888 50 888 50 853 15 c 128,-1,6
 818 -20 818 -20 768 -20 c 128,-1,7
 718 -20 718 -20 683 15 c 128,-1,0
 648 50 648 50 648 100 c 128,-1,1
136 100 m 128,-1,9
 136 150 136 150 171 185 c 128,-1,10
 206 220 206 220 256 220 c 128,-1,11
 306 220 306 220 341 185 c 128,-1,12
 376 150 376 150 376 100 c 128,-1,13
 376 50 376 50 341 15 c 128,-1,14
 306 -20 306 -20 256 -20 c 128,-1,15
 206 -20 206 -20 171 15 c 128,-1,8
 136 50 136 50 136 100 c 128,-1,9
EndSplineSet
Validated: 1
EndChar

StartChar: ellipsis
Encoding: 8230 8230 279
Width: 1024
GlyphClass: 2
Flags: W
LayerCount: 2
Fore
SplineSet
733 100 m 128,-1,1
 733 150 733 150 768 185 c 128,-1,2
 803 220 803 220 853 220 c 128,-1,3
 903 220 903 220 938 185 c 128,-1,4
 973 150 973 150 973 100 c 128,-1,5
 973 50 973 50 938 15 c 128,-1,6
 903 -20 903 -20 853 -20 c 128,-1,7
 803 -20 803 -20 768 15 c 128,-1,0
 733 50 733 50 733 100 c 128,-1,1
51 100 m 128,-1,9
 51 150 51 150 86 185 c 128,-1,10
 121 220 121 220 171 220 c 128,-1,11
 221 220 221 220 256 185 c 128,-1,12
 291 150 291 150 291 100 c 128,-1,13
 291 50 291 50 256 15 c 128,-1,14
 221 -20 221 -20 171 -20 c 128,-1,15
 121 -20 121 -20 86 15 c 128,-1,8
 51 50 51 50 51 100 c 128,-1,9
392 100 m 128,-1,17
 392 150 392 150 427 185 c 128,-1,18
 462 220 462 220 512 220 c 128,-1,19
 562 220 562 220 597 185 c 128,-1,20
 632 150 632 150 632 100 c 128,-1,21
 632 50 632 50 597 15 c 128,-1,22
 562 -20 562 -20 512 -20 c 128,-1,23
 462 -20 462 -20 427 15 c 128,-1,16
 392 50 392 50 392 100 c 128,-1,17
EndSplineSet
Validated: 1
EndChar

